<svg width="44" height="38" viewBox="0 0 44 38" fill="none" xmlns="http://www.w3.org/2000/svg">
<path d="M33.1569 30.93L35.3939 30.8419L32.8965 32.5388L32.3027 32.1098L33.1569 30.93Z" fill="#D38D39"/>
<path d="M19.1065 32.3741C20.7766 32.6116 23.6073 31.8264 24.9901 32.4278C26.3691 33.0291 28.3609 32.4661 29.2534 32.0792C29.3645 32.2401 29.4794 32.3971 29.5905 32.558C27.4608 32.8912 25.2621 32.9985 23.3162 32.9985C19.5394 32.9985 11.4762 32.0677 9.74103 30.93C9.25456 30.6121 9.17413 30.3516 9.24307 30.1525C9.25457 30.118 9.26605 30.0988 9.27371 30.0873C9.39246 29.8882 9.65293 29.7656 9.72188 29.7388C9.81381 30.2827 10.216 30.7385 10.7101 30.93C11.549 31.2556 14.4563 31.9566 15.7625 31.7421C17.0687 31.5238 17.4326 32.1366 19.1027 32.3741H19.1065Z" fill="#C27D2B"/>
<path style="mix-blend-mode:multiply" d="M19.1065 32.3741C20.7766 32.6116 23.6073 31.8264 24.9901 32.4278C26.3691 33.0291 28.3609 32.4661 29.2534 32.0792C29.3645 32.2401 29.4794 32.3971 29.5905 32.558C27.4608 32.8912 25.2621 32.9985 23.3162 32.9985C19.5394 32.9985 11.4762 32.0677 9.74103 30.93C9.25456 30.6121 9.17413 30.3516 9.24307 30.1525C9.25457 30.118 9.26605 30.0988 9.27371 30.0873C9.39246 29.8882 9.65293 29.7656 9.72188 29.7388C9.81381 30.2827 10.216 30.7385 10.7101 30.93C11.549 31.2556 14.4563 31.9566 15.7625 31.7421C17.0687 31.5238 17.4326 32.1366 19.1027 32.3741H19.1065Z" fill="url(#paint0_linear_3193_5409)"/>
<path d="M6.72998 18.7185C3.63879 17.6728 5.68426 14.2675 9.74456 15.9721C8.89036 16.11 8.74863 16.6577 9.15466 17.6383C8.23535 17.9371 7.4501 18.3853 6.7338 18.7185H6.72998Z" fill="#94CF21"/>
<path style="mix-blend-mode:screen" d="M6.4084 15.7192C4.88388 16.3245 4.69619 18.0328 6.73017 18.7185H6.734C7.1247 18.5385 7.53457 18.324 7.97508 18.1171C7.22047 17.3663 6.23603 16.7075 6.4084 15.7192Z" fill="url(#paint1_linear_3193_5409)"/>
<path style="mix-blend-mode:multiply" d="M9.7449 15.9721C8.35444 15.3899 7.20146 15.4052 6.40855 15.7193C6.23618 16.7076 7.22062 17.3664 7.97522 18.1172C8.34678 17.9448 8.73365 17.7763 9.155 17.6384C8.74897 16.6578 8.8907 16.11 9.7449 15.9721Z" fill="url(#paint2_linear_3193_5409)"/>
<path d="M22.7379 25.1537C24.8447 26.3181 29.0046 26.3909 31.6437 25.372C31.6437 25.372 32.5707 24.5715 32.2298 23.0125C32.812 23.8054 32.7048 24.6749 33.0495 25.5291C33.1568 25.7934 33.264 25.9734 33.3866 26.0845C34.1757 28.4172 29.7821 26.751 28.476 27.2681C27.1659 27.7852 26.2236 27.7699 24.0058 26.6093C21.7918 25.4448 21.7918 27.0421 21.7918 27.0421C19.6889 27.5516 16.8811 27.0421 16.8811 27.0421C16.8811 27.0421 16.2759 26.5365 16.2031 25.7359C20.3439 26.1726 22.7379 25.1537 22.7379 25.1537Z" fill="#883B19"/>
<path style="mix-blend-mode:screen" d="M22.7379 25.1537C24.8447 26.3181 29.0046 26.3909 31.6437 25.372C31.6437 25.372 32.5707 24.5715 32.2298 23.0125C32.812 23.8054 32.7048 24.6749 33.0495 25.5291C33.1568 25.7934 33.264 25.9734 33.3866 26.0845C34.1757 28.4172 29.7821 26.751 28.476 27.2681C27.1659 27.7852 26.2236 27.7699 24.0058 26.6093C21.7918 25.4448 21.7918 27.0421 21.7918 27.0421C19.6889 27.5516 16.8811 27.0421 16.8811 27.0421C16.8811 27.0421 16.2759 26.5365 16.2031 25.7359C20.3439 26.1726 22.7379 25.1537 22.7379 25.1537Z" fill="url(#paint3_linear_3193_5409)"/>
<path style="mix-blend-mode:multiply" d="M33.0495 25.5291C32.7048 24.6749 32.812 23.8054 32.2298 23.0125C32.5707 24.5715 31.6437 25.372 31.6437 25.372C29.0046 26.3909 24.8447 26.3181 22.7379 25.1537C22.7379 25.1537 20.3439 26.1726 16.2031 25.7359C16.2414 26.1649 16.433 26.5058 16.6053 26.7318C18.7121 26.8659 20.769 26.4943 22.6536 25.7474C26.0551 27.0689 29.8396 27.0842 33.3675 26.0615C33.2525 25.9504 33.153 25.778 33.0495 25.5291Z" fill="url(#paint4_linear_3193_5409)"/>
<path d="M33.3405 29.5893C33.3405 29.5893 33.7159 29.7119 34.2215 29.9264C34.0262 30.3669 33.7695 30.8534 33.4822 31.336C33.4095 31.4586 33.3367 31.5773 33.2639 31.6961C32.3254 33.2014 31.184 34.5689 30.8699 34.3084C30.6783 34.1476 30.1651 33.3815 29.5943 32.5618C29.4832 32.4009 29.3683 32.2438 29.2572 32.0829C28.6405 31.2211 28.0047 30.4129 27.6484 30.3133C26.8938 30.0988 23.6494 29.7349 23.6494 29.7349C23.6494 29.7349 24.3351 27.992 25.3501 28.4287C26.369 28.8615 28.3303 29.5893 29.782 28.9343C29.782 28.9343 32.8311 28.2103 33.3405 29.5893Z" fill="#FFBF31"/>
<path style="mix-blend-mode:screen" d="M27.8359 30.4129C28.2037 30.6733 28.7361 31.3551 29.2532 32.0791C29.3643 32.24 29.4792 32.397 29.5903 32.5579C30.161 33.3776 30.6743 34.1437 30.8658 34.3046C31.1799 34.5651 32.3214 33.1976 33.2599 31.6922C33.3327 31.5735 33.4054 31.4547 33.4782 31.3322C33.7502 30.8763 33.9915 30.4167 34.183 29.9953C32.0456 29.823 29.8661 29.9915 27.8359 30.4129Z" fill="url(#paint5_linear_3193_5409)"/>
<g style="mix-blend-mode:screen">
<path d="M28.0774 30.1294C26.664 29.8115 25.2505 29.5587 23.8371 29.3442C23.7145 29.5625 23.6494 29.7349 23.6494 29.7349C23.6494 29.7349 26.8938 30.0988 27.6484 30.3133C28.0047 30.4129 28.6405 31.2211 29.2572 32.083C29.3683 32.2438 29.4832 32.4009 29.5943 32.5618C30.1651 33.3815 30.6783 34.1476 30.8699 34.3085C30.9465 34.3698 31.069 34.3391 31.2261 34.2319C29.9812 32.692 29.399 31.3705 28.0813 30.1294H28.0774Z" fill="#735616"/>
</g>
<path style="mix-blend-mode:multiply" d="M33.8461 30.6849C33.984 30.4245 34.1143 30.1678 34.2215 29.9227C33.7159 29.7082 33.3405 29.5856 33.3405 29.5856C32.8311 28.2066 29.782 28.9306 29.782 28.9306C28.3303 29.5856 26.369 28.8578 25.3501 28.425C24.3351 27.9883 23.6494 29.7311 23.6494 29.7311C23.6494 29.7311 24.4347 29.8192 25.3233 29.9342C23.7337 28.9267 30.866 29.3711 33.8461 30.6849Z" fill="url(#paint6_linear_3193_5409)"/>
<path d="M30.74 21.871C31.3414 23.3151 28.9358 23.3381 28.9358 23.3381L28.457 23.0125C28.8554 22.8823 29.0891 22.6103 28.9818 22.1775C28.7558 21.2658 29.6943 21.3386 30.74 21.871Z" fill="#DD2308"/>
<path style="mix-blend-mode:multiply" d="M30.74 21.871C31.3414 23.3151 28.9358 23.3381 28.9358 23.3381L28.457 23.0125C28.8554 22.8823 29.0891 22.6103 28.9818 22.1775C28.7558 21.2658 29.6943 21.3386 30.74 21.871Z" fill="url(#paint7_linear_3193_5409)"/>
<path d="M25.9323 22.5413C26.3766 22.8477 26.9742 23.0354 27.5219 23.0852L27.6062 23.338C27.6062 23.338 25.3347 23.656 23.8945 23.0125C23.9711 22.7328 23.9979 22.5375 24.0017 22.457C24.0362 22.323 24.0055 22.1812 23.8906 22.0242L25.0474 21.871H25.0513C25.3232 22.0855 25.6182 22.323 25.9323 22.5413Z" fill="#DD2308"/>
<path style="mix-blend-mode:multiply" d="M25.9323 22.5413C26.3766 22.8477 26.9742 23.0354 27.5219 23.0852L27.6062 23.338C27.6062 23.338 25.3347 23.656 23.8945 23.0125C23.9711 22.7328 23.9979 22.5375 24.0017 22.457C24.0362 22.323 24.0055 22.1812 23.8906 22.0242L25.0474 21.871H25.0513C25.3232 22.0855 25.6182 22.323 25.9323 22.5413Z" fill="url(#paint8_linear_3193_5409)"/>
<path d="M22.1557 22.4647C22.2247 22.5222 22.286 22.5681 22.3396 22.6064C20.8687 23.0853 17.8196 23.5564 17.7354 22.955C18.5359 22.932 19.2063 22.7903 19.4093 22.4647C19.4093 22.4647 19.4169 22.4494 19.4322 22.4264C19.5816 22.2234 20.4052 21.2658 22.1557 22.4647Z" fill="#DD2308"/>
<path style="mix-blend-mode:multiply" d="M22.1557 22.4647C22.2247 22.5222 22.286 22.5681 22.3396 22.6064C20.8687 23.0853 17.8196 23.5564 17.7354 22.955C18.5359 22.932 19.2063 22.7903 19.4093 22.4647C19.4093 22.4647 19.4169 22.4494 19.4322 22.4264C19.5816 22.2234 20.4052 21.2658 22.1557 22.4647Z" fill="url(#paint9_linear_3193_5409)"/>
<path d="M14.9663 22.6869C15.3608 22.775 15.8434 22.8516 16.3452 22.8976C16.1844 23.3572 9.8794 22.2119 9.70703 21.1126C10.1743 20.9095 11.086 20.9019 12.0628 20.944C13.8056 21.0168 13.369 22.323 14.9663 22.6869Z" fill="#DD2308"/>
<path style="mix-blend-mode:multiply" d="M14.9663 22.6869C15.3608 22.775 15.8434 22.8516 16.3452 22.8976C16.1844 23.3572 9.8794 22.2119 9.70703 21.1126C10.1743 20.9095 11.086 20.9019 12.0628 20.944C13.8056 21.0168 13.369 22.323 14.9663 22.6869Z" fill="url(#paint10_linear_3193_5409)"/>
<path d="M32.2302 23.0124C32.5711 24.5714 31.6441 25.372 31.6441 25.372C29.0049 26.3909 24.845 26.3181 22.7383 25.1537C23.175 24.6136 23.4622 24.1079 23.6499 23.6866C25.1706 24.2458 34.0458 24.2535 31.0236 22.0242C31.2151 22.1353 31.4105 22.2578 31.5982 22.3957C31.874 22.5949 32.077 22.8018 32.2302 23.0124Z" fill="#D81C06"/>
<path style="mix-blend-mode:screen" d="M32.2302 23.0124C32.5711 24.5714 31.6441 25.372 31.6441 25.372C29.0049 26.3909 24.845 26.3181 22.7383 25.1537C23.175 24.6136 23.4622 24.1079 23.6499 23.6866C25.1706 24.2458 34.0458 24.2535 31.0236 22.0242C31.2151 22.1353 31.4105 22.2578 31.5982 22.3957C31.874 22.5949 32.077 22.8018 32.2302 23.0124Z" fill="url(#paint11_linear_3193_5409)"/>
<path style="mix-blend-mode:multiply" d="M23.6499 23.6865C23.4622 24.1079 23.175 24.6135 22.7383 25.1536C23.2669 25.4447 23.9219 25.6669 24.6497 25.8239C24.8872 25.2149 25.071 24.5867 25.1936 23.9355C24.5003 23.8819 23.9411 23.7938 23.6499 23.6865Z" fill="url(#paint12_linear_3193_5409)"/>
<path d="M16.2033 25.736C16.1343 24.9354 12.7903 24.1387 10.7142 24.131L10.6798 24.1387C10.561 23.5296 10.178 22.8593 9.74512 22.2464C9.96728 22.5796 15.4678 23.9356 18.084 23.8629C20.1487 23.8054 23.7608 23.4032 24.0021 22.4571C24.0021 22.5375 23.9715 22.7329 23.8949 23.0125C23.8412 23.2002 23.7646 23.43 23.6497 23.6867C23.462 24.108 23.1747 24.6136 22.7381 25.1537C22.7381 25.1537 20.344 26.1726 16.2033 25.736Z" fill="#D81C06"/>
<path style="mix-blend-mode:screen" d="M16.2033 25.736C16.1343 24.9354 12.7903 24.1387 10.7142 24.131L10.6798 24.1387C10.561 23.5296 10.178 22.8593 9.74512 22.2464C9.96728 22.5796 15.4678 23.9356 18.084 23.8629C20.1487 23.8054 23.7608 23.4032 24.0021 22.4571C24.0021 22.5375 23.9715 22.7329 23.8949 23.0125C23.8412 23.2002 23.7646 23.43 23.6497 23.6867C23.462 24.108 23.1747 24.6136 22.7381 25.1537C22.7381 25.1537 20.344 26.1726 16.2033 25.736Z" fill="url(#paint13_linear_3193_5409)"/>
<path style="mix-blend-mode:multiply" d="M9.74512 22.2464C10.178 22.8593 10.561 23.5296 10.6798 24.1387L10.7142 24.131C12.7903 24.1387 16.1343 24.9354 16.2033 25.736C17.1532 25.8355 18.0036 25.8585 18.762 25.8355C17.8044 24.9545 16.7089 24.2153 15.4832 23.656C12.8746 23.2768 9.906 22.4915 9.74512 22.2464Z" fill="url(#paint14_linear_3193_5409)"/>
<path d="M28.9355 23.338C28.9355 23.338 31.341 23.3151 30.7396 21.871C30.8315 21.9169 30.9273 21.9667 31.0231 22.0242C34.0453 24.2535 25.1701 24.2459 23.6494 23.6866C23.7643 23.43 23.8409 23.2001 23.8946 23.0125C25.3348 23.656 27.6063 23.338 27.6063 23.338L27.522 23.0852C27.8706 23.1197 28.1962 23.0929 28.4567 23.0125L28.9355 23.338Z" fill="#E8803F"/>
<path style="mix-blend-mode:screen" d="M28.9355 23.338C28.9355 23.338 31.341 23.3151 30.7396 21.871C30.8315 21.9169 30.9273 21.9667 31.0231 22.0242C34.0453 24.2535 25.1701 24.2459 23.6494 23.6866C23.7643 23.43 23.8409 23.2001 23.8946 23.0125C25.3348 23.656 27.6063 23.338 27.6063 23.338L27.522 23.0852C27.8706 23.1197 28.1962 23.0929 28.4567 23.0125L28.9355 23.338Z" fill="url(#paint15_linear_3193_5409)"/>
<path d="M16.345 22.9013C16.8123 22.9473 17.2911 22.9703 17.7355 22.9588C17.8197 23.5602 20.8688 23.089 22.3397 22.6102C22.9526 23.0124 22.9985 22.3076 23.3931 21.5875C23.6306 21.7445 23.7953 21.8901 23.891 22.028C24.006 22.185 24.0366 22.3268 24.0021 22.4608C23.7608 23.407 20.1487 23.8092 18.084 23.8666C15.4678 23.9394 9.96728 22.5834 9.74512 22.2502C9.69532 22.1774 9.64553 22.1046 9.5919 22.0356C9.24333 21.5568 9.33908 21.2772 9.70681 21.1163C9.87918 22.2157 16.1841 23.361 16.345 22.9052V22.9013Z" fill="#E8803F"/>
<path style="mix-blend-mode:screen" d="M16.345 22.9013C16.8123 22.9473 17.2911 22.9703 17.7355 22.9588C17.8197 23.5602 20.8688 23.089 22.3397 22.6102C22.9526 23.0124 22.9985 22.3076 23.3931 21.5875C23.6306 21.7445 23.7953 21.8901 23.891 22.028C24.006 22.185 24.0366 22.3268 24.0021 22.4608C23.7608 23.407 20.1487 23.8092 18.084 23.8666C15.4678 23.9394 9.96728 22.5834 9.74512 22.2502C9.69532 22.1774 9.64553 22.1046 9.5919 22.0356C9.24333 21.5568 9.33908 21.2772 9.70681 21.1163C9.87918 22.2157 16.1841 23.361 16.345 22.9052V22.9013Z" fill="url(#paint16_linear_3193_5409)"/>
<path d="M33.7509 15.7346C31.7706 16.6424 27.6988 17.2399 22.0833 17.2399C16.7858 17.2399 12.9285 16.7994 10.8562 15.9682C10.4004 15.9261 10.0327 15.9261 9.74537 15.972C8.89118 16.1099 8.74945 16.6577 9.15547 17.6383C9.70323 18.9445 12.645 19.1552 14.8207 19.0517C17.0003 18.9445 19.6165 18.7606 21.0299 19.4501C22.4472 20.1434 27.4575 20.2852 29.0931 19.4501C30.7248 18.6189 34.3906 19.4118 35.3367 17.9792C36.2829 16.5504 35.3597 16.2249 33.7509 15.7346Z" fill="#883B19"/>
<path style="mix-blend-mode:screen" d="M33.7509 15.7346C31.7706 16.6424 27.6988 17.2399 22.0833 17.2399C16.7858 17.2399 12.9285 16.7994 10.8562 15.9682C10.4004 15.9261 10.0327 15.9261 9.74537 15.972C8.89118 16.1099 8.74945 16.6577 9.15547 17.6383C9.70323 18.9445 12.645 19.1552 14.8207 19.0517C17.0003 18.9445 19.6165 18.7606 21.0299 19.4501C22.4472 20.1434 27.4575 20.2852 29.0931 19.4501C30.7248 18.6189 34.3906 19.4118 35.3367 17.9792C36.2829 16.5504 35.3597 16.2249 33.7509 15.7346Z" fill="url(#paint17_linear_3193_5409)"/>
<path style="mix-blend-mode:multiply" d="M22.0825 17.2437C16.785 17.2437 12.9277 16.8032 10.8554 15.9719C10.5298 15.9413 10.2502 15.9336 10.0127 15.949C17.3749 18.7797 30.341 19.1129 34.9567 16.1596C34.6311 16.0102 34.2213 15.88 33.7501 15.7383C31.7698 16.6461 27.698 17.2437 22.0825 17.2437Z" fill="url(#paint18_linear_3193_5409)"/>
<path d="M35.3856 30.4817C34.9872 30.2595 34.5697 30.068 34.2211 29.9224C34.0257 30.3629 33.7691 30.8494 33.4818 31.332C33.4627 31.3665 34.1751 31.3052 34.7344 31.106C34.7344 31.106 34.7369 31.106 34.742 31.106C34.8799 31.0486 35.014 30.9835 35.1442 30.9183C35.3204 30.7996 35.42 30.654 35.3817 30.4855L35.3856 30.4817Z" fill="#883B19"/>
<path d="M27.6481 30.3094C26.8935 30.0949 23.6491 29.731 23.6491 29.731C22.4578 29.2943 19.7612 30.7461 18.8878 30.6733C18.8074 30.6656 18.727 30.6465 18.6389 30.6158C18.6082 30.6082 18.5737 30.5929 18.5431 30.5814C18.5431 30.5814 18.5316 30.5814 18.5278 30.5737C16.4976 29.8115 14.0155 29.2254 13.8431 29.2905C13.1268 29.6544 12.3722 30.0221 11.7747 30.0221C10.8017 30.0221 10.3919 29.3786 10.0701 28.5397C9.756 28.9381 9.66789 29.3595 9.72918 29.7387C9.82111 30.2826 10.2233 30.7384 10.7174 30.9299C11.5563 31.2555 14.4636 31.9565 15.7698 31.742C17.076 31.5237 17.4399 32.1365 19.11 32.374C20.7801 32.6115 23.6108 31.8263 24.9936 32.4277C26.3726 33.029 28.3644 32.466 29.2569 32.0791C28.6402 31.2172 28.0044 30.409 27.6481 30.3094Z" fill="#883B19"/>
<path style="mix-blend-mode:screen" d="M27.6481 30.3094C26.8935 30.0949 23.6491 29.731 23.6491 29.731C22.4578 29.2943 19.7612 30.7461 18.8878 30.6733C18.8074 30.6656 18.727 30.6465 18.6389 30.6158C18.6082 30.6082 18.5737 30.5929 18.5431 30.5814C18.5431 30.5814 18.5316 30.5814 18.5278 30.5737C16.4976 29.8115 14.0155 29.2254 13.8431 29.2905C13.1268 29.6544 12.3722 30.0221 11.7747 30.0221C10.8017 30.0221 10.3919 29.3786 10.0701 28.5397C9.756 28.9381 9.66789 29.3595 9.72918 29.7387C9.82111 30.2826 10.2233 30.7384 10.7174 30.9299C11.5563 31.2555 14.4636 31.9565 15.7698 31.742C17.076 31.5237 17.4399 32.1365 19.11 32.374C20.7801 32.6115 23.6108 31.8263 24.9936 32.4277C26.3726 33.029 28.3644 32.466 29.2569 32.0791C28.6402 31.2172 28.0044 30.409 27.6481 30.3094Z" fill="url(#paint19_linear_3193_5409)"/>
<g style="mix-blend-mode:multiply">
<path d="M18.5433 30.5813C18.5433 30.5813 18.5318 30.5813 18.528 30.5737C16.4978 29.8114 14.0157 29.2253 13.8433 29.2905C13.2841 29.5739 12.7018 29.8574 12.1924 29.9685C14.3374 30.6388 16.5629 30.6694 18.7501 30.6388C18.7157 30.6311 18.6812 30.6273 18.6467 30.6158C18.6161 30.6081 18.5816 30.5928 18.551 30.5813H18.5433Z" fill="url(#paint20_linear_3193_5409)"/>
<path d="M27.6486 30.3096C26.894 30.095 23.6496 29.7311 23.6496 29.7311C22.6115 29.3519 20.4358 30.4015 19.3135 30.6313C22.4123 30.5815 25.4193 30.5126 28.0125 32.1099C28.1427 32.1941 28.2576 32.2937 28.3802 32.3895C28.7249 32.2899 29.0237 32.1788 29.2536 32.0792C28.6368 31.2174 28.001 30.4091 27.6447 30.3096H27.6486Z" fill="url(#paint21_linear_3193_5409)"/>
</g>
<path d="M15.9122 28.6394C16.6055 28.9573 17.6857 30.2061 18.5284 30.5738C16.4983 29.8115 14.0161 29.2255 13.8438 29.2906C14.6865 28.8654 15.4794 28.444 15.9122 28.6394Z" fill="#437C00"/>
<path d="M9.74509 27.6244C9.85617 27.9423 9.95576 28.2526 10.0668 28.5398C7.56555 27.5669 5.59668 27.6244 5.59668 27.6244C5.59668 27.6244 9.31607 26.3909 9.74509 27.6244Z" fill="#437C00"/>
<path d="M37.2625 21.3041C37.6379 21.6565 37.975 21.94 38.3044 22.1238C37.7643 22.0051 36.9255 21.9017 35.8184 22.0243C35.7035 20.9939 36.3777 20.4767 37.2625 21.3041Z" fill="#509B04"/>
<path d="M25.0473 21.871L23.8905 22.0242C23.7948 21.8863 23.6301 21.7408 23.3926 21.5837C23.7603 20.9057 24.3234 21.2964 25.0473 21.871Z" fill="#509B04"/>
<path d="M22.1561 22.4647C20.4056 21.2658 19.582 22.2234 19.4326 22.4264C19.4709 22.3537 19.4824 22.2694 19.4709 22.1775C19.3254 21.1624 20.3404 20.5074 21.6505 21.9591C21.8496 22.1813 22.0144 22.346 22.1561 22.4647Z" fill="#509B04"/>
<path d="M23.6497 29.7311C22.4584 29.2944 19.7617 30.7461 18.8884 30.6734C18.808 30.6657 18.7275 30.6465 18.6394 30.6159C18.6088 30.6044 18.5743 30.5929 18.5437 30.5814C18.5437 30.5814 18.5322 30.5814 18.5283 30.5738C17.6856 30.206 16.6054 28.9573 15.9121 28.6394C15.4793 28.444 14.6864 28.8654 13.8437 29.2906C13.1274 29.6545 12.3728 30.0222 11.7752 30.0222C10.8023 30.0222 10.3924 29.3787 10.0707 28.5398C9.95958 28.2525 9.85997 27.9422 9.74889 27.6243C9.31988 26.3909 5.6005 27.6243 5.6005 27.6243C5.6005 27.6243 5.38599 26.3181 6.18272 25.8431C6.98329 25.372 7.63448 25.5176 7.49275 24.6595C8.85257 25.2686 10.0438 25.8661 10.469 25.2992C10.718 24.966 10.7678 24.5676 10.6835 24.1386L10.718 24.1309C12.7941 24.1386 16.1381 24.9353 16.2071 25.7359C16.2798 26.5365 16.8851 27.0421 16.8851 27.0421C16.8851 27.0421 19.6928 27.5515 21.7957 27.0421C21.7957 27.0421 21.7957 25.4448 24.0097 26.6092C26.2276 27.7699 27.1699 27.7852 28.4799 27.2681C29.7861 26.751 34.1796 28.4172 33.3906 26.0845C33.5323 26.2147 33.7047 26.2568 33.9306 26.2415C35.8229 26.3105 35.233 26.5365 37.0487 27.2604C38.8643 27.9882 40.3888 28.2065 40.3888 28.2065C40.6072 29.5127 38.8643 29.2944 38.0637 29.9494C37.4279 30.4703 36.9759 31.0373 36.2902 30.9109C36.1178 30.884 35.9302 30.8074 35.7195 30.6772C35.6122 30.6082 35.5011 30.5431 35.3901 30.4818C34.9917 30.2597 34.5742 30.0681 34.2256 29.9226C33.72 29.7081 33.3446 29.5855 33.3446 29.5855C32.8351 28.2065 29.7861 28.9305 29.7861 28.9305C28.3343 29.5855 26.3731 28.8577 25.3542 28.4249C24.3392 27.9882 23.6535 29.7311 23.6535 29.7311H23.6497Z" fill="#509B04"/>
<path style="mix-blend-mode:screen" d="M15.912 28.6395C16.2683 28.8042 16.7241 29.2102 17.1991 29.6201C16.8543 29.0302 16.5057 28.4479 16.138 27.8963C14.6326 26.0156 12.388 29.306 10.1318 28.6969C10.4459 29.4553 10.8596 30.0223 11.7713 30.0223C12.3688 30.0223 13.1234 29.6545 13.8397 29.2906C14.6824 28.8655 15.4753 28.4441 15.9082 28.6395H15.912Z" fill="url(#paint22_linear_3193_5409)"/>
<path style="mix-blend-mode:screen" d="M21.8832 28.6624C20.9563 29.2179 19.8454 30.0452 18.6465 30.616C18.7308 30.6466 18.8112 30.6658 18.8878 30.6734C19.7612 30.7462 22.4578 29.2945 23.6491 29.7311C23.6491 29.7311 24.0628 28.6854 24.7216 28.4211C23.8291 27.973 22.6761 28.1377 21.8832 28.6624Z" fill="url(#paint23_linear_3193_5409)"/>
<path style="mix-blend-mode:screen" d="M26.2812 28.785C27.3308 29.1413 28.6983 29.4209 29.7823 28.9344C29.7823 28.9344 32.8314 28.2105 33.3408 29.5894C33.3408 29.5894 33.4749 29.6354 33.6894 29.712C32.0461 27.2529 28.8362 28.199 26.2812 28.785Z" fill="url(#paint24_linear_3193_5409)"/>
<path style="mix-blend-mode:screen" d="M40.3849 28.2066C40.3849 28.2066 39.6992 28.107 38.7033 27.8235C38.0061 29.0531 36.8378 29.8116 34.9111 29.8116C34.7962 29.8116 34.6162 29.8805 34.417 30.0069C34.7234 30.141 35.0605 30.3019 35.3899 30.4819C35.501 30.5432 35.6121 30.6083 35.7193 30.6772C35.93 30.8075 36.1177 30.8841 36.2901 30.9109C36.9757 31.0373 37.4277 30.4704 38.0636 29.9495C38.8642 29.2944 40.607 29.5128 40.3887 28.2066H40.3849Z" fill="url(#paint25_linear_3193_5409)"/>
<path style="mix-blend-mode:screen" d="M6.94492 25.981C7.22071 25.5673 7.59992 25.2034 8.04043 24.9085C7.8604 24.828 7.67653 24.7438 7.48884 24.6595C7.63057 25.5175 6.97939 25.372 6.17883 25.8431C5.38209 26.3181 5.59659 27.6243 5.59659 27.6243C5.59659 27.6243 6.20564 27.4213 6.95641 27.2642C6.81851 26.8467 6.80702 26.3909 6.94492 25.981Z" fill="url(#paint26_linear_3193_5409)"/>
<path style="mix-blend-mode:multiply" d="M17.6699 28.2793C19.9682 29.8115 22.6495 26.7471 24.5647 27.1302C28.6595 28.3329 32.7543 28.3253 36.466 27.0114C35.336 26.4828 35.5812 26.3028 33.9264 26.2415C33.7004 26.2568 33.528 26.2147 33.3863 26.0845C34.1754 28.4172 29.7818 26.751 28.4756 27.2681C27.1656 27.7852 26.2233 27.7699 24.0055 26.6092C21.7915 25.4448 21.7915 27.0421 21.7915 27.0421C19.6885 27.5515 16.8808 27.0421 16.8808 27.0421C16.8808 27.0421 16.2756 26.5365 16.2028 25.7359C16.1339 24.9353 12.7899 24.1386 10.7138 24.1309L10.6793 24.1386C10.7636 24.5676 10.7138 24.966 10.4648 25.2992C10.2388 25.6018 9.79445 25.5712 9.22754 25.3873C10.392 26.7165 15.3716 25.981 17.6699 28.2793Z" fill="url(#paint27_linear_3193_5409)"/>
<path style="mix-blend-mode:multiply" d="M40.385 28.2066C40.385 28.2066 38.8604 27.9883 37.0448 27.2605C35.2292 26.5365 35.8191 26.3105 33.9268 26.2416C33.7008 26.2569 33.5284 26.2148 33.3867 26.0845C33.5476 26.5595 33.4863 26.8659 33.2871 27.0613C35.4896 27.5248 37.6347 28.3062 39.707 29.283C40.1628 29.0953 40.4884 28.8157 40.3888 28.2066H40.385Z" fill="url(#paint28_linear_3193_5409)"/>
<path style="mix-blend-mode:multiply" d="M24.0057 26.6093C23.6303 26.4101 23.3162 26.2952 23.0596 26.2339C23.6571 26.9541 24.316 27.6512 24.9825 28.3599C25.1012 28.3522 25.2238 28.3714 25.354 28.425C26.2848 28.8195 28.0047 29.4592 29.4028 29.0647C28.7555 28.5399 28.0852 28.0343 27.388 27.5669C26.5108 27.678 25.58 27.4329 24.0095 26.6093H24.0057Z" fill="url(#paint29_linear_3193_5409)"/>
<path style="mix-blend-mode:multiply" d="M32.5667 27.3446C31.4559 27.4787 29.6096 27.0229 28.6826 27.2144C29.8816 27.6626 31.0575 28.1184 32.1185 28.8002C32.674 28.8883 33.1604 29.1105 33.3366 29.5931C33.3366 29.5931 33.712 29.7157 34.2176 29.9302C34.5662 30.0758 34.9837 30.2673 35.3821 30.4895C35.4932 30.5507 35.6043 30.6159 35.7115 30.6848C35.9222 30.815 36.1099 30.8917 36.2823 30.9185C36.7611 31.0066 37.1288 30.7538 37.5233 30.4167C36.0792 29.1488 34.344 28.1912 32.5667 27.3485V27.3446Z" fill="url(#paint30_linear_3193_5409)"/>
<path style="mix-blend-mode:multiply" d="M10.6796 24.1387C10.7639 24.5677 10.7141 24.9661 10.4651 25.2993C10.0399 25.8662 8.84866 25.2687 7.48884 24.6596C7.63057 25.5177 6.97939 25.3721 6.17883 25.8432C5.38209 26.3182 5.59659 27.6244 5.59659 27.6244C5.59659 27.6244 6.25926 27.4061 7.05983 27.2414C9.22021 26.3374 11.4189 25.4564 13.5716 24.4796C12.614 24.2689 11.5606 24.131 10.7141 24.1272L10.6796 24.1349V24.1387Z" fill="url(#paint31_linear_3193_5409)"/>
<path style="mix-blend-mode:multiply" d="M14.882 24.8473C13.3268 26.1535 11.7448 27.429 10.1016 28.6356C10.3774 29.3251 10.7259 29.8652 11.4269 29.9954C13.1046 28.6509 14.6522 27.1494 16.1499 25.5904C15.9967 25.3261 15.5178 25.0733 14.8782 24.8473H14.882Z" fill="url(#paint32_linear_3193_5409)"/>
<path style="mix-blend-mode:multiply" d="M21.7913 27.0421C19.6884 27.5516 16.8807 27.0421 16.8807 27.0421C16.8807 27.0421 16.8079 26.977 16.7083 26.8659C16.3942 27.4328 16.0878 28.0151 15.7852 28.6088C15.8273 28.6165 15.8733 28.6241 15.9116 28.6394C16.6049 28.9574 17.6851 30.2061 18.5278 30.5738C18.5278 30.5738 18.5393 30.5738 18.5431 30.5815C18.5737 30.593 18.6082 30.6045 18.6389 30.616C18.727 30.6466 18.8074 30.6658 18.8878 30.6734C19.7612 30.7462 22.4578 29.2944 23.6491 29.7311C23.6491 29.7311 23.6606 29.7081 23.6759 29.666C23.0516 28.6892 22.4272 27.7048 21.8679 26.6821C21.7913 26.8698 21.7913 27.0421 21.7913 27.0421Z" fill="url(#paint33_linear_3193_5409)"/>
<path d="M34.5818 15.2404C37.8568 14.9837 38.9332 16.2938 37.9143 17.2399C36.8992 18.186 37.987 18.6189 39.7299 19.1704C41.4728 19.7182 41.8367 20.3617 40.5305 21.5951C39.9444 22.1506 39.4618 22.3689 39.0021 22.3382C39.0021 22.3382 38.7646 22.2272 38.3088 22.1237C37.9794 21.9399 37.6423 21.6564 37.2669 21.304C36.3821 20.4766 35.7079 20.9937 35.8228 22.0241C35.8535 22.3459 35.9684 22.7175 36.1752 23.1197C37.0486 24.7936 37.558 25.5175 35.7194 25.8814C34.8575 26.0538 34.3136 26.2223 33.9306 26.2415C33.7046 26.2568 33.5322 26.2147 33.3905 26.0844C33.2679 25.9734 33.1607 25.7933 33.0534 25.529C32.7087 24.6748 32.8159 23.8053 32.2337 23.0124C32.0805 22.8017 31.8774 22.5949 31.6016 22.3957C31.414 22.2578 31.2186 22.1352 31.0271 22.0241C30.9313 21.9667 30.8356 21.9169 30.7436 21.8709C29.6979 21.3385 28.7594 21.2657 28.9854 22.1774C29.0927 22.6102 28.859 22.8822 28.4607 23.0124C28.2002 23.0928 27.8746 23.1197 27.526 23.0852C26.9783 23.0354 26.3807 22.8477 25.9364 22.5413C25.6223 22.3229 25.3273 22.0854 25.0554 21.8709H25.0515C24.3276 21.2964 23.7645 20.9056 23.3968 21.5836C23.0022 22.3038 22.9563 23.0086 22.3434 22.6064C22.2898 22.5681 22.2285 22.5221 22.1595 22.4646C22.0178 22.3459 21.8531 22.1812 21.6539 21.959C20.3439 20.5073 19.3288 21.1623 19.4744 22.1774C19.4859 22.2693 19.4744 22.3536 19.4361 22.4263C19.4207 22.4493 19.4131 22.4646 19.4131 22.4646C19.2101 22.7902 18.5397 22.932 17.7392 22.9549C17.2948 22.9664 16.816 22.9435 16.3487 22.8975C15.8469 22.8515 15.3643 22.7749 14.9697 22.6868C13.3724 22.3229 13.8091 21.0167 12.0662 20.944C11.0895 20.9018 10.1778 20.9095 9.71051 21.1125C9.34279 21.2734 9.24702 21.553 9.59559 22.0318C9.64922 22.1008 9.69901 22.1735 9.74881 22.2463C10.1817 22.8592 10.5647 23.5295 10.6834 24.1386C10.7677 24.5676 10.7179 24.9659 10.4689 25.2992C10.0438 25.8661 8.85248 25.2686 7.49267 24.6595C6.76105 24.3301 5.97963 24.0007 5.24035 23.8474C3.13359 23.4108 2.91526 23.4108 3.27915 21.6679C3.64305 19.925 3.93033 19.1283 5.09479 19.1704C5.61573 19.1896 6.152 18.9904 6.73423 18.7184H6.73806C7.45436 18.3852 8.23961 17.937 9.15892 17.6383C9.70668 18.9444 12.6485 19.1551 14.8242 19.0517C17.0037 18.9444 19.6199 18.7606 21.0334 19.4501C22.4507 20.1434 27.4609 20.2851 29.0965 19.4501C30.7283 18.6189 34.3941 19.4118 35.3402 17.9792C36.2863 16.5504 35.3632 16.2248 33.7544 15.7345C34.0953 15.5775 34.3711 15.4128 34.5856 15.2404H34.5818Z" fill="#94CF21"/>
<path d="M38.2549 16.3282C38.2166 16.5619 38.1668 16.7917 38.1094 17.0101C38.2664 16.7841 38.3162 16.5504 38.2549 16.3282Z" fill="#94CF21"/>
<path style="mix-blend-mode:multiply" d="M39.8864 20.2353C36.4773 19.4768 36.439 18.343 36.8106 15.3553C36.236 15.225 35.4967 15.1714 34.5812 15.2403C34.3667 15.4127 34.0909 15.5774 33.75 15.7345C35.3588 16.2248 36.2819 16.5504 35.3358 17.9791C35.0332 18.435 34.451 18.6648 33.75 18.795C34.133 19.0555 34.5238 19.3121 34.9106 19.5649C34.9106 19.5305 34.903 19.4998 34.903 19.4692C34.903 19.5037 34.9106 19.5343 34.9106 19.5649C36.3126 20.4843 37.749 21.3768 39.1816 22.2922C39.4268 22.1582 39.6643 21.9896 39.8864 21.7675C40.2695 21.3844 39.8864 20.2353 39.8864 20.2353Z" fill="url(#paint34_linear_3193_5409)"/>
<path style="mix-blend-mode:screen" d="M39.7299 19.1743C37.987 18.6228 36.8991 18.1899 37.9142 17.2438C38.6497 16.562 38.2896 15.6963 36.811 15.3592C36.4395 18.347 36.4778 19.4846 39.8869 20.2392C39.8869 20.2392 40.27 21.3884 39.8869 21.7714C39.6647 21.9936 39.4273 22.1621 39.1821 22.2962C39.2013 22.3077 39.2204 22.3192 39.2396 22.3345C39.6303 22.2885 40.044 22.0625 40.5266 21.6029C41.8328 20.3694 41.4689 19.7259 39.726 19.1782L39.7299 19.1743Z" fill="url(#paint35_linear_3193_5409)"/>
<path style="mix-blend-mode:multiply" d="M28.0312 21.6105C27.6098 21.0742 27.2038 20.5227 26.8092 19.9596C25.4954 20.0783 23.9555 20.0362 22.7451 19.8753C23.1358 20.3618 23.5457 20.8138 23.9747 21.2351C24.1662 21.2658 24.3807 21.3883 24.6144 21.553C25.7214 21.9246 26.8437 22.0625 28.0273 21.6105H28.0312Z" fill="url(#paint36_linear_3193_5409)"/>
<path style="mix-blend-mode:screen" d="M24.6182 21.553C24.7561 21.6488 24.894 21.7561 25.0472 21.8748H25.051C25.323 22.0893 25.6179 22.3268 25.932 22.5451C26.3763 22.8516 26.9739 23.0393 27.5217 23.0891C27.8702 23.1235 28.1958 23.0967 28.4563 23.0163C28.6708 22.9473 28.8317 22.8362 28.9236 22.683C28.6172 22.3383 28.3222 21.9782 28.0311 21.6143C26.8475 22.0663 25.7252 21.9284 24.6182 21.5569V21.553Z" fill="url(#paint37_linear_3193_5409)"/>
<path style="mix-blend-mode:screen" d="M7.32789 22.1505C6.56179 22.9166 5.02961 23.2996 4.26351 22.5335C3.13352 20.3961 7.69944 19.3964 9.69512 18.2549C9.44997 18.0825 9.25844 17.8795 9.15502 17.6382C8.23571 17.937 7.45046 18.3851 6.73416 18.7184H6.73034C6.1481 18.9903 5.61184 19.1895 5.0909 19.1704C5.08323 19.1704 5.0794 19.1704 5.07174 19.1704C3.92259 19.1359 3.63531 19.9326 3.27524 21.6678C2.91135 23.4107 3.12968 23.4107 5.23644 23.8474C5.97572 24.0006 6.75714 24.33 7.48876 24.6594C8.84858 25.2685 10.0399 25.866 10.465 25.2991C10.6183 25.0923 10.691 24.8586 10.7064 24.6096C9.14352 24.173 7.59219 24.5369 7.32789 22.1505Z" fill="url(#paint38_linear_3193_5409)"/>
<path style="mix-blend-mode:multiply" d="M9.70697 21.1126C9.77209 21.0858 9.84487 21.0628 9.92148 21.0398C10.5382 20.335 11.1242 19.634 11.6912 18.9254C10.8868 18.8028 10.1743 18.5883 9.69548 18.2551C7.70364 19.3965 5.82671 20.6951 4.12598 22.1813C4.14513 22.3 4.18727 22.415 4.26388 22.5337C5.02997 23.2998 6.56216 22.9167 7.32826 22.1507C7.59256 24.537 9.14389 24.1693 10.7067 24.6098C10.7182 24.4566 10.7106 24.3034 10.6799 24.1387C10.5612 23.5296 10.1781 22.8593 9.74528 22.2464C9.69548 22.1736 9.64569 22.1009 9.59206 22.0319C9.24349 21.5531 9.33925 21.2735 9.70697 21.1126Z" fill="url(#paint39_linear_3193_5409)"/>
<path style="mix-blend-mode:multiply" d="M19.2715 20.4652C19.1757 19.9787 19.0915 19.4922 19.0225 18.9981C17.9155 18.9062 16.6476 18.9598 15.4487 19.0211C15.3031 19.8255 15.1614 20.6337 15.0273 21.4381C16.6132 22.1966 18.1262 21.6296 19.2677 20.4652H19.2715Z" fill="url(#paint40_linear_3193_5409)"/>
<path style="mix-blend-mode:screen" d="M19.2715 20.4652C18.1301 21.6297 16.617 22.1966 15.0312 21.4381C14.9623 21.8403 14.8971 22.2464 14.832 22.6486C14.8742 22.6601 14.9163 22.6754 14.9623 22.6869C15.3568 22.775 15.8394 22.8516 16.3412 22.8976C16.8086 22.9435 17.2874 22.9665 17.7317 22.955C18.5323 22.932 19.2026 22.7903 19.4056 22.4647C19.4056 22.4647 19.4133 22.4494 19.4286 22.4264C19.4669 22.3536 19.4784 22.2694 19.4669 22.1774C19.4363 21.9668 19.4592 21.7752 19.5205 21.6144C19.4286 21.2351 19.3482 20.8521 19.2715 20.4652Z" fill="url(#paint41_linear_3193_5409)"/>
<path style="mix-blend-mode:multiply" d="M22.6923 20.8253C22.428 20.469 22.1714 20.1051 21.93 19.7336C21.5585 19.6531 21.2482 19.5612 21.026 19.4501C20.8575 19.3658 20.6698 19.2969 20.4668 19.2394C20.6966 20.0017 20.9379 20.7755 21.2061 21.5416C21.3478 21.6565 21.4934 21.7905 21.6466 21.9591C21.6542 21.9667 21.6619 21.9744 21.6696 21.9821C22.0948 21.6795 22.4548 21.2849 22.6923 20.8253Z" fill="url(#paint42_linear_3193_5409)"/>
<path style="mix-blend-mode:screen" d="M22.6917 20.8253C22.4504 21.2849 22.0941 21.6795 21.6689 21.9821C21.8566 22.1927 22.0175 22.3498 22.1516 22.4647C22.2205 22.5222 22.2818 22.5681 22.3354 22.6064C22.9215 22.9933 22.9905 22.3613 23.339 21.6756C23.1169 21.396 22.9023 21.1125 22.6878 20.8253H22.6917Z" fill="url(#paint43_linear_3193_5409)"/>
<path style="mix-blend-mode:multiply" d="M35.2902 24.832C36.3781 23.7441 34.9608 22.6601 34.5892 21.4343C33.1643 20.6874 31.7432 19.9251 30.3412 19.1093C29.8663 19.1744 29.4334 19.2778 29.0887 19.4502C28.8857 19.5536 28.6328 19.6417 28.3379 19.7145C28.9354 20.3197 29.51 20.944 30.0616 21.5876C30.2723 21.6565 30.5021 21.7484 30.7358 21.8672C30.8277 21.9132 30.9235 21.963 31.0192 22.0204C31.2107 22.1315 31.4061 22.2541 31.5938 22.392C31.8696 22.5911 32.0726 22.798 32.2258 23.0087C32.4327 23.2921 32.5514 23.5871 32.6357 23.8858C33.6124 24.3647 34.5318 25.8356 35.2864 24.8281L35.2902 24.832Z" fill="url(#paint44_linear_3193_5409)"/>
<path style="mix-blend-mode:screen" d="M36.1713 23.1197C35.976 22.7405 35.8649 22.3881 35.8266 22.0778C35.4129 21.8633 35.003 21.6526 34.5894 21.4343C34.9609 22.6562 36.3782 23.744 35.2903 24.8319C34.5357 25.8393 33.6164 24.3684 32.6396 23.8896C32.789 24.4259 32.8273 24.9813 33.0495 25.529C33.1568 25.7933 33.264 25.9734 33.3866 26.0845C33.5283 26.2147 33.7007 26.2568 33.9267 26.2415C34.3097 26.2224 34.8537 26.0538 35.7155 25.8814C37.5541 25.5175 37.0447 24.7936 36.1713 23.1197Z" fill="url(#paint45_linear_3193_5409)"/>
<path d="M9.74462 30.93C11.4798 32.0677 19.543 32.9985 23.3198 32.9985C25.2657 32.9985 27.4644 32.8912 29.5941 32.558C30.1649 33.3777 30.6781 34.1438 30.8697 34.3046C31.1838 34.5651 32.3252 33.1976 33.2637 31.6923C33.7732 31.5199 34.2673 31.3245 34.7346 31.1062C34.7346 31.1062 34.7372 31.1062 34.7423 31.1062C34.8955 31.0526 35.0334 30.9913 35.1445 30.9185C35.3207 30.7998 35.4203 30.6542 35.382 30.4857C35.493 30.547 35.6041 30.6121 35.7114 30.681C35.922 30.8113 36.1097 30.8879 36.2821 30.9147C36.397 31.5888 36.5311 32.5656 36.3855 33.0023C36.24 33.439 33.8459 36.7791 22.9827 36.7791C12.1195 36.7791 9.53012 34.2319 9.21985 33.4313C8.56867 31.7497 9.09344 30.4627 9.24283 30.1562C9.17388 30.3554 9.25432 30.6159 9.74079 30.9338L9.74462 30.93Z" fill="#EDA234"/>
<path style="mix-blend-mode:screen" d="M9.74462 30.93C11.4798 32.0677 19.543 32.9985 23.3198 32.9985C25.2657 32.9985 27.4644 32.8912 29.5941 32.558C30.1649 33.3777 30.6781 34.1438 30.8697 34.3046C31.1838 34.5651 32.3252 33.1976 33.2637 31.6923C33.7732 31.5199 34.2673 31.3245 34.7346 31.1062C34.7346 31.1062 34.7372 31.1062 34.7423 31.1062C34.8955 31.0526 35.0334 30.9913 35.1445 30.9185C35.3207 30.7998 35.4203 30.6542 35.382 30.4857C35.493 30.547 35.6041 30.6121 35.7114 30.681C35.922 30.8113 36.1097 30.8879 36.2821 30.9147C36.397 31.5888 36.5311 32.5656 36.3855 33.0023C36.24 33.439 33.8459 36.7791 22.9827 36.7791C12.1195 36.7791 9.53012 34.2319 9.21985 33.4313C8.56867 31.7497 9.09344 30.4627 9.24283 30.1562C9.17388 30.3554 9.25432 30.6159 9.74079 30.9338L9.74462 30.93Z" fill="url(#paint46_linear_3193_5409)"/>
<path d="M18.6356 6.0205C26.0438 5.43827 37.1521 5.82131 35.0837 14.5395C35.0262 14.7846 34.8577 15.0183 34.5819 15.2404C34.3674 15.4128 34.0916 15.5775 33.7507 15.7346C31.7703 16.6424 27.6985 17.2399 22.0831 17.2399C16.7855 17.2399 12.9282 16.7994 10.856 15.9682C9.87536 15.5775 9.29695 15.0987 9.15523 14.5395C8.06737 10.1766 11.2275 6.60656 18.6356 6.0205Z" fill="#DE932A"/>
<path style="mix-blend-mode:screen" d="M18.6356 6.0205C26.0438 5.43827 37.1521 5.82131 35.0837 14.5395C35.0262 14.7846 34.8577 15.0183 34.5819 15.2404C34.3674 15.4128 34.0916 15.5775 33.7507 15.7346C31.7703 16.6424 27.6985 17.2399 22.0831 17.2399C16.7855 17.2399 12.9282 16.7994 10.856 15.9682C9.87536 15.5775 9.29695 15.0987 9.15523 14.5395C8.06737 10.1766 11.2275 6.60656 18.6356 6.0205Z" fill="url(#paint47_linear_3193_5409)"/>
<path style="mix-blend-mode:multiply" d="M35.6623 16.7535C35.7811 17.0485 35.6968 17.4315 35.3329 17.9831C34.3868 19.4157 30.721 18.6228 29.0892 19.454C27.4536 20.2891 22.4434 20.1473 21.0261 19.454C19.6126 18.7645 16.9964 18.9484 14.8169 19.0557C12.6412 19.1591 9.69939 18.9484 9.15164 17.6422C8.95245 17.7073 8.76094 17.7801 8.57324 17.8567C8.88734 19.454 9.94838 20.3044 11.538 20.6223C14.2194 21.0054 17.2837 18.7071 19.199 19.4732C24.9447 22.1545 31.1539 22.1698 36.053 19.8562C38.2824 18.8067 37.2022 17.286 35.6623 16.7535Z" fill="url(#paint48_linear_3193_5409)"/>
<path style="mix-blend-mode:screen" d="M43.4424 17.0255C43.4501 18.6688 34.1382 20.0248 22.6468 20.0477C11.1554 20.0707 1.83586 18.7569 1.83203 17.1136C1.8282 15.4703 11.1401 14.1143 22.6353 14.0914C34.1267 14.0684 43.4386 15.3822 43.4462 17.0255H43.4424Z" fill="url(#paint49_radial_3193_5409)"/>
<path style="mix-blend-mode:screen" d="M41.8178 5.81371C41.9634 9.26113 32.7741 12.4442 21.2942 12.9269C9.81045 13.4057 0.387498 11.004 0.24194 7.55657C0.0963821 4.11298 9.28568 0.926027 20.7694 0.443387C32.2493 -0.0392518 41.6723 2.36628 41.8178 5.81371Z" fill="url(#paint50_radial_3193_5409)"/>
<path d="M16.3184 8.55666C16.4218 9.07377 17.7969 8.27704 17.1457 7.83653C16.4907 7.39986 16.3184 8.55666 16.3184 8.55666Z" fill="#FFD97A"/>
<path d="M11.8753 10.92C12.197 10.9698 12.0285 9.99682 11.634 10.2879C11.2394 10.5752 11.8753 10.92 11.8753 10.92Z" fill="#FFD97A"/>
<path d="M14.2732 8.47224C13.9208 8.32668 13.8365 9.472 14.369 9.26132C14.8976 9.04681 14.2732 8.47224 14.2732 8.47224Z" fill="#FFD97A"/>
<path d="M17.981 10.6519C18.0729 10.3186 17.0272 10.3761 17.2838 10.8281C17.5366 11.28 17.981 10.6519 17.981 10.6519Z" fill="#FFD97A"/>
<path d="M19.663 9.34948C19.437 9.71337 20.6934 10.0083 20.5517 9.38395C20.41 8.75959 19.663 9.34948 19.663 9.34948Z" fill="#FFD97A"/>
<path d="M19.7812 6.25064C19.9038 5.93271 18.8734 5.88291 19.0764 6.35406C19.2794 6.82521 19.7812 6.25064 19.7812 6.25064Z" fill="#FFD97A"/>
<path d="M21.1562 7.80573C21.2214 8.18877 22.2556 7.63718 21.7845 7.29627C21.3133 6.95536 21.1562 7.80573 21.1562 7.80573Z" fill="#FFD97A"/>
<path d="M23.9874 6.64519C23.6274 6.43451 23.3745 7.67559 23.9798 7.51471C24.585 7.35766 23.9874 6.64519 23.9874 6.64519Z" fill="#FFD97A"/>
<path d="M24.9336 8.12369C24.9834 8.45311 25.8836 7.99729 25.4852 7.69468C25.083 7.39207 24.9336 8.12369 24.9336 8.12369Z" fill="#FFD97A"/>
<path d="M25.416 9.03916C25.5003 9.55245 26.8869 8.81317 26.2549 8.35734C25.6229 7.90151 25.416 9.03916 25.416 9.03916Z" fill="#FFD97A"/>
<path d="M25.0638 11.031C25.4583 11.1958 25.5464 9.90488 24.9527 10.15C24.359 10.3952 25.0638 11.031 25.0638 11.031Z" fill="#FFD97A"/>
<path d="M25.941 7.80195C25.7839 8.20032 27.0786 8.26161 26.822 7.67172C26.5654 7.08182 25.941 7.80195 25.941 7.80195Z" fill="#FFD97A"/>
<path d="M28.5263 11.0387C28.94 11.349 29.4303 9.86278 28.6603 9.97003C27.8942 10.0773 28.5263 11.0387 28.5263 11.0387Z" fill="#FFD97A"/>
<path d="M29.0822 8.21177C28.611 8.15814 28.9137 9.56392 29.4729 9.12342C30.0322 8.68291 29.0822 8.21177 29.0822 8.21177Z" fill="#FFD97A"/>
<path d="M29.0591 7.43813C29.3771 7.54538 29.3771 6.53031 28.9251 6.75248C28.4731 6.97464 29.0591 7.43813 29.0591 7.43813Z" fill="#FFD97A"/>
<path d="M32.828 9.82822C33.3336 9.74012 32.5943 8.37648 32.15 9.00467C31.7056 9.63287 32.828 9.82822 32.828 9.82822Z" fill="#FFD97A"/>
<path d="M21.7348 10.261C22.1217 10.2266 21.6544 9.15404 21.279 9.59838C20.9036 10.0427 21.7348 10.261 21.7348 10.261Z" fill="#FFD97A"/>
<path d="M33.5137 11.4486C33.2455 11.6593 34.1035 12.2224 34.1687 11.7167C34.2338 11.2111 33.5137 11.4486 33.5137 11.4486Z" fill="#FFD97A"/>
<g style="mix-blend-mode:screen">
<path d="M31.7667 18.3127C31.5905 18.1326 31.6441 17.9181 31.7781 17.7496C31.3913 17.8109 30.9508 17.6538 30.7286 17.355C30.5984 17.401 30.4566 17.4278 30.3111 17.4125C30.0276 17.3819 29.8208 17.1597 29.8936 16.8647C29.8974 16.8418 29.9089 16.8226 29.9165 16.7996C29.7595 16.8609 29.6063 16.9375 29.4607 17.0371C29.3918 17.0218 30.1693 17.4125 30.1962 17.4316C29.9012 17.5925 28.7023 19.0213 28.8057 17.5351C27.9553 16.9911 26.4423 17.6691 27.442 18.4697C28.0128 18.0598 28.8134 18.5042 28.6525 19.2588C28.9972 19.2588 29.2232 19.0711 29.2807 18.7263C29.8055 19.4618 30.606 17.9296 30.8205 18.983C31.33 18.78 31.5828 18.5501 31.9237 18.4199C31.8624 18.3969 31.805 18.3625 31.759 18.3165L31.7667 18.3127ZM30.8359 18.4965C30.472 18.2475 31.2112 17.7879 31.2304 18.3854C31.1538 18.6153 31.0235 18.6536 30.8359 18.4965Z" fill="#261911"/>
</g>
<g style="mix-blend-mode:screen">
<path d="M35.1176 17.014C35.1368 17.0523 35.1521 17.0485 35.0947 16.8953C34.8533 17.4354 33.823 16.9642 33.7349 16.4433C33.6429 16.7689 33.4169 16.8187 33.0568 16.5965C33.0568 16.6195 33.0683 16.6387 33.0683 16.6616V16.7268C33.0683 16.8493 33.0224 16.9413 32.9534 17.0064C33.122 16.8953 33.2943 16.9298 33.2943 17.2171C33.1258 17.1979 32.9573 17.1787 32.7925 17.1558C32.8347 17.1021 32.8806 17.06 32.9266 17.0255C32.804 17.1175 32.6317 17.1328 32.4938 17.0677C32.4784 17.1404 32.4555 17.2209 32.4095 17.3128C32.3406 17.4469 32.241 17.5426 32.1299 17.6154C32.2601 17.6805 32.3367 17.8529 32.195 17.9755C32.1873 17.9831 32.1797 17.9908 32.1758 17.9946C32.2793 18.0061 32.3827 17.9946 32.4823 17.9717C32.7083 17.9219 32.8309 18.1785 32.7351 18.3241C33.5931 18.37 33.4361 18.3241 33.934 17.7495C34.1792 17.466 34.8572 17.3894 35.0449 17.7878C35.1445 17.535 35.1674 17.2745 35.1138 17.0102L35.1176 17.014Z" fill="#261911"/>
</g>
<g style="mix-blend-mode:screen">
<path d="M33.2951 17.2172C33.0882 17.1865 33.2951 17.1482 33.2951 17.2172V17.2172Z" fill="#261911"/>
</g>
<g style="mix-blend-mode:screen">
<path d="M11.71 17.0218C11.71 17.0218 11.71 17.0563 11.7215 17.0678C11.7291 17.0524 11.7215 17.0371 11.71 17.0218Z" fill="#261911"/>
</g>
<g style="mix-blend-mode:screen">
<path d="M21.6309 18.5347C21.5084 18.5462 21.6386 18.4772 21.6309 18.5347V18.5347Z" fill="#261911"/>
</g>
<g style="mix-blend-mode:screen">
<path d="M27.1616 18.9101C27.3684 18.9676 26.8628 17.7687 26.2538 17.5542C25.4225 17.263 26.0814 17.941 25.3996 17.8644C24.8097 17.7955 24.2849 17.7074 23.6988 17.558C23.8827 17.8874 23.9976 18.2398 24.0091 18.5846C23.7103 17.8568 23.6222 18.6956 23.3005 18.6343C22.4577 18.9025 21.5576 18.0981 22.4233 17.355C21.8142 17.0639 21.8257 17.7074 21.1937 17.5005C20.5578 17.2937 20.3587 17.7189 19.8798 17.7802C19.8875 17.9525 19.8224 18.1287 19.6807 18.2283C19.7113 18.2398 19.7381 18.2513 19.7649 18.2628C20.0829 18.3164 20.2246 18.5003 20.1901 18.822C20.9485 18.9025 20.9332 18.8144 21.5461 18.6305C22.0632 18.4773 22.0939 19.274 22.4846 18.822C22.9212 18.9676 23.2966 19.0442 23.7333 19.163C23.423 19.3277 23.7639 19.3277 23.741 19.615C24.6871 19.2817 24.3692 19.6992 25.3919 19.7758C26.1963 19.8371 26.6023 19.3966 27.2803 19.3698C27.1692 19.2204 27.1271 19.0595 27.1616 18.8987V18.9101ZM21.6304 18.5309C21.3852 18.6956 21.1362 18.7148 20.8834 18.5884C21.1247 18.4926 21.7491 17.7227 21.6304 18.5309ZM24.5568 18.8182C24.4458 18.5194 24.53 18.3241 24.8058 18.2398C24.7177 18.439 24.7177 18.642 24.8058 18.8527C24.5683 18.9638 24.4879 18.9523 24.5607 18.8182H24.5568ZM25.3957 19.4043C25.1659 19.4119 24.9514 19.3583 24.756 19.2434C25.2348 19.163 25.3804 19.2204 25.8171 19.389C25.6792 19.3928 25.5374 19.4004 25.3996 19.4043H25.3957ZM25.9205 18.6688C25.9205 18.6688 25.9128 18.688 25.8899 18.7071C25.7903 18.5769 25.4187 18.5348 25.2004 18.6803C24.6871 17.7763 26.3916 18.1019 25.9205 18.6688ZM26.4491 18.5156C26.315 18.2053 26.089 17.987 25.7711 17.8568C26.135 17.8031 26.8436 18.4198 26.4491 18.5156Z" fill="#261911"/>
</g>
<g style="mix-blend-mode:screen">
<path d="M18.7082 17.8835C18.6967 17.849 18.689 17.8107 18.6852 17.7724C18.237 17.8988 17.785 18.0444 17.6242 18.0329C17.877 17.7188 17.536 17.4698 17.153 17.4506C17.5054 17.9601 16.7202 18.2282 16.3831 18.1593C16.1188 18.1325 15.9043 18.0137 15.7396 17.8031C15.4408 18.0214 15.1152 18.0865 14.7513 17.9907C15.5365 17.826 15.7434 16.8952 14.7705 17.0599C14.5483 17.5579 14.1269 17.3511 13.7784 17.2515C13.6788 17.4353 13.6788 17.6039 13.7784 17.7609C13.5255 17.6766 12.7135 17.1557 13.5409 17.1557C13.3417 17.0791 13.2383 16.9335 13.2268 16.7152C12.4952 16.9833 12.4875 16.8378 11.7865 16.4317C11.3422 16.2977 11.0357 16.9412 10.714 16.6156C10.4918 16.3896 9.76019 16.3858 9.63379 16.9795C10.5876 16.4356 10.6565 17.0676 10.5837 17.6307C10.6374 17.5349 10.7216 17.466 10.8404 17.4353C10.7906 17.0101 11.0472 16.8837 11.3 16.8876C11.1928 16.9872 11.1277 17.2247 11.074 17.4353C11.5452 17.5502 11.5145 18.3355 10.9591 18.3355C10.6987 18.3355 10.5608 18.1593 10.5263 17.9601C10.4995 18.0903 10.4765 18.1976 10.465 18.2589C10.9553 18.3815 11.641 18.5921 12.1581 18.5155C12.2002 18.1899 12.5258 18.1325 12.7863 18.2014C13.2115 18.3163 13.334 18.6572 13.6979 18.5577C13.629 18.5079 13.583 18.4312 13.583 18.3202C13.583 18.1095 13.6022 17.9218 13.8282 17.8414C13.9661 17.7916 14.1078 17.8758 14.1806 17.9831C14.2189 18.0367 14.238 18.1095 14.261 18.1708C14.2801 18.2244 14.2802 18.2665 14.2725 18.3125C14.9888 18.4083 15.1727 18.2091 15.6476 18.6917C15.9962 19.048 16.5899 18.8411 16.8121 18.4581C17.4096 18.3546 17.8387 18.5155 18.2485 18.6304C19.2981 18.9216 19.0146 18.3661 19.0874 18.37C19.1027 18.3393 19.1257 18.3125 19.1487 18.2934C18.9418 18.2436 18.7848 18.1172 18.6967 17.8835H18.7082Z" fill="#261911"/>
</g>
<g style="mix-blend-mode:screen">
<path d="M11.7218 17.0677C11.6873 17.0217 11.6567 16.9873 11.6299 16.9566C11.6682 16.9758 11.6988 16.9988 11.7142 17.0179C11.7218 16.9375 11.8291 16.8647 11.7256 17.0639L11.7218 17.0677Z" fill="#261911"/>
</g>
<g style="mix-blend-mode:screen">
<path d="M26.4456 18.5234C26.3844 18.2744 26.4686 18.5195 26.4456 18.5234V18.5234Z" fill="#261911"/>
</g>
<g style="mix-blend-mode:screen">
<path d="M25.8862 18.7111C25.8862 18.7111 25.9054 18.6843 25.9169 18.6728C25.9169 18.6574 25.8671 18.6881 25.8862 18.7111Z" fill="#261911"/>
</g>
<g style="mix-blend-mode:screen">
<path d="M32.7282 18.5536C32.8661 18.6609 33.0346 18.1629 32.778 18.1974C32.5213 18.228 32.7282 18.5536 32.7282 18.5536Z" fill="#3B3224"/>
<path d="M33.3604 17.2705C33.4676 17.5655 34.2145 16.9717 33.7855 16.7687C33.3565 16.5657 33.3604 17.2705 33.3604 17.2705Z" fill="#3B3224"/>
<path d="M30.1849 17.0061C29.8287 16.9295 29.9551 18.025 30.4148 17.7301C30.8744 17.4351 30.1849 17.0061 30.1849 17.0061Z" fill="#3B3224"/>
<path d="M32.1812 16.9909C32.0624 16.7189 31.3959 17.3203 31.8096 17.485C32.2233 17.6497 32.1812 16.9909 32.1812 16.9909Z" fill="#3B3224"/>
<path d="M28.7676 18.0288C28.7292 18.4119 29.8631 18.1552 29.503 17.7071C29.1391 17.2589 28.7676 18.0288 28.7676 18.0288Z" fill="#3B3224"/>
<path d="M10.5996 18.2855C10.6264 18.6532 11.6568 18.2242 11.2393 17.8603C10.8218 17.4964 10.5996 18.2855 10.5996 18.2855Z" fill="#3B3224"/>
<path d="M29.1888 18.6072C29.2195 18.2893 28.281 18.5115 28.5836 18.8792C28.8862 19.2469 29.1888 18.6072 29.1888 18.6072Z" fill="#3B3224"/>
<path d="M28.2165 18.726C28.0058 18.726 28.2088 19.3235 28.431 19.1052C28.6532 18.883 28.2165 18.726 28.2165 18.726Z" fill="#3B3224"/>
<path d="M27.9629 17.5117C27.8557 17.6573 28.3728 17.8258 28.3345 17.5577C28.2962 17.2895 27.9629 17.5117 27.9629 17.5117Z" fill="#3B3224"/>
<path d="M27.1855 18.2778C27.0208 18.2893 27.2161 18.749 27.377 18.5613C27.5379 18.3736 27.1855 18.2778 27.1855 18.2778Z" fill="#3B3224"/>
<path d="M26.2322 18.2012C26.0024 18.5038 27.0864 18.8677 27.0137 18.3084C26.9409 17.7453 26.2322 18.2012 26.2322 18.2012Z" fill="#3B3224"/>
<path d="M26.1779 17.3356C25.9481 17.4735 26.5648 17.9944 26.6605 17.6076C26.7601 17.2207 26.1779 17.3356 26.1779 17.3356Z" fill="#3B3224"/>
<path d="M25.853 19.4807C25.9985 19.6071 26.2245 19.067 25.9334 19.0861C25.6423 19.1053 25.853 19.4807 25.853 19.4807Z" fill="#3B3224"/>
<path d="M25.2285 18.1208C25.0294 17.9408 24.7114 18.6839 25.1098 18.6647C25.5082 18.6456 25.2285 18.1208 25.2285 18.1208Z" fill="#3B3224"/>
<path d="M24.1328 19.6147C24.2094 19.9403 25.0636 19.404 24.6384 19.1397C24.2133 18.8754 24.1328 19.6147 24.1328 19.6147Z" fill="#3B3224"/>
<path d="M24.1059 19.0555C24.3434 19.1705 24.443 18.3776 24.0714 18.5078C23.696 18.6342 24.1059 19.0555 24.1059 19.0555Z" fill="#3B3224"/>
<path d="M24.3894 19.4346C24.5809 19.4154 24.3358 18.8792 24.1519 19.1052C23.9681 19.3312 24.3894 19.4346 24.3894 19.4346Z" fill="#3B3224"/>
<path d="M23.1446 17.8911C23.0067 18.0941 23.723 18.2895 23.6541 17.9294C23.5851 17.5693 23.1446 17.8911 23.1446 17.8911Z" fill="#3B3224"/>
<path d="M23.2059 19.1206C23.5659 19.1704 23.3629 18.0902 22.9263 18.4158C22.4896 18.7414 23.2059 19.1206 23.2059 19.1206Z" fill="#3B3224"/>
<path d="M22.7467 18.7183C22.5782 18.6225 22.4671 19.1932 22.7467 19.1166C23.0264 19.04 22.7467 18.7183 22.7467 18.7183Z" fill="#3B3224"/>
<path d="M21.9682 18.2127C22.2363 18.4732 22.7305 17.4505 22.1674 17.4543C21.6043 17.4581 21.9682 18.2127 21.9682 18.2127Z" fill="#3B3224"/>
<path d="M21.1225 17.6344C21.0727 17.8757 21.8082 17.7837 21.6052 17.4773C21.406 17.1709 21.1225 17.6344 21.1225 17.6344Z" fill="#3B3224"/>
<path d="M21.4481 19.2508C21.7009 19.4959 22.1529 18.5345 21.6281 18.5422C21.1033 18.5498 21.4481 19.2508 21.4481 19.2508Z" fill="#3B3224"/>
<path d="M20.4899 18.0787C20.172 18.228 20.9074 18.998 21.0874 18.5C21.2675 18.0059 20.4899 18.0787 20.4899 18.0787Z" fill="#3B3224"/>
<path d="M20.4361 18.5498C20.6353 18.3085 19.7543 17.9676 19.7964 18.4349C19.8385 18.9022 20.4361 18.5498 20.4361 18.5498Z" fill="#3B3224"/>
<path d="M15.9821 18.7758C16.1391 18.9405 16.4609 18.3315 16.1162 18.32C15.7752 18.3123 15.9821 18.7758 15.9821 18.7758Z" fill="#3B3224"/>
<path d="M19.2801 18.2586C19.6248 18.0824 18.7898 17.2627 18.6059 17.8143C18.422 18.3659 19.2801 18.2586 19.2801 18.2586Z" fill="#3B3224"/>
<path d="M18.5599 18.0289C18.3876 18.2434 19.1728 18.5307 19.1268 18.117C19.0809 17.7071 18.5599 18.0289 18.5599 18.0289Z" fill="#3B3224"/>
<path d="M17.8013 18.4273C17.7745 18.7452 18.7168 18.5154 18.4066 18.1477C18.1001 17.78 17.8013 18.4273 17.8013 18.4273Z" fill="#3B3224"/>
<path d="M17.3531 18.5307C17.583 18.8065 18.1537 17.8872 17.6174 17.8336C17.0812 17.7799 17.3531 18.5307 17.3531 18.5307Z" fill="#3B3224"/>
<path d="M17.188 17.9102C17.4753 17.8719 17.0922 17.0828 16.8241 17.4275C16.556 17.7723 17.188 17.9102 17.188 17.9102Z" fill="#3B3224"/>
<path d="M16.4685 17.8489C16.4724 17.6688 15.9476 17.8297 16.1353 18.0251C16.323 18.2242 16.4685 17.8489 16.4685 17.8489Z" fill="#3B3224"/>
<path d="M15.5874 17.7646C15.3729 17.9102 16.0011 18.3852 16.0739 18.0021C16.1466 17.6191 15.5874 17.7646 15.5874 17.7646Z" fill="#3B3224"/>
<path d="M15.1546 18.1591C14.8214 18.0939 14.9593 19.1167 15.3845 18.8332C15.8097 18.5498 15.1546 18.1591 15.1546 18.1591Z" fill="#3B3224"/>
<path d="M9.80693 17.3931C10.1249 17.4429 9.96014 16.4815 9.56943 16.7649C9.17872 17.0484 9.80693 17.3931 9.80693 17.3931Z" fill="#3B3224"/>
<path d="M14.38 18.2434C14.5486 18.3507 14.6941 17.7646 14.3992 17.8297C14.1081 17.8948 14.38 18.2434 14.38 18.2434Z" fill="#3B3224"/>
<path d="M13.9897 16.8644C13.6565 17.0291 14.4532 17.8259 14.6333 17.2973C14.8133 16.7687 13.9897 16.8644 13.9897 16.8644Z" fill="#3B3224"/>
<path d="M13.4806 17.7875C13.4729 17.9637 13.99 17.8105 13.81 17.6151C13.6299 17.4198 13.4806 17.7875 13.4806 17.7875Z" fill="#3B3224"/>
<path d="M13.2769 17.9676C13.2271 17.642 12.3422 18.0978 12.7368 18.3927C13.1313 18.6877 13.2769 17.9676 13.2769 17.9676Z" fill="#3B3224"/>
<path d="M13.116 18.228C12.9436 18.1399 12.8555 18.7183 13.1351 18.6302C13.4109 18.5421 13.116 18.228 13.116 18.228Z" fill="#3B3224"/>
<path d="M12.2969 16.6308C12.0977 16.5887 12.1667 17.2054 12.4271 17.0368C12.6876 16.8683 12.2969 16.6308 12.2969 16.6308Z" fill="#3B3224"/>
<path d="M12.3928 18.4808C12.3123 18.3429 11.9906 18.7068 12.2242 18.7719C12.4579 18.8332 12.3928 18.4808 12.3928 18.4808Z" fill="#3B3224"/>
<path d="M11.3847 16.5695C11.0936 16.4737 11.1012 17.4007 11.5111 17.1938C11.921 16.987 11.3847 16.5695 11.3847 16.5695Z" fill="#3B3224"/>
<path d="M11.1746 17.0177C11.4006 16.9028 10.8491 16.3627 10.7303 16.7266C10.6116 17.0905 11.1746 17.0177 11.1746 17.0177Z" fill="#3B3224"/>
</g>
<path d="M12.4884 22.0702C12.5689 21.8901 11.3163 20.6797 11.0673 21.4113C10.8183 22.1468 12.4884 22.0702 12.4884 22.0702Z" fill="#E36C27"/>
<path d="M25.2471 22.3767C25.136 22.2924 24.0481 22.6256 24.5154 22.9244C24.9828 23.2232 25.2471 22.3767 25.2471 22.3767Z" fill="#E36C27"/>
<path d="M19.7656 22.7022C19.8652 22.8631 21.4204 22.9206 20.9761 22.3153C20.5317 21.7101 19.7656 22.7022 19.7656 22.7022Z" fill="#E36C27"/>
<path d="M29.8782 21.7867C29.771 21.9093 30.2268 22.9857 30.606 22.4532C30.9852 21.9208 29.8782 21.7867 29.8782 21.7867Z" fill="#E36C27"/>
<path d="M29.5148 22.1698C29.3692 22.2273 29.0321 23.2347 29.6105 22.9665C30.1889 22.6984 29.5148 22.1698 29.5148 22.1698Z" fill="#E36C27"/>
<path d="M13.1928 22.3384C13.277 22.2924 13.1315 21.4306 12.8135 21.6527C12.4956 21.8749 13.1928 22.3384 13.1928 22.3384Z" fill="#E36C27"/>
<path d="M25.5652 22.6026C25.5039 22.6792 25.9597 23.4223 26.1742 23.0967C26.3849 22.7711 25.5652 22.6026 25.5652 22.6026Z" fill="#E36C27"/>
<g style="mix-blend-mode:screen">
<path d="M32.613 26.299C32.4023 26.299 32.6053 26.8965 32.8275 26.6782C33.0497 26.456 32.613 26.299 32.613 26.299Z" fill="#3B3224"/>
<path d="M32.46 25.7397C32.3527 25.8853 32.8698 26.0538 32.8315 25.7857C32.7932 25.5176 32.46 25.7397 32.46 25.7397Z" fill="#3B3224"/>
<path d="M31.9433 26.299C31.7786 26.3104 31.9739 26.7701 32.1348 26.5824C32.2957 26.3947 31.9433 26.299 31.9433 26.299Z" fill="#3B3224"/>
<path d="M31.5565 26.6782C31.3266 26.9808 32.4107 27.3447 32.3379 26.7854C32.2651 26.2223 31.5565 26.6782 31.5565 26.6782Z" fill="#3B3224"/>
<path d="M31.7092 25.5827C31.4793 25.7206 32.096 26.2415 32.1918 25.8546C32.2914 25.4678 31.7092 25.5827 31.7092 25.5827Z" fill="#3B3224"/>
<path d="M30.6137 26.8122C30.7593 26.9386 30.9853 26.3985 30.6942 26.4177C30.4031 26.4368 30.6137 26.8122 30.6137 26.8122Z" fill="#3B3224"/>
<path d="M30.189 26.3564C30.2465 26.0959 29.4421 26.184 29.6566 26.5211C29.8711 26.8581 30.189 26.3564 30.189 26.3564Z" fill="#3B3224"/>
<path d="M28.5719 26.6896C28.5298 26.9501 29.3189 26.8199 29.0891 26.4981C28.8592 26.1763 28.5719 26.6896 28.5719 26.6896Z" fill="#3B3224"/>
<path d="M32.0919 24.851C31.954 25.0541 32.6703 25.2494 32.6013 24.8894C32.5324 24.5293 32.0919 24.851 32.0919 24.851Z" fill="#3B3224"/>
<path d="M27.6375 27.1722C27.9976 27.222 27.7946 26.1418 27.3579 26.4674C26.9212 26.793 27.6375 27.1722 27.6375 27.1722Z" fill="#3B3224"/>
<path d="M27.5036 26.7394C27.335 26.6437 27.224 27.2144 27.5036 27.1378C27.7832 27.0612 27.5036 26.7394 27.5036 26.7394Z" fill="#3B3224"/>
<path d="M26.1977 26.8734C26.0138 27.1722 27.0519 27.4059 26.9293 26.8964C26.8067 26.3831 26.1977 26.8734 26.1977 26.8734Z" fill="#3B3224"/>
<path d="M25.2477 26.0998C24.9298 26.2492 25.6652 27.0153 25.8453 26.5212C26.0253 26.0271 25.2477 26.0998 25.2477 26.0998Z" fill="#3B3224"/>
<path d="M25.1939 26.571C25.3931 26.3296 24.5121 25.9887 24.5542 26.456C24.5963 26.9234 25.1939 26.571 25.1939 26.571Z" fill="#3B3224"/>
<path d="M20.7389 26.797C20.896 26.9617 21.2177 26.3526 20.873 26.3412C20.5321 26.3335 20.7389 26.797 20.7389 26.797Z" fill="#3B3224"/>
<path d="M23.6502 26.1036C23.9949 25.9274 23.1599 25.1077 22.976 25.6592C22.7922 26.2108 23.6502 26.1036 23.6502 26.1036Z" fill="#3B3224"/>
<path d="M22.597 25.6707C22.4247 25.8853 23.2099 26.1725 23.164 25.7588C23.118 25.349 22.597 25.6707 22.597 25.6707Z" fill="#3B3224"/>
<path d="M21.2061 26.7509C21.3133 27.0918 22.1905 26.456 21.7155 26.2032C21.2405 25.9542 21.2061 26.7509 21.2061 26.7509Z" fill="#3B3224"/>
<path d="M21.2254 25.8698C21.2292 25.6898 20.7044 25.8507 20.8921 26.0461C21.0798 26.2452 21.2254 25.8698 21.2254 25.8698Z" fill="#3B3224"/>
<path d="M20.3442 25.7856C20.1297 25.9311 20.7579 26.4061 20.8307 26.0231C20.9035 25.64 20.3442 25.7856 20.3442 25.7856Z" fill="#3B3224"/>
<path d="M19.9115 26.1802C19.5782 26.1151 19.7161 27.1379 20.1413 26.8544C20.5665 26.5709 19.9115 26.1802 19.9115 26.1802Z" fill="#3B3224"/>
<path d="M19.1418 26.5518C19.3103 26.6591 19.4559 26.073 19.1609 26.1381C18.8698 26.2032 19.1418 26.5518 19.1418 26.5518Z" fill="#3B3224"/>
<path d="M18.4249 26.8046C18.4172 26.9808 18.9343 26.8276 18.7543 26.6322C18.5743 26.4369 18.4249 26.8046 18.4249 26.8046Z" fill="#3B3224"/>
<path d="M18.0386 26.2223C17.9888 25.8967 17.104 26.3526 17.4985 26.6475C17.893 26.9424 18.0386 26.2223 18.0386 26.2223Z" fill="#3B3224"/>
<path d="M18.0496 26.3373C17.8772 26.2492 17.7891 26.8276 18.0687 26.7395C18.3445 26.6514 18.0496 26.3373 18.0496 26.3373Z" fill="#3B3224"/>
<path d="M17.1535 26.502C17.0731 26.3641 16.7513 26.728 16.985 26.7931C17.2186 26.8544 17.1535 26.502 17.1535 26.502Z" fill="#3B3224"/>
</g>
<g style="mix-blend-mode:screen">
<path d="M27.9902 26.9117C27.8408 26.8849 27.7067 26.8006 27.6033 26.6857C27.3007 26.7049 26.9674 26.4597 27.0594 26.0767C27.0594 26.0729 27.0594 26.069 27.0632 26.0614C26.818 26.0767 26.5499 26.2031 26.3584 26.387C26.1094 26.1993 25.8451 26.3525 25.7225 26.6053C25.6536 26.6015 25.5885 26.5976 25.5195 26.59C25.4544 26.5861 25.282 26.5632 25.0675 26.5249C25.148 25.8392 24.3704 25.7549 24.2823 26.3372C23.8188 26.1916 23.4664 25.9886 23.7422 25.7358C23.769 25.709 23.7843 25.6783 23.792 25.6438C23.746 25.6822 23.6886 25.7013 23.6081 25.6936C23.4626 25.6821 23.3821 25.64 23.2979 25.5213C23.0795 25.6094 22.8612 25.7013 22.639 25.7664C22.6352 25.6822 22.6122 25.5979 22.5624 25.5289C22.5318 25.483 22.4973 25.4485 22.459 25.4178C22.4245 25.5174 22.3402 25.5979 22.2023 25.6055C22.1679 25.6055 22.1334 25.6094 22.1027 25.6094C22.0414 25.8009 21.7925 25.9388 21.6086 25.7511L21.578 25.7205C21.578 25.7205 21.5665 25.6975 21.555 25.6898C21.4477 25.8315 21.4056 26.0231 21.4477 26.1993C21.329 26.3065 21.1873 26.387 21.0264 26.4444C20.9919 26.2682 20.8463 26.0958 20.5552 25.9618C20.4825 25.8967 20.3943 25.8469 20.2986 25.8162C20.2679 25.8086 20.2373 25.8047 20.2067 25.8086C20.1454 25.9579 19.9883 26.0652 19.8313 26.0882C19.6168 26.1227 19.4061 26.1035 19.2644 25.9158C19.2605 25.9081 19.2567 25.9005 19.2529 25.8967C19.092 25.9388 18.9311 25.9924 18.7702 26.0537C18.5366 25.9158 18.2838 26.0537 18.1229 26.2797C18.0846 26.2644 18.0233 26.2299 17.8969 26.1763C17.8394 26.1533 17.759 26.1456 17.6747 26.1495C17.5023 26.0997 17.3606 26.1303 17.2534 26.2069C17.1653 26.2222 17.0887 26.2376 17.035 26.2452C17.035 26.2452 17.0006 26.2491 16.9852 26.2529C16.7746 26.2835 16.8205 26.6321 17.0235 26.6283C17.0044 26.7432 17.012 26.8619 17.0465 26.9654C17.0772 26.9385 17.1155 26.9156 17.1576 26.8926C17.2572 26.8428 17.3644 26.8313 17.464 26.8581C17.5292 26.6551 17.7245 26.5478 17.9084 26.4674C18.1918 26.3487 18.5251 26.5938 18.6017 26.8619C18.6247 26.9539 18.6208 27.0343 18.6055 27.1109C18.7932 26.8236 19.1111 26.6742 19.475 26.7509C19.6091 26.7777 19.7317 26.839 19.8389 26.9156C19.8658 26.7547 19.9768 26.5976 20.1071 26.5249C20.3331 26.3908 20.5705 26.4559 20.7621 26.6091C20.7889 26.6321 20.8119 26.6666 20.8349 26.6934C20.8808 26.747 20.9153 26.8045 20.9421 26.8658C21.2256 26.8121 21.4784 26.7087 21.6852 26.5363C21.6929 26.5402 21.6967 26.5478 21.7044 26.5517C21.7465 26.5747 21.7886 26.59 21.8346 26.6015C21.8346 26.5823 21.8269 26.567 21.8231 26.5478C21.8001 26.3295 21.9687 26.1648 22.1602 26.0958C22.2636 26.0575 22.4092 26.0958 22.4896 26.1724C22.5432 26.138 22.5969 26.1265 22.6505 26.1227C22.593 25.9503 22.7654 25.7473 22.9761 25.8507L22.9952 25.8584C23.0297 25.8737 23.0565 25.8967 23.0718 25.9196C23.0987 25.9426 23.1216 25.9694 23.1408 26.0039C23.1714 25.9963 23.2059 25.9848 23.2366 25.9733C23.2749 26.3946 23.9337 26.7087 24.4776 26.7432C24.7458 26.9271 25.2361 27.0343 25.6727 27.0343C25.6727 27.0458 25.6804 27.0573 25.6842 27.0726C25.7608 26.9998 25.8643 26.95 25.9753 26.95C26.1477 26.95 26.2626 27.0343 26.3546 27.1492C26.435 27.1914 26.5001 27.2526 26.5423 27.3446C26.5461 27.3484 26.5537 27.3561 26.5576 27.3599C26.592 27.3905 26.615 27.425 26.6342 27.4595C26.7376 27.3178 26.9023 27.222 27.09 27.222H27.1858C27.3581 27.222 27.5152 27.3063 27.6186 27.4327C27.8714 27.379 28.1242 27.2986 28.3464 27.2028C28.3387 27.0956 28.3617 26.9922 28.4154 26.9002C28.2813 26.9424 28.1319 26.9539 27.994 26.9271L27.9902 26.9117Z" fill="#261911"/>
</g>
<g style="mix-blend-mode:screen">
<path d="M30.2196 26.0345C30.2081 26.1724 30.1239 26.3103 29.9821 26.3333L30.0013 26.3103C29.7485 26.5439 29.3999 26.2835 29.4382 26.0192C29.4114 26.023 29.3884 26.0307 29.3616 26.0345C29.331 26.0613 29.2927 26.0881 29.239 26.0996C29.1279 26.1303 29.0092 26.1341 28.9019 26.0996C28.9019 26.249 28.8828 26.3946 28.8215 26.5324C28.81 26.5554 28.7947 26.5784 28.7832 26.5976C28.9977 26.5631 29.2084 26.6665 29.3386 26.8542C29.3578 26.8849 29.3731 26.9117 29.3884 26.9423C29.4497 26.9844 29.4918 27.0342 29.5148 27.0917C29.5301 27.1108 29.5455 27.1338 29.5531 27.1606C29.5646 27.1683 29.5723 27.1798 29.5838 27.1913C29.6872 27.0802 29.7983 26.9768 29.9094 26.8925C30.1507 26.7163 30.4035 26.6895 30.6065 26.7891C30.8708 26.521 30.5567 26.18 30.2196 26.0268V26.0345ZM29.8711 26.7623C29.8825 26.6435 29.94 26.5056 30.0166 26.3601C30.0932 26.4175 30.1545 26.5018 30.2005 26.6167C30.0971 26.6818 29.986 26.7278 29.8711 26.7584V26.7623Z" fill="#261911"/>
</g>
<g style="mix-blend-mode:screen">
<path d="M32.916 25.4331C32.9007 25.391 32.8892 25.3527 32.8777 25.3106C32.8586 25.2952 32.8356 25.2837 32.8164 25.2646L32.8049 25.2531C32.6402 25.142 32.5406 24.962 32.6019 24.7436C32.6249 24.6632 32.6785 24.5828 32.7475 24.5177C32.7054 24.3798 32.6747 24.2342 32.6594 24.0925C32.579 24.012 32.4985 23.9316 32.4142 23.855C32.4142 23.989 32.4066 24.1308 32.4027 24.2227C32.3453 24.261 32.284 24.3185 32.2227 24.4219C32.1538 24.5406 32.2419 24.7207 32.3874 24.7092C32.4487 24.7053 32.5023 24.6862 32.5445 24.6632C32.5368 24.7896 32.5866 25.1267 32.5828 25.3757C32.5598 25.3872 32.5406 25.3987 32.5215 25.414C32.3951 25.3182 32.2419 25.3029 32.081 25.4216C32.2725 25.4676 32.4181 25.7166 32.2342 25.9004C32.2112 25.9234 32.1921 25.9426 32.1691 25.9656C32.0044 26.1303 31.7822 26.0307 31.7056 25.8698C31.7133 25.9349 31.7018 26.0077 31.6367 26.069C31.6252 26.0805 31.6137 26.092 31.606 26.0996C31.38 26.3256 31.0391 26 31.223 25.7626C30.974 25.9119 30.8016 26.1877 30.8859 26.498C30.8974 26.5401 30.9127 26.5784 30.9318 26.6129C30.8782 26.7508 30.8974 26.8849 31.0238 26.9883C31.0621 26.9998 31.0927 27.0228 31.1157 27.0496C31.1463 27.0343 31.1808 27.0189 31.2191 27.0113C31.4336 26.9615 31.6022 27.0113 31.7324 27.1185C31.7937 27.1032 31.8512 27.0802 31.901 27.0496C31.9584 27.107 32.0235 27.153 32.1001 27.1913C32.0695 26.8044 32.3338 26.4444 32.7973 26.3907C32.8011 26.3907 32.8088 26.3907 32.8126 26.3907C32.8394 26.3141 32.8471 26.2222 32.8432 26.1264C32.5675 25.9809 32.5943 25.5174 32.916 25.4293V25.4331Z" fill="#261911"/>
</g>
<g style="mix-blend-mode:screen">
<path d="M28.335 31.0948C28.2891 31.1178 28.2393 31.1292 28.1895 31.1139C28.109 31.1139 28.0286 31.068 28.0018 30.9684C27.9903 30.9301 27.9865 30.8918 27.9788 30.8496C27.6762 30.7577 27.2893 30.8075 26.9944 30.9684C26.8909 30.7692 26.6534 30.6581 26.4274 30.7156C26.098 30.5662 25.7686 30.4666 25.6269 30.4359C25.4162 30.39 25.0293 30.3823 24.6654 30.4436C24.7688 30.5355 24.8378 30.6619 24.8378 30.8113C24.8378 31.0833 24.6041 31.3323 24.3284 31.3208C24.179 31.3169 24.0487 31.2901 23.9261 31.202C23.7231 31.0603 23.6197 30.819 23.704 30.5853C23.6925 30.5968 23.6772 30.6045 23.6657 30.6121C23.6121 30.593 23.5584 30.5738 23.501 30.5585C23.4665 30.4972 23.4244 30.4436 23.3707 30.4015C23.3478 30.3861 23.3286 30.3746 23.3056 30.3593C23.275 30.4398 23.229 30.5164 23.1715 30.5892C23.1486 30.6198 23.1256 30.6504 23.0949 30.6773C22.7732 30.9607 22.348 31.2288 21.9458 31.2212C21.896 31.4127 21.7466 31.5544 21.5513 31.5966C21.4325 31.6732 21.2831 31.6732 21.1529 31.631C21.1261 31.6655 21.0916 31.6923 21.0495 31.7115C20.9767 31.746 20.8618 31.7843 20.812 31.8072C20.5975 31.903 20.3447 31.8724 20.2183 31.6502C20.1187 31.4778 20.157 31.2135 20.3293 31.0909C20.2183 31.1714 20.0765 31.2059 19.9425 31.1599C19.8773 31.1369 19.8122 31.1139 19.7548 31.0795C19.6245 30.999 19.5288 30.8535 19.5249 30.6964C19.4675 30.7079 19.4139 30.7232 19.3641 30.7424C19.0998 30.8458 19.0423 31.0833 19.0806 31.3208H19.0691C19.0193 31.2442 18.9657 31.1752 18.9044 31.1139C18.9351 31.0718 18.958 31.0258 18.9772 30.9799C18.9887 30.9492 18.9887 30.9186 18.9772 30.8918C18.9427 30.8994 18.9082 30.9147 18.8661 30.9147H18.5635C18.3528 30.9147 18.2226 30.7922 18.1651 30.639C18.1345 30.6658 18.1038 30.6926 18.077 30.7232C17.8817 30.7156 17.6825 30.7577 17.5025 30.8764C17.5139 30.8228 17.5216 30.7692 17.5254 30.7117C17.5408 30.2367 17.0811 30.095 16.7593 30.2636C16.5678 30.164 16.3648 30.0912 16.1656 30.0452C16.1158 29.9993 16.066 29.9648 16.0201 29.938C15.8439 30.1218 15.5451 30.1946 15.3076 29.9724C15.2003 29.9227 15.1276 29.846 15.0816 29.7541C15.0203 29.7541 14.9552 29.7426 14.8939 29.7196C14.8977 29.7196 14.8939 29.7196 14.8441 29.7196C14.6986 29.7196 14.5913 29.666 14.5109 29.5856C14.3385 29.6392 14.2197 29.7541 14.1431 29.9112C14.1048 29.9265 14.0665 29.9418 14.0282 29.9571C14.0244 29.9571 14.0167 29.9533 14.0129 29.9495C14.0014 29.9418 13.9937 29.9265 13.9861 29.9227C13.7716 29.7962 13.5571 29.8192 13.3732 29.9188L13.3426 29.9073C13.3311 29.9303 13.3234 29.9495 13.3081 29.9724C13.2238 30.095 13.1166 30.2023 13.0017 30.2904C12.925 30.4206 12.8829 30.5662 12.8829 30.7002L12.8714 30.7079C12.8714 30.7079 12.8523 30.7385 12.8446 30.7539C12.7565 30.7539 12.6722 30.7194 12.5956 30.6581C12.7603 30.5547 12.8982 30.4359 12.9672 30.3172C12.7144 30.5011 12.4079 30.6121 12.0977 30.639C12.3083 30.7041 12.4922 30.8228 12.5841 31.0182C12.6071 31.0641 12.6186 31.1139 12.6263 31.1599C12.745 31.1637 12.8638 31.1599 12.9863 31.1331C13.0553 31.1522 13.1472 31.1599 13.243 31.1599C13.3272 31.1867 13.4115 31.202 13.4881 31.2059C13.5303 31.271 13.5877 31.3284 13.6528 31.3782C13.6375 31.3552 13.6222 31.3323 13.6107 31.3055L13.5992 31.294C13.3694 31.0986 13.4 30.7079 13.5992 30.5087C13.8137 30.2942 14.1201 30.3134 14.3461 30.4819C14.3308 30.4666 14.3385 30.4704 14.3844 30.5087C14.373 30.4972 14.3576 30.4896 14.3461 30.4819C14.3806 30.5164 14.5377 30.6658 14.5453 30.6887C14.6028 30.8113 14.6258 30.9109 14.6411 31.0488C14.6641 31.2671 14.507 31.4587 14.3117 31.5506C14.3691 31.5506 14.4189 31.5506 14.4802 31.5429C14.5683 31.5315 14.6488 31.497 14.7215 31.4548C14.7675 31.474 14.8096 31.4931 14.8594 31.5123C15.0624 31.5851 15.3153 31.5966 15.5604 31.5506C15.9205 31.8839 16.495 31.8494 16.9317 31.5966C17.1002 31.6732 17.3071 31.7038 17.5178 31.7C17.5982 31.5085 17.7897 31.3706 18.0081 31.3744C18.1996 31.3744 18.3452 31.4165 18.5175 31.4931C18.7742 31.6081 18.8355 31.9681 18.7167 32.198C18.8355 32.152 18.9389 32.0754 19.0193 31.9796C19.05 31.9911 19.0844 32.0064 19.1189 32.0179C19.1764 32.0907 19.253 32.152 19.3449 32.1865C19.4751 32.2363 19.5747 32.1137 19.5786 31.9988C19.7356 32.0524 19.9118 32.0371 20.0842 31.9796C20.3562 32.106 20.743 32.0869 21.0993 31.9681C21.4019 31.9949 21.739 31.926 22.0416 31.7843C22.1641 31.8455 22.302 31.88 22.4476 31.8953C22.5012 31.9336 22.5625 31.9643 22.6276 31.9911C22.5012 31.7843 22.5472 31.5276 22.7042 31.3361C22.5855 31.474 22.7042 31.3208 22.7502 31.2825C23.0222 31.0258 23.5623 31.1063 23.6427 31.52C23.6542 31.5851 23.6657 31.6502 23.6657 31.7153C23.6657 31.8111 23.6389 31.8992 23.5929 31.9796C23.6121 31.9988 23.6312 32.0218 23.6504 32.0371C23.6963 31.7383 24.1445 31.7345 24.2326 32.0179C24.2671 32.0601 24.2862 32.1137 24.29 32.1673C24.3322 32.1558 24.3782 32.1405 24.4241 32.1175C24.5505 32.0639 24.7037 31.9988 24.8646 31.9183C24.8723 31.926 24.8838 31.926 24.8914 31.9336C24.9948 31.9107 25.1059 31.9145 25.217 31.9528C25.3319 31.9911 25.4239 32.0601 25.4966 32.1482C25.6958 32.1673 25.9065 32.1558 26.1133 32.0984C26.1287 32.1252 26.1517 32.1443 26.167 32.1673V32.1596C26.1133 32.0447 26.2168 31.9068 26.324 31.8762C26.4083 31.8532 26.4734 31.8762 26.527 31.926C26.7722 31.9834 26.7607 32.3895 26.4811 32.378C26.4581 32.378 26.4351 32.3742 26.416 32.3703C26.5194 32.4201 26.6381 32.4508 26.7799 32.4469C26.9561 32.4393 27.2242 32.3971 27.4961 32.3129C27.4042 32.2937 27.3199 32.2439 27.2548 32.1482C27.2127 32.0869 27.1935 32.0179 27.182 31.9528C27.1629 31.9528 27.1437 31.9605 27.1246 31.9605C27.1437 31.9451 27.1591 31.9336 27.1744 31.9183C27.1667 31.8149 27.1897 31.7153 27.2548 31.6195C27.2816 31.5812 27.3123 31.5506 27.3468 31.5238C27.3314 31.3552 27.2127 31.1982 27.0365 31.0603C27.408 30.999 27.6417 31.1407 27.7336 31.4778C27.8945 31.5429 28.0133 31.7038 27.9673 31.8839C27.9941 31.9834 27.9673 32.0754 27.9098 32.1482C28.1856 32.0103 28.404 31.8187 28.4384 31.5736C28.4691 31.3667 28.4269 31.202 28.3388 31.0795L28.335 31.0948ZM15.0356 31.1752C15.1161 31.0603 15.1774 30.9262 15.2233 30.7845C15.231 30.7845 15.2386 30.7845 15.2425 30.7845C15.2425 30.9301 15.2693 31.0718 15.3114 31.1944C15.2118 31.202 15.1199 31.1944 15.0356 31.1714V31.1752ZM15.8017 31.0488C15.3842 30.7156 15.4493 30.6313 16.0086 30.796C15.9511 30.9033 15.8822 30.9837 15.8017 31.0488ZM16.2805 31.3974C16.2346 31.3667 16.1963 31.3399 16.1541 31.3093C16.1771 31.2901 16.2039 31.2748 16.2231 31.2518C16.3725 31.1024 16.4261 30.819 16.3993 30.5585C16.4299 30.57 16.4606 30.5853 16.4912 30.5968C16.4376 30.7539 16.4338 30.9569 16.5295 31.2059C16.5563 31.2748 16.5946 31.3323 16.6368 31.3859C16.5448 31.405 16.4261 31.4089 16.2844 31.3936L16.2805 31.3974ZM19.1112 31.9643C19.0117 31.972 18.9082 31.9107 18.9159 31.7804C18.9159 31.7689 18.9159 31.7574 18.9159 31.7498C18.9236 31.6464 19.0002 31.5583 19.1074 31.5583C19.1879 31.5583 19.2338 31.5927 19.2875 31.6464C19.4368 31.7881 19.2721 31.9988 19.1074 31.9643H19.1112ZM25.9755 31.7498H25.9678C25.6614 31.8877 25.4162 31.8839 25.2285 31.7421C25.4737 31.5889 25.692 31.405 25.8146 31.1829C25.7992 31.1829 25.7839 31.1944 25.7648 31.1944C25.5847 31.1944 25.4009 31.1867 25.2285 31.1369C25.1059 31.1024 25.0485 30.9837 25.0715 30.8649C25.0868 30.7845 25.1289 30.7156 25.2017 30.6734C25.2362 30.6543 25.286 30.6543 25.3204 30.6351C25.4545 30.5508 25.5809 30.6351 25.6269 30.7462C25.6728 30.7462 25.7188 30.7462 25.7686 30.7462C25.9065 30.7462 25.9754 30.8496 25.9831 30.9569C26.0329 30.9645 26.075 30.976 26.1133 30.9837C26.0406 31.0986 25.9869 31.2518 25.9678 31.4587C25.9601 31.5583 25.9678 31.654 25.9831 31.7498H25.9755Z" fill="#261911"/>
</g>
<g style="mix-blend-mode:screen">
<path d="M34.1071 31.1409C34.245 31.2482 34.4135 30.7502 34.1569 30.7847C33.9003 30.8153 34.1071 31.1409 34.1071 31.1409Z" fill="#3B3224"/>
<path d="M34.1572 30.7808C34.2645 31.0757 35.0114 30.482 34.5824 30.279C34.1534 30.076 34.1572 30.7808 34.1572 30.7808Z" fill="#3B3224"/>
<path d="M11.5381 30.8383C11.5649 31.206 12.5953 30.777 12.1778 30.4131C11.7603 30.0492 11.5381 30.8383 11.5381 30.8383Z" fill="#3B3224"/>
<path d="M28.3151 31.3555C28.1045 31.3555 28.3075 31.953 28.5296 31.7347C28.7518 31.5125 28.3151 31.3555 28.3151 31.3555Z" fill="#3B3224"/>
<path d="M28.1045 31.1907C27.9973 31.3362 28.5144 31.5048 28.4761 31.2366C28.4378 30.9685 28.1045 31.1907 28.1045 31.1907Z" fill="#3B3224"/>
<path d="M27.6679 31.4933C27.5032 31.5048 27.6986 31.9644 27.8594 31.7767C28.0203 31.589 27.6679 31.4933 27.6679 31.4933Z" fill="#3B3224"/>
<path d="M26.7176 31.4167C26.4878 31.7193 27.5718 32.0832 27.499 31.5239C27.4262 30.9609 26.7176 31.4167 26.7176 31.4167Z" fill="#3B3224"/>
<path d="M26.6642 30.5511C26.4344 30.689 27.0511 31.2099 27.1469 30.823C27.2465 30.4361 26.6642 30.5511 26.6642 30.5511Z" fill="#3B3224"/>
<path d="M26.0551 32.0181C26.2007 32.1445 26.4267 31.6045 26.1356 31.6236C25.8445 31.6428 26.0551 32.0181 26.0551 32.0181Z" fill="#3B3224"/>
<path d="M25.7149 31.3363C25.5157 31.1562 25.1978 31.8993 25.5961 31.8802C25.9945 31.861 25.7149 31.3363 25.7149 31.3363Z" fill="#3B3224"/>
<path d="M24.6191 31.4588C24.6958 31.7844 25.5499 31.2481 25.1248 30.9838C24.6996 30.7195 24.6191 31.4588 24.6191 31.4588Z" fill="#3B3224"/>
<path d="M25.1586 31.8343C25.3961 31.9492 25.4957 31.1563 25.1242 31.2865C24.7488 31.4129 25.1586 31.8343 25.1586 31.8343Z" fill="#3B3224"/>
<path d="M24.822 30.4092C25.0135 30.3901 24.7684 29.8538 24.5845 30.0798C24.4007 30.3058 24.822 30.4092 24.822 30.4092Z" fill="#3B3224"/>
<path d="M23.6271 31.1064C23.4892 31.3094 24.2055 31.5047 24.1365 31.1447C24.0676 30.7846 23.6271 31.1064 23.6271 31.1064Z" fill="#3B3224"/>
<path d="M23.6004 30.9187C23.9605 30.9685 23.7575 29.8883 23.3208 30.2139C22.8841 30.5395 23.6004 30.9187 23.6004 30.9187Z" fill="#3B3224"/>
<path d="M22.8685 30.8497C22.7038 30.754 22.5889 31.3247 22.8685 31.2481C23.1482 31.1715 22.8685 30.8497 22.8685 30.8497Z" fill="#3B3224"/>
<path d="M22.4545 31.4282C22.7227 31.6887 23.2168 30.666 22.6537 30.6698C22.0906 30.6736 22.4545 31.4282 22.4545 31.4282Z" fill="#3B3224"/>
<path d="M21.6079 30.8499C21.5581 31.0912 22.2935 30.9993 22.0905 30.6928C21.8913 30.3864 21.6079 30.8499 21.6079 30.8499Z" fill="#3B3224"/>
<path d="M22.0682 31.6658C22.321 31.9109 22.773 30.9495 22.2482 30.9571C21.7234 30.9648 22.0682 31.6658 22.0682 31.6658Z" fill="#3B3224"/>
<path d="M20.9723 31.2941C20.6544 31.4435 21.3898 32.2134 21.5699 31.7155C21.7499 31.2213 20.9723 31.2941 20.9723 31.2941Z" fill="#3B3224"/>
<path d="M20.9185 31.7653C21.1177 31.524 20.2367 31.1831 20.2788 31.6504C20.3209 32.1177 20.9185 31.7653 20.9185 31.7653Z" fill="#3B3224"/>
<path d="M20.7389 30.9609C20.896 31.1256 21.2177 30.5166 20.873 30.5051C20.5321 30.4974 20.7389 30.9609 20.7389 30.9609Z" fill="#3B3224"/>
<path d="M19.7654 31.4704C20.1102 31.2942 19.2751 30.4745 19.0913 31.0261C18.9074 31.5776 19.7654 31.4704 19.7654 31.4704Z" fill="#3B3224"/>
<path d="M19.0414 31.2444C18.869 31.4589 19.6543 31.7461 19.6083 31.3325C19.5623 30.9226 19.0414 31.2444 19.0414 31.2444Z" fill="#3B3224"/>
<path d="M18.2867 31.6426C18.2599 31.9605 19.2022 31.7307 18.8919 31.363C18.5855 30.9952 18.2867 31.6426 18.2867 31.6426Z" fill="#3B3224"/>
<path d="M17.8385 31.7462C18.0683 32.0219 18.6391 31.1026 18.1028 31.049C17.5665 30.9954 17.8385 31.7462 17.8385 31.7462Z" fill="#3B3224"/>
<path d="M17.6743 31.1217C17.9616 31.0834 17.5786 30.2943 17.3104 30.6391C17.0423 30.9838 17.6743 31.1217 17.6743 31.1217Z" fill="#3B3224"/>
<path d="M16.95 31.0644C16.9538 30.8843 16.429 31.0452 16.6167 31.2406C16.8044 31.4398 16.95 31.0644 16.95 31.0644Z" fill="#3B3224"/>
<path d="M16.0688 30.9801C15.8543 31.1256 16.4825 31.6006 16.5553 31.2176C16.6281 30.8345 16.0688 30.9801 16.0688 30.9801Z" fill="#3B3224"/>
<path d="M16.1078 30.0225C15.7745 29.9573 15.9124 30.9801 16.3376 30.6966C16.7628 30.4132 16.1078 30.0225 16.1078 30.0225Z" fill="#3B3224"/>
<path d="M10.2278 30.1831C10.5457 30.2329 10.381 29.2714 9.99033 29.5549C9.59962 29.8383 10.2278 30.1831 10.2278 30.1831Z" fill="#3B3224"/>
<path d="M14.8664 31.455C15.0349 31.5622 15.1805 30.9761 14.8855 31.0413C14.5944 31.1064 14.8664 31.455 14.8664 31.455Z" fill="#3B3224"/>
<path d="M14.4761 30.0799C14.1428 30.2446 14.9396 31.0413 15.1196 30.5127C15.2996 29.9841 14.4761 30.0799 14.4761 30.0799Z" fill="#3B3224"/>
<path d="M13.9659 31.0029C13.9582 31.1791 14.4754 31.0259 14.2953 30.8306C14.1153 30.6352 13.9659 31.0029 13.9659 31.0029Z" fill="#3B3224"/>
<path d="M13.5982 30.5548C13.5484 30.2292 12.6635 30.685 13.0581 30.98C13.4526 31.2749 13.5982 30.5548 13.5982 30.5548Z" fill="#3B3224"/>
<path d="M14.2957 31.0872C14.1233 30.9991 14.0352 31.5775 14.3148 31.4894C14.5906 31.4013 14.2957 31.0872 14.2957 31.0872Z" fill="#3B3224"/>
<path d="M12.7793 29.8423C12.5801 29.8002 12.6491 30.4169 12.9095 30.2484C13.17 30.0798 12.7793 29.8423 12.7793 29.8423Z" fill="#3B3224"/>
<path d="M12.7863 30.8231C12.7059 30.6852 12.3841 31.0491 12.6178 31.1142C12.8515 31.1755 12.7863 30.8231 12.7863 30.8231Z" fill="#3B3224"/>
</g>
<path style="mix-blend-mode:screen" d="M30.4067 35.22C30.2573 37.0509 25.3696 38.1388 19.4937 37.6523C13.6177 37.1659 8.97521 35.2889 9.1246 33.458C9.27399 31.627 14.1617 30.5391 20.0414 31.0256C25.9174 31.5121 30.5561 33.389 30.4067 35.22Z" fill="url(#paint51_radial_3193_5409)"/>
<path style="mix-blend-mode:multiply" d="M33.927 32.4736C32.9923 34.205 31.4601 35.1894 30.5102 34.6761C29.5564 34.159 29.5411 32.3395 30.4795 30.6081C31.4142 28.8768 32.9425 27.8923 33.8963 28.4056C34.8501 28.9189 34.8616 30.7422 33.927 32.4736Z" fill="url(#paint52_radial_3193_5409)"/>
<path style="mix-blend-mode:screen" d="M25.826 25.0734C25.8758 25.7322 23.4895 26.4523 20.4902 26.6822C17.4909 26.912 15.0203 26.5634 14.9705 25.9007C14.9207 25.2419 17.3109 24.5218 20.3102 24.2919C23.3094 24.0621 25.7801 24.4107 25.8299 25.0695L25.826 25.0734Z" fill="url(#paint53_radial_3193_5409)"/>
<path style="mix-blend-mode:screen" d="M33.2946 24.8167C33.3674 25.7437 31.7778 26.6208 29.7514 26.7741C27.7213 26.9273 26.0206 26.3029 25.9516 25.3759C25.8788 24.449 27.4685 23.5718 29.4986 23.4186C31.5288 23.2653 33.2295 23.8897 33.2985 24.8167H33.2946Z" fill="url(#paint54_radial_3193_5409)"/>
<path style="mix-blend-mode:screen" d="M18.1914 31.2251C18.1378 31.8839 16.3758 32.2785 14.2614 32.1023C12.1431 31.9261 10.473 31.2519 10.5266 30.5931C10.5803 29.9342 12.3423 29.5435 14.4567 29.7159C16.5711 29.8921 18.245 30.5662 18.1914 31.2251Z" fill="url(#paint55_radial_3193_5409)"/>
<path style="mix-blend-mode:screen" d="M21.6079 31.8419C21.5581 32.3054 20.3093 32.5467 18.8231 32.382C17.3369 32.2173 16.1724 31.7078 16.2222 31.2443C16.272 30.7808 17.5208 30.5395 19.007 30.7042C20.4932 30.8689 21.6577 31.3784 21.6079 31.8419Z" fill="url(#paint56_radial_3193_5409)"/>
<path style="mix-blend-mode:screen" d="M35.3366 17.9794C35.3596 18.4467 33.9462 18.8948 32.1803 18.9829C30.4145 19.071 28.9627 18.7684 28.9397 18.3011C28.9167 17.8376 30.3302 17.3856 32.096 17.2975C33.8619 17.2094 35.3136 17.512 35.3366 17.9794Z" fill="url(#paint57_radial_3193_5409)"/>
<path style="mix-blend-mode:screen" d="M28.5103 31.8992C28.4606 32.3551 27.0394 32.5696 25.3387 32.3819C23.638 32.1942 22.3012 31.6732 22.351 31.2174C22.4008 30.7616 23.8219 30.5471 25.5226 30.7348C27.2233 30.9225 28.5601 31.4434 28.5103 31.8992Z" fill="url(#paint58_radial_3193_5409)"/>
<path style="mix-blend-mode:screen" d="M34.3294 26.8125C34.2987 27.2683 32.893 27.5479 31.1846 27.4369C29.4762 27.3258 28.1163 26.8661 28.147 26.4065C28.1776 25.9506 29.5834 25.671 31.2918 25.7821C33.0002 25.8932 34.36 26.3528 34.3294 26.8125Z" fill="url(#paint59_radial_3193_5409)"/>
<path style="mix-blend-mode:screen" d="M28.1811 27.3908C28.116 27.6972 27.1354 27.7509 25.9901 27.5096C24.8448 27.2682 23.9676 26.8239 24.0327 26.5175C24.0978 26.211 25.0784 26.1574 26.2237 26.3987C27.369 26.64 28.2462 27.0805 28.1811 27.3908Z" fill="url(#paint60_radial_3193_5409)"/>
<path style="mix-blend-mode:screen" d="M22.8411 26.6056C22.8641 26.9197 21.6652 27.2606 20.1674 27.3717C18.6659 27.4828 17.4325 27.3181 17.4095 27.0078C17.3865 26.6937 18.5855 26.3528 20.0832 26.2417C21.5847 26.1307 22.8181 26.2954 22.8411 26.6056Z" fill="url(#paint61_radial_3193_5409)"/>
<path style="mix-blend-mode:screen" d="M14.38 18.7531C14.2191 19.2625 12.7674 19.2587 11.1356 18.7454C9.50383 18.2321 8.30871 17.4047 8.46959 16.8953C8.63047 16.3858 10.0822 16.3896 11.714 16.9029C13.3458 17.4162 14.5409 18.2436 14.38 18.7531Z" fill="url(#paint62_radial_3193_5409)"/>
<path style="mix-blend-mode:screen" d="M26.6911 19.5307C26.5916 20.1129 24.7146 20.2776 22.5006 19.8984C20.2866 19.5192 18.5705 18.7378 18.6701 18.1555C18.7697 17.5733 20.6467 17.4086 22.8645 17.7878C25.0785 18.167 26.7946 18.9484 26.695 19.5307H26.6911Z" fill="url(#paint63_radial_3193_5409)"/>
<defs>
<linearGradient id="paint0_linear_3193_5409" x1="19.6007" y1="30.3746" x2="19.2176" y2="32.4354" gradientUnits="userSpaceOnUse">
<stop stop-color="#AB826A"/>
<stop offset="1" stop-color="white"/>
</linearGradient>
<linearGradient id="paint1_linear_3193_5409" x1="1.64713" y1="15.0451" x2="8.98632" y2="18.301" gradientUnits="userSpaceOnUse">
<stop stop-color="#FF7E21"/>
<stop offset="1"/>
</linearGradient>
<linearGradient id="paint2_linear_3193_5409" x1="9.45378" y1="17.5273" x2="7.04825" y2="15.5891" gradientUnits="userSpaceOnUse">
<stop stop-color="#CCA087"/>
<stop offset="1" stop-color="white"/>
</linearGradient>
<linearGradient id="paint3_linear_3193_5409" x1="24.7183" y1="29.9801" x2="24.8447" y2="26.0232" gradientUnits="userSpaceOnUse">
<stop stop-color="#C9641A"/>
<stop offset="1"/>
</linearGradient>
<linearGradient id="paint4_linear_3193_5409" x1="19.1794" y1="23.9088" x2="37.1826" y2="27.2298" gradientUnits="userSpaceOnUse">
<stop stop-color="#AB826A"/>
<stop offset="1" stop-color="white"/>
</linearGradient>
<linearGradient id="paint5_linear_3193_5409" x1="29.2532" y1="28.4631" x2="32.9879" y2="32.6767" gradientUnits="userSpaceOnUse">
<stop stop-color="#FF7E21"/>
<stop offset="1"/>
</linearGradient>
<linearGradient id="paint6_linear_3193_5409" x1="27.6714" y1="27.521" x2="30.2876" y2="32.309" gradientUnits="userSpaceOnUse">
<stop stop-color="#CCA087"/>
<stop offset="1" stop-color="white"/>
</linearGradient>
<linearGradient id="paint7_linear_3193_5409" x1="29.0316" y1="21.3807" x2="29.7977" y2="22.8171" gradientUnits="userSpaceOnUse">
<stop stop-color="#CCA087"/>
<stop offset="1" stop-color="white"/>
</linearGradient>
<linearGradient id="paint8_linear_3193_5409" x1="23.8906" y1="22.6447" x2="27.6062" y2="22.6447" gradientUnits="userSpaceOnUse">
<stop stop-color="#CCA087"/>
<stop offset="1" stop-color="white"/>
</linearGradient>
<linearGradient id="paint9_linear_3193_5409" x1="19.4208" y1="21.2696" x2="20.3324" y2="23.5219" gradientUnits="userSpaceOnUse">
<stop stop-color="#CCA087"/>
<stop offset="1" stop-color="white"/>
</linearGradient>
<linearGradient id="paint10_linear_3193_5409" x1="12.668" y1="20.4997" x2="13.051" y2="22.1276" gradientUnits="userSpaceOnUse">
<stop stop-color="#CCA087"/>
<stop offset="1" stop-color="white"/>
</linearGradient>
<linearGradient id="paint11_linear_3193_5409" x1="27.9171" y1="27.3792" x2="27.4689" y2="23.9317" gradientUnits="userSpaceOnUse">
<stop stop-color="#FF6745"/>
<stop offset="1"/>
</linearGradient>
<linearGradient id="paint12_linear_3193_5409" x1="23.3167" y1="23.7555" x2="25.5192" y2="26.4368" gradientUnits="userSpaceOnUse">
<stop stop-color="#CCA087"/>
<stop offset="1" stop-color="white"/>
</linearGradient>
<linearGradient id="paint13_linear_3193_5409" x1="17.429" y1="27.249" x2="17.1073" y2="24.4413" gradientUnits="userSpaceOnUse">
<stop stop-color="#FF6745"/>
<stop offset="1"/>
</linearGradient>
<linearGradient id="paint14_linear_3193_5409" x1="8.99435" y1="21.2428" x2="20.4858" y2="28.5207" gradientUnits="userSpaceOnUse">
<stop stop-color="#CCA087"/>
<stop offset="1" stop-color="white"/>
</linearGradient>
<linearGradient id="paint15_linear_3193_5409" x1="28.7133" y1="26.2415" x2="27.6599" y2="23.2729" gradientUnits="userSpaceOnUse">
<stop stop-color="white"/>
<stop offset="1"/>
</linearGradient>
<linearGradient id="paint16_linear_3193_5409" x1="17.7355" y1="26.954" x2="16.9694" y2="23.2691" gradientUnits="userSpaceOnUse">
<stop stop-color="white"/>
<stop offset="1"/>
</linearGradient>
<linearGradient id="paint17_linear_3193_5409" x1="19.402" y1="25.1307" x2="21.8267" y2="18.301" gradientUnits="userSpaceOnUse">
<stop stop-color="#C9641A"/>
<stop offset="1"/>
</linearGradient>
<linearGradient id="paint18_linear_3193_5409" x1="15.1838" y1="14.9492" x2="41.2923" y2="19.4807" gradientUnits="userSpaceOnUse">
<stop stop-color="#AB826A"/>
<stop offset="1" stop-color="white"/>
</linearGradient>
<linearGradient id="paint19_linear_3193_5409" x1="7.68754" y1="36.4918" x2="23.8253" y2="28.1605" gradientUnits="userSpaceOnUse">
<stop stop-color="#C9641A"/>
<stop offset="1"/>
</linearGradient>
<linearGradient id="paint20_linear_3193_5409" x1="14.2532" y1="29.888" x2="31.3945" y2="32.8068" gradientUnits="userSpaceOnUse">
<stop stop-color="#AB826A"/>
<stop offset="1" stop-color="white"/>
</linearGradient>
<linearGradient id="paint21_linear_3193_5409" x1="14.399" y1="29.0187" x2="31.5403" y2="31.9413" gradientUnits="userSpaceOnUse">
<stop stop-color="#AB826A"/>
<stop offset="1" stop-color="white"/>
</linearGradient>
<linearGradient id="paint22_linear_3193_5409" x1="13.9815" y1="32.9679" x2="13.5333" y2="27.6052" gradientUnits="userSpaceOnUse">
<stop stop-color="#FFE921"/>
<stop offset="1"/>
</linearGradient>
<linearGradient id="paint23_linear_3193_5409" x1="22.1705" y1="31.8839" x2="21.4695" y2="28.4977" gradientUnits="userSpaceOnUse">
<stop stop-color="#FFE921"/>
<stop offset="1"/>
</linearGradient>
<linearGradient id="paint24_linear_3193_5409" x1="30.3071" y1="30.6543" x2="29.5716" y2="27.4635" gradientUnits="userSpaceOnUse">
<stop stop-color="#FFE921"/>
<stop offset="1"/>
</linearGradient>
<linearGradient id="paint25_linear_3193_5409" x1="42.369" y1="30.2367" x2="35.7308" y2="29.057" gradientUnits="userSpaceOnUse">
<stop stop-color="#FFE921"/>
<stop offset="1"/>
</linearGradient>
<linearGradient id="paint26_linear_3193_5409" x1="4.65812" y1="25.8163" x2="7.78762" y2="26.3602" gradientUnits="userSpaceOnUse">
<stop stop-color="#FFE921"/>
<stop offset="1"/>
</linearGradient>
<linearGradient id="paint27_linear_3193_5409" x1="22.684" y1="23.3495" x2="23.0364" y2="29.6391" gradientUnits="userSpaceOnUse">
<stop stop-color="#CCA087"/>
<stop offset="1" stop-color="white"/>
</linearGradient>
<linearGradient id="paint28_linear_3193_5409" x1="31.7051" y1="26.4408" x2="35.9186" y2="27.4635" gradientUnits="userSpaceOnUse">
<stop stop-color="#CCA087"/>
<stop offset="1" stop-color="white"/>
</linearGradient>
<linearGradient id="paint29_linear_3193_5409" x1="26.235" y1="26.6859" x2="26.2197" y2="28.7965" gradientUnits="userSpaceOnUse">
<stop stop-color="#CCA087"/>
<stop offset="1" stop-color="white"/>
</linearGradient>
<linearGradient id="paint30_linear_3193_5409" x1="30.1037" y1="26.3909" x2="33.6814" y2="29.2637" gradientUnits="userSpaceOnUse">
<stop stop-color="#CCA087"/>
<stop offset="1" stop-color="white"/>
</linearGradient>
<linearGradient id="paint31_linear_3193_5409" x1="10.4613" y1="23.725" x2="9.37726" y2="25.9926" gradientUnits="userSpaceOnUse">
<stop stop-color="#CCA087"/>
<stop offset="1" stop-color="white"/>
</linearGradient>
<linearGradient id="paint32_linear_3193_5409" x1="15.6443" y1="24.4796" x2="12.0704" y2="28.2143" gradientUnits="userSpaceOnUse">
<stop stop-color="#CCA087"/>
<stop offset="1" stop-color="white"/>
</linearGradient>
<linearGradient id="paint33_linear_3193_5409" x1="19.3666" y1="26.7855" x2="19.8148" y2="29.689" gradientUnits="userSpaceOnUse">
<stop stop-color="#CCA087"/>
<stop offset="1" stop-color="white"/>
</linearGradient>
<linearGradient id="paint34_linear_3193_5409" x1="33.4282" y1="19.1819" x2="37.7567" y2="18.661" gradientUnits="userSpaceOnUse">
<stop stop-color="#CCA087"/>
<stop offset="1" stop-color="white"/>
</linearGradient>
<linearGradient id="paint35_linear_3193_5409" x1="43.9472" y1="17.7647" x2="34.4974" y2="19.4884" gradientUnits="userSpaceOnUse">
<stop stop-color="#FF7E21"/>
<stop offset="1"/>
</linearGradient>
<linearGradient id="paint36_linear_3193_5409" x1="24.1509" y1="18.4274" x2="25.8823" y2="21.6641" gradientUnits="userSpaceOnUse">
<stop stop-color="#CCA087"/>
<stop offset="1" stop-color="white"/>
</linearGradient>
<linearGradient id="paint37_linear_3193_5409" x1="31.9344" y1="24.085" x2="25.6792" y2="21.5952" gradientUnits="userSpaceOnUse">
<stop stop-color="#FF7E21"/>
<stop offset="1"/>
</linearGradient>
<linearGradient id="paint38_linear_3193_5409" x1="1.96905" y1="18.3162" x2="11.6065" y2="23.1694" gradientUnits="userSpaceOnUse">
<stop stop-color="#FF7E21"/>
<stop offset="1"/>
</linearGradient>
<linearGradient id="paint39_linear_3193_5409" x1="14.5372" y1="20.8483" x2="6.20209" y2="21.9745" gradientUnits="userSpaceOnUse">
<stop stop-color="#CCA087"/>
<stop offset="1" stop-color="white"/>
</linearGradient>
<linearGradient id="paint40_linear_3193_5409" x1="17.249" y1="18.1209" x2="17.1111" y2="22.0548" gradientUnits="userSpaceOnUse">
<stop stop-color="#CCA087"/>
<stop offset="1" stop-color="white"/>
</linearGradient>
<linearGradient id="paint41_linear_3193_5409" x1="21.4396" y1="23.3266" x2="16.843" y2="21.4765" gradientUnits="userSpaceOnUse">
<stop stop-color="#FF7E21"/>
<stop offset="1"/>
</linearGradient>
<linearGradient id="paint42_linear_3193_5409" x1="19.8884" y1="18.6036" x2="22.2097" y2="21.4113" gradientUnits="userSpaceOnUse">
<stop stop-color="#CCA087"/>
<stop offset="1" stop-color="white"/>
</linearGradient>
<linearGradient id="paint43_linear_3193_5409" x1="24.7295" y1="21.6297" x2="21.1557" y2="21.8863" gradientUnits="userSpaceOnUse">
<stop stop-color="#FF7E21"/>
<stop offset="1"/>
</linearGradient>
<linearGradient id="paint44_linear_3193_5409" x1="28.3417" y1="22.143" x2="35.6924" y2="22.143" gradientUnits="userSpaceOnUse">
<stop stop-color="#CCA087"/>
<stop offset="1" stop-color="white"/>
</linearGradient>
<linearGradient id="paint45_linear_3193_5409" x1="37.3205" y1="25.3337" x2="33.9037" y2="23.7364" gradientUnits="userSpaceOnUse">
<stop stop-color="#FF7E21"/>
<stop offset="1"/>
</linearGradient>
<linearGradient id="paint46_linear_3193_5409" x1="22.2511" y1="37.9091" x2="22.6341" y2="32.6729" gradientUnits="userSpaceOnUse">
<stop stop-color="#FF7E21"/>
<stop offset="1"/>
</linearGradient>
<linearGradient id="paint47_linear_3193_5409" x1="21.2442" y1="21.9208" x2="22.2669" y2="11.4521" gradientUnits="userSpaceOnUse">
<stop stop-color="#FF7E21"/>
<stop offset="1"/>
</linearGradient>
<linearGradient id="paint48_linear_3193_5409" x1="8.54643" y1="14.5127" x2="44.4149" y2="24.4796" gradientUnits="userSpaceOnUse">
<stop stop-color="#CCA087"/>
<stop offset="1" stop-color="white"/>
</linearGradient>
<radialGradient id="paint49_radial_3193_5409" cx="0" cy="0" r="1" gradientUnits="userSpaceOnUse" gradientTransform="translate(22.6742 17.1811) rotate(-0.12) scale(20.8059 2.98133)">
<stop stop-color="#B29C71"/>
<stop offset="0.54" stop-color="#382B11"/>
<stop offset="0.72" stop-color="#1A1408"/>
<stop offset="1"/>
</radialGradient>
<radialGradient id="paint50_radial_3193_5409" cx="0" cy="0" r="1" gradientUnits="userSpaceOnUse" gradientTransform="translate(21.0633 6.4416) rotate(-2.4) scale(20.8059 6.23754)">
<stop stop-color="#B29C71"/>
<stop offset="0.54" stop-color="#382B11"/>
<stop offset="0.72" stop-color="#1A1408"/>
<stop offset="1"/>
</radialGradient>
<radialGradient id="paint51_radial_3193_5409" cx="0" cy="0" r="1" gradientUnits="userSpaceOnUse" gradientTransform="translate(20.2482 34.0936) rotate(4.73) scale(10.6947 3.32485)">
<stop stop-color="#B29C71"/>
<stop offset="0.54" stop-color="#382B11"/>
<stop offset="0.72" stop-color="#1A1408"/>
<stop offset="1"/>
</radialGradient>
<radialGradient id="paint52_radial_3193_5409" cx="0" cy="0" r="1" gradientUnits="userSpaceOnUse" gradientTransform="translate(31.57 31.4151) rotate(28.37) scale(1.95611 3.56134)">
<stop stop-color="#C4AC7D"/>
<stop offset="1" stop-color="white"/>
</radialGradient>
<radialGradient id="paint53_radial_3193_5409" cx="0" cy="0" r="1" gradientUnits="userSpaceOnUse" gradientTransform="translate(19.592 25.4543) rotate(-4.37) scale(5.44233 1.19633)">
<stop stop-color="#C46025"/>
<stop offset="0.54" stop-color="#382B11"/>
<stop offset="0.72" stop-color="#1A1408"/>
<stop offset="1"/>
</radialGradient>
<radialGradient id="paint54_radial_3193_5409" cx="0" cy="0" r="1" gradientUnits="userSpaceOnUse" gradientTransform="translate(30.0014 25.3746) rotate(-4.37) scale(3.68706 1.68663)">
<stop stop-color="#C46025"/>
<stop offset="0.54" stop-color="#382B11"/>
<stop offset="0.72" stop-color="#1A1408"/>
<stop offset="1"/>
</radialGradient>
<radialGradient id="paint55_radial_3193_5409" cx="0" cy="0" r="1" gradientUnits="userSpaceOnUse" gradientTransform="translate(14.8441 30.6692) rotate(4.73) scale(3.85008 1.19695)">
<stop stop-color="#B29C71"/>
<stop offset="0.54" stop-color="#382B11"/>
<stop offset="0.72" stop-color="#1A1408"/>
<stop offset="1"/>
</radialGradient>
<radialGradient id="paint56_radial_3193_5409" cx="0" cy="0" r="1" gradientUnits="userSpaceOnUse" gradientTransform="translate(19.3847 31.3175) rotate(6.32) scale(2.7004 0.839524)">
<stop stop-color="#B29C71"/>
<stop offset="0.54" stop-color="#382B11"/>
<stop offset="0.72" stop-color="#1A1408"/>
<stop offset="1"/>
</radialGradient>
<radialGradient id="paint57_radial_3193_5409" cx="0" cy="0" r="1" gradientUnits="userSpaceOnUse" gradientTransform="translate(32.8367 17.9166) rotate(-2.89) scale(3.19174 0.839524)">
<stop stop-color="#B29C71"/>
<stop offset="0.54" stop-color="#382B11"/>
<stop offset="0.72" stop-color="#1A1408"/>
<stop offset="1"/>
</radialGradient>
<radialGradient id="paint58_radial_3193_5409" cx="0" cy="0" r="1" gradientUnits="userSpaceOnUse" gradientTransform="translate(25.8596 31.731) rotate(6.32) scale(3.10145 0.830905)">
<stop stop-color="#B29C71"/>
<stop offset="0.54" stop-color="#382B11"/>
<stop offset="0.72" stop-color="#1A1408"/>
<stop offset="1"/>
</radialGradient>
<radialGradient id="paint59_radial_3193_5409" cx="0" cy="0" r="1" gradientUnits="userSpaceOnUse" gradientTransform="translate(31.6823 26.7106) rotate(3.73) scale(3.10146 0.830905)">
<stop stop-color="#B29C71"/>
<stop offset="0.54" stop-color="#382B11"/>
<stop offset="0.72" stop-color="#1A1408"/>
<stop offset="1"/>
</radialGradient>
<radialGradient id="paint60_radial_3193_5409" cx="0" cy="0" r="1" gradientUnits="userSpaceOnUse" gradientTransform="translate(26.5388 27.1145) rotate(11.84) scale(2.1122 0.565875)">
<stop stop-color="#B29C71"/>
<stop offset="0.54" stop-color="#382B11"/>
<stop offset="0.72" stop-color="#1A1408"/>
<stop offset="1"/>
</radialGradient>
<radialGradient id="paint61_radial_3193_5409" cx="0" cy="0" r="1" gradientUnits="userSpaceOnUse" gradientTransform="translate(20.3375 26.8561) rotate(-4.23) scale(2.71439 0.565876)">
<stop stop-color="#B29C71"/>
<stop offset="0.54" stop-color="#382B11"/>
<stop offset="0.72" stop-color="#1A1408"/>
<stop offset="1"/>
</radialGradient>
<radialGradient id="paint62_radial_3193_5409" cx="0" cy="0" r="1" gradientUnits="userSpaceOnUse" gradientTransform="translate(11.9297 17.7028) rotate(17.45) scale(3.10146 0.964206)">
<stop stop-color="#B29C71"/>
<stop offset="0.54" stop-color="#382B11"/>
<stop offset="0.72" stop-color="#1A1408"/>
<stop offset="1"/>
</radialGradient>
<radialGradient id="paint63_radial_3193_5409" cx="0" cy="0" r="1" gradientUnits="userSpaceOnUse" gradientTransform="translate(23.4186 18.7926) rotate(9.71) scale(4.07455 1.07085)">
<stop stop-color="#B29C71"/>
<stop offset="0.54" stop-color="#382B11"/>
<stop offset="0.72" stop-color="#1A1408"/>
<stop offset="1"/>
</radialGradient>
</defs>
</svg>
