<svg width="28" height="36" viewBox="0 0 28 36" fill="none" xmlns="http://www.w3.org/2000/svg">
<path d="M27.1678 11.1116V12.1479C27.1678 12.1479 25.6809 15.0959 24.6736 17.2779C24.6736 17.2779 24.3646 17.3713 23.7725 17.5032C25.4203 13.7603 27.1678 11.1116 27.1678 11.1116Z" fill="#A85A04"/>
<path style="mix-blend-mode:screen" d="M27.1678 11.1116V12.1479C27.1678 12.1479 25.6809 15.0959 24.6736 17.2779C24.6736 17.2779 24.3646 17.3713 23.7725 17.5032C25.4203 13.7603 27.1678 11.1116 27.1678 11.1116Z" fill="url(#paint0_linear_3193_5662)"/>
<path d="M25.987 9.97229L27.1681 11.1116C27.1681 11.1116 25.4206 13.7603 23.7728 17.5032C23.3705 17.5966 22.8362 17.706 22.1797 17.8186C22.2859 17.4453 22.4018 17.0494 22.5241 16.6472C22.5241 16.6472 24.5387 11.9451 25.987 9.97229Z" fill="#EEAE11"/>
<path style="mix-blend-mode:multiply" d="M25.987 9.97229L27.1681 11.1116C27.1681 11.1116 25.4206 13.7603 23.7728 17.5032C23.3705 17.5966 22.8362 17.706 22.1797 17.8186C22.2859 17.4453 22.4018 17.0494 22.5241 16.6472C22.5241 16.6472 24.5387 11.9451 25.987 9.97229Z" fill="url(#paint1_linear_3193_5662)"/>
<path d="M24.9696 8.80412L24.6735 9.97239L23.251 9.10665L23.3057 7.94482C24.3259 8.10574 24.9696 8.80412 24.9696 8.80412Z" fill="#FFBD29"/>
<path style="mix-blend-mode:multiply" d="M24.9696 8.80412L24.6735 9.97239L23.251 9.10665L23.3057 7.94482C24.3259 8.10574 24.9696 8.80412 24.9696 8.80412Z" fill="url(#paint2_linear_3193_5662)"/>
<path d="M23.2519 9.10657L24.6744 9.9723C24.6744 9.9723 23.4418 13.5897 22.5245 16.6472C22.4022 17.0495 22.2864 17.4453 22.1802 17.8186C21.6105 17.9184 20.9508 18.0214 20.2041 18.1147C20.2041 18.1147 22.3958 11.3401 23.2519 9.10657Z" fill="#DC9017"/>
<path style="mix-blend-mode:screen" d="M23.2519 9.10657L24.6744 9.9723C24.6744 9.9723 23.4418 13.5897 22.5245 16.6472C22.4022 17.0495 22.2864 17.4453 22.1802 17.8186C21.6105 17.9184 20.9508 18.0214 20.2041 18.1147C20.2041 18.1147 22.3958 11.3401 23.2519 9.10657Z" fill="url(#paint3_linear_3193_5662)"/>
<path d="M18.2954 18.3143C18.4596 18.3015 18.6205 18.2854 18.7782 18.2725C19.0292 18.2467 19.2706 18.221 19.5055 18.1985C19.7469 18.1695 19.9786 18.1438 20.2039 18.1148C20.9506 18.0215 21.6103 17.9185 22.18 17.8187C22.8365 17.7061 23.3708 17.5966 23.7731 17.5033C24.3653 17.3713 24.6742 17.278 24.6742 17.278C23.7087 28.3813 22.6628 33.4502 22.6628 33.4502C22.6628 33.4502 22.0931 33.8815 21.0504 34.3675C21.3239 32.8291 22.18 26.6434 22.8719 19.3313C21.9869 19.4922 20.8573 19.6693 19.5055 19.8141C19.5055 19.8141 19.5055 19.8141 19.5055 19.8173C19.1387 19.8527 18.7589 19.8913 18.3598 19.9235C17.449 21.3814 16.0844 22.1989 14.5042 22.1989C12.924 22.1989 11.4017 21.317 10.6261 20.0426C10.227 20.0233 9.82797 20.0007 9.42567 19.9686C8.31212 19.8945 7.18891 19.7883 6.06893 19.6499C6.53881 22.6301 8.01603 30.1933 9.25832 34.6925C8.03856 34.2259 7.37558 33.7721 7.37558 33.7721C5.44457 27.094 4.15723 17.7608 4.15723 17.7608C4.80733 17.8605 5.44457 17.9507 6.06893 18.0311C6.3103 18.0601 6.54846 18.089 6.7834 18.1148C6.90892 18.1277 7.03443 18.1438 7.15995 18.1566C7.62661 18.2049 8.08683 18.25 8.5374 18.2854C8.70154 18.3015 8.86568 18.3175 9.02659 18.3272C9.61877 18.3755 10.1981 18.4109 10.7613 18.4366C10.9222 18.4463 11.0799 18.4527 11.2376 18.4592L11.7204 18.4785C11.804 18.9419 12.0583 19.3764 12.4187 19.724C12.6633 19.9686 12.9594 20.1713 13.2845 20.3194C13.6514 20.4867 14.0569 20.5833 14.472 20.5897C14.7263 20.5897 14.987 20.5607 15.2412 20.4867C15.7015 20.3548 16.1488 20.0909 16.5447 19.6628C16.8504 19.3378 17.124 18.9162 17.3525 18.3883C17.6775 18.3658 17.9897 18.3433 18.2954 18.3143Z" fill="#AE0F00"/>
<path style="mix-blend-mode:screen" d="M18.2954 18.3143C18.4596 18.3015 18.6205 18.2854 18.7782 18.2725C19.0292 18.2467 19.2706 18.221 19.5055 18.1985C19.7469 18.1695 19.9786 18.1438 20.2039 18.1148C20.9506 18.0215 21.6103 17.9185 22.18 17.8187C22.8365 17.7061 23.3708 17.5966 23.7731 17.5033C24.3653 17.3713 24.6742 17.278 24.6742 17.278C23.7087 28.3813 22.6628 33.4502 22.6628 33.4502C22.6628 33.4502 22.0931 33.8815 21.0504 34.3675C21.3239 32.8291 22.18 26.6434 22.8719 19.3313C21.9869 19.4922 20.8573 19.6693 19.5055 19.8141C19.5055 19.8141 19.5055 19.8141 19.5055 19.8173C19.1387 19.8527 18.7589 19.8913 18.3598 19.9235C17.449 21.3814 16.0844 22.1989 14.5042 22.1989C12.924 22.1989 11.4017 21.317 10.6261 20.0426C10.227 20.0233 9.82797 20.0007 9.42567 19.9686C8.31212 19.8945 7.18891 19.7883 6.06893 19.6499C6.53881 22.6301 8.01603 30.1933 9.25832 34.6925C8.03856 34.2259 7.37558 33.7721 7.37558 33.7721C5.44457 27.094 4.15723 17.7608 4.15723 17.7608C4.80733 17.8605 5.44457 17.9507 6.06893 18.0311C6.3103 18.0601 6.54846 18.089 6.7834 18.1148C6.90892 18.1277 7.03443 18.1438 7.15995 18.1566C7.62661 18.2049 8.08683 18.25 8.5374 18.2854C8.70154 18.3015 8.86568 18.3175 9.02659 18.3272C9.61877 18.3755 10.1981 18.4109 10.7613 18.4366C10.9222 18.4463 11.0799 18.4527 11.2376 18.4592L11.7204 18.4785C11.804 18.9419 12.0583 19.3764 12.4187 19.724C12.6633 19.9686 12.9594 20.1713 13.2845 20.3194C13.6514 20.4867 14.0569 20.5833 14.472 20.5897C14.7263 20.5897 14.987 20.5607 15.2412 20.4867C15.7015 20.3548 16.1488 20.0909 16.5447 19.6628C16.8504 19.3378 17.124 18.9162 17.3525 18.3883C17.6775 18.3658 17.9897 18.3433 18.2954 18.3143Z" fill="url(#paint4_linear_3193_5662)"/>
<path d="M23.7725 3.88007V5.85292C23.7725 5.85292 23.3767 6.82808 22.6944 9.49931C22.0443 11.1664 20.9661 13.9986 19.8848 17.0914C21.3491 11.9163 23.7725 3.88007 23.7725 3.88007Z" fill="#A85A04"/>
<path style="mix-blend-mode:screen" d="M23.7725 3.88007V5.85292C23.7725 5.85292 23.3767 6.82808 22.6944 9.49931C22.0443 11.1664 20.9661 13.9986 19.8848 17.0914C21.3491 11.9163 23.7725 3.88007 23.7725 3.88007Z" fill="url(#paint5_linear_3193_5662)"/>
<path d="M22.0739 3.03687L23.7732 3.88007C23.7732 3.88007 21.3498 11.9163 19.8854 17.0914C19.7599 17.4551 19.6312 17.8252 19.5057 18.1953C19.2707 18.221 19.0294 18.2468 18.7783 18.2725C18.9199 16.4477 19.2739 13.8859 19.2739 13.8859C19.6505 13.2294 19.8854 12.811 19.8854 12.811C19.8854 12.811 20.1268 12.4892 19.8854 12.1673C19.8275 12.0869 19.6859 12.0064 19.5057 11.9292L19.7631 9.49932C19.7631 9.49932 19.7631 9.4961 19.7631 9.48644C19.8436 9.22897 21.1342 5.08696 22.0707 3.03687H22.0739Z" fill="#EEAE11"/>
<path style="mix-blend-mode:multiply" d="M22.0739 3.03687L23.7732 3.88007C23.7732 3.88007 21.3498 11.9163 19.8854 17.0914C19.7599 17.4551 19.6312 17.8252 19.5057 18.1953C19.2707 18.221 19.0294 18.2468 18.7783 18.2725C18.9199 16.4477 19.2739 13.8859 19.2739 13.8859C19.6505 13.2294 19.8854 12.811 19.8854 12.811C19.8854 12.811 20.1268 12.4892 19.8854 12.1673C19.8275 12.0869 19.6859 12.0064 19.5057 11.9292L19.7631 9.49932C19.7631 9.49932 19.7631 9.4961 19.7631 9.48644C19.8436 9.22897 21.1342 5.08696 22.0707 3.03687H22.0739Z" fill="url(#paint6_linear_3193_5662)"/>
<path d="M23.3058 7.94482L23.251 9.10665C22.395 11.3402 20.2033 18.1148 20.2033 18.1148C19.978 18.1438 19.7463 18.1695 19.5049 18.1985C19.6304 17.8252 19.7591 17.4551 19.8847 17.0914C20.966 13.9985 22.0442 11.1664 22.6943 9.49929C23.074 8.52413 23.3058 7.94482 23.3058 7.94482Z" fill="#A85A04"/>
<path style="mix-blend-mode:screen" d="M23.3058 7.94482L23.251 9.10665C22.395 11.3402 20.2033 18.1148 20.2033 18.1148C19.978 18.1438 19.7463 18.1695 19.5049 18.1985C19.6304 17.8252 19.7591 17.4551 19.8847 17.0914C20.966 13.9985 22.0442 11.1664 22.6943 9.49929C23.074 8.52413 23.3058 7.94482 23.3058 7.94482Z" fill="url(#paint7_linear_3193_5662)"/>
<path d="M22.8716 19.3314C22.1796 26.6435 21.3236 32.8291 21.05 34.3675C20.2905 34.7247 19.2767 35.1077 18.0537 35.3716C18.588 30.7758 19.4151 20.0684 19.5052 19.8173C19.5052 19.8141 19.5052 19.8141 19.5052 19.8141C20.8569 19.6693 21.9865 19.4923 22.8716 19.3314Z" fill="#D3392B"/>
<path style="mix-blend-mode:screen" d="M22.8716 19.3314C22.1796 26.6435 21.3236 32.8291 21.05 34.3675C20.2905 34.7247 19.2767 35.1077 18.0537 35.3716C18.588 30.7758 19.4151 20.0684 19.5052 19.8173C19.5052 19.8141 19.5052 19.8141 19.5052 19.8141C20.8569 19.6693 21.9865 19.4923 22.8716 19.3314Z" fill="url(#paint8_linear_3193_5662)"/>
<path d="M19.885 12.1672C20.1263 12.4891 19.885 12.8109 19.885 12.8109L19.1769 12.6113L18.0537 11.4849C18.0537 11.4849 18.5461 11.5976 19.0224 11.7488C19.193 11.8035 19.3604 11.8647 19.5052 11.9291C19.6854 12.0063 19.827 12.0868 19.885 12.1672Z" fill="#FFBD29"/>
<path style="mix-blend-mode:multiply" d="M19.885 12.1672C20.1263 12.4891 19.885 12.8109 19.885 12.8109L19.1769 12.6113L18.0537 11.4849C18.0537 11.4849 18.5461 11.5976 19.0224 11.7488C19.193 11.8035 19.3604 11.8647 19.5052 11.9291C19.6854 12.0063 19.827 12.0868 19.885 12.1672Z" fill="url(#paint9_linear_3193_5662)"/>
<path d="M19.8849 3.19758C19.8849 3.19758 19.975 5.41825 19.6886 7.68718L19.5051 7.06926C19.3442 6.8826 18.9065 6.81179 18.5332 6.82788C18.913 4.38515 18.7778 1.42749 18.7778 1.42749C18.7778 1.42749 19.4826 2.47345 19.8849 3.19758Z" fill="#A85A04"/>
<path style="mix-blend-mode:screen" d="M19.8849 3.19758C19.8849 3.19758 19.975 5.41825 19.6886 7.68718L19.5051 7.06926C19.3442 6.8826 18.9065 6.81179 18.5332 6.82788C18.913 4.38515 18.7778 1.42749 18.7778 1.42749C18.7778 1.42749 19.4826 2.47345 19.8849 3.19758Z" fill="url(#paint10_linear_3193_5662)"/>
<path d="M19.6884 7.68726L19.8847 8.34702L19.7656 9.48632V9.49919L19.5081 11.929C19.3633 11.8647 19.196 11.8035 19.0254 11.752L19.5081 7.06934L19.6916 7.68726H19.6884Z" fill="#A85A04"/>
<path style="mix-blend-mode:screen" d="M19.6884 7.68726L19.8847 8.34702L19.7656 9.48632V9.49919L19.5081 11.929C19.3633 11.8647 19.196 11.8035 19.0254 11.752L19.5081 7.06934L19.6916 7.68726H19.6884Z" fill="url(#paint11_linear_3193_5662)"/>
<path d="M19.1769 12.6114L19.885 12.8109C19.885 12.8109 19.65 13.2293 19.2735 13.8859C19.1093 14.1723 18.9194 14.5038 18.7102 14.8642C18.147 15.8297 17.4519 17.0109 16.7728 18.1148C16.2225 19.0095 15.6882 19.8495 15.2409 20.4835C14.9866 20.5607 14.7259 20.5929 14.4717 20.5897C16.6827 16.3865 19.1769 12.6114 19.1769 12.6114Z" fill="#A85A04"/>
<path style="mix-blend-mode:screen" d="M19.1769 12.6114L19.885 12.8109C19.885 12.8109 19.65 13.2293 19.2735 13.8859C19.1093 14.1723 18.9194 14.5038 18.7102 14.8642C18.147 15.8297 17.4519 17.0109 16.7728 18.1148C16.2225 19.0095 15.6882 19.8495 15.2409 20.4835C14.9866 20.5607 14.7259 20.5929 14.4717 20.5897C16.6827 16.3865 19.1769 12.6114 19.1769 12.6114Z" fill="url(#paint12_linear_3193_5662)"/>
<path d="M18.5332 6.82784C18.9065 6.81174 19.3442 6.88255 19.5051 7.06921L19.0224 11.7487C18.5461 11.5974 18.0537 11.4848 18.0537 11.4848C17.6482 12.0609 17.2459 12.6852 16.8564 13.3289C17.3295 11.9547 17.5645 9.51194 17.5645 9.51194C17.5645 9.51194 17.9153 7.35886 17.9153 7.06921C17.9153 6.93082 18.2017 6.84393 18.5332 6.82784Z" fill="#EEAE11"/>
<path style="mix-blend-mode:screen" d="M18.5332 6.82784C18.9065 6.81174 19.3442 6.88255 19.5051 7.06921L19.0224 11.7487C18.5461 11.5974 18.0537 11.4848 18.0537 11.4848C17.6482 12.0609 17.2459 12.6852 16.8564 13.3289C17.3295 11.9547 17.5645 9.51194 17.5645 9.51194C17.5645 9.51194 17.9153 7.35886 17.9153 7.06921C17.9153 6.93082 18.2017 6.84393 18.5332 6.82784Z" fill="url(#paint13_linear_3193_5662)"/>
<path d="M18.0538 11.4849L19.177 12.6113C19.177 12.6113 16.6828 16.3865 14.4718 20.5864C14.0566 20.5864 13.6511 20.4867 13.2842 20.3193C13.2842 20.3193 13.5481 19.7014 13.9954 18.7552C14.2014 18.3175 14.446 17.809 14.7196 17.2554C15.0285 16.6343 15.3793 15.9584 15.7527 15.2665C16.1002 14.6228 16.4736 13.9663 16.8566 13.329C17.246 12.6854 17.6483 12.061 18.0538 11.4849Z" fill="#DC9017"/>
<path style="mix-blend-mode:screen" d="M18.0538 11.4849L19.177 12.6113C19.177 12.6113 16.6828 16.3865 14.4718 20.5864C14.0566 20.5864 13.6511 20.4867 13.2842 20.3193C13.2842 20.3193 13.5481 19.7014 13.9954 18.7552C14.2014 18.3175 14.446 17.809 14.7196 17.2554C15.0285 16.6343 15.3793 15.9584 15.7527 15.2665C16.1002 14.6228 16.4736 13.9663 16.8566 13.329C17.246 12.6854 17.6483 12.061 18.0538 11.4849Z" fill="url(#paint14_linear_3193_5662)"/>
<path d="M19.2733 13.8858C19.2733 13.8858 18.9193 16.4476 18.7777 18.2724C18.62 18.2853 18.4591 18.3014 18.2949 18.3143L18.7101 14.8642C18.9193 14.5037 19.1092 14.1722 19.2733 13.8858Z" fill="#A85A04"/>
<path d="M19.5052 19.8173C19.4151 20.0684 18.588 30.7758 18.0537 35.3716C17.1301 35.5712 16.0873 35.7031 14.9384 35.7031C14.7775 29.9358 14.5039 22.1989 14.5039 22.1989C16.0841 22.1989 17.4487 21.3814 18.3595 19.9235C18.7586 19.8913 19.1383 19.8527 19.5052 19.8173Z" fill="#FFC55F"/>
<path style="mix-blend-mode:screen" d="M19.5052 19.8173C19.4151 20.0684 18.588 30.7758 18.0537 35.3716C17.1301 35.5712 16.0873 35.7031 14.9384 35.7031C14.7775 29.9358 14.5039 22.1989 14.5039 22.1989C16.0841 22.1989 17.4487 21.3814 18.3595 19.9235C18.7586 19.8913 19.1383 19.8527 19.5052 19.8173Z" fill="url(#paint15_linear_3193_5662)"/>
<path d="M18.7778 1.42749C18.7778 1.42749 18.913 4.38516 18.5332 6.82788C18.2018 6.84398 17.9153 6.93087 17.9153 7.06926C17.9153 7.35891 17.5645 9.51199 17.5645 9.51199L17.1976 8.91016L17.1912 8.89728C17.1654 8.86188 17.1075 8.83935 17.0303 8.82326C17.0303 8.82326 17.6546 3.79942 17.5645 2.47345C17.5645 2.47345 18.3562 1.78795 18.7778 1.42749Z" fill="#DC9017"/>
<path style="mix-blend-mode:screen" d="M18.7778 1.42749C18.7778 1.42749 18.913 4.38516 18.5332 6.82788C18.2018 6.84398 17.9153 6.93087 17.9153 7.06926C17.9153 7.35891 17.5645 9.51199 17.5645 9.51199L17.1976 8.91016L17.1912 8.89728C17.1654 8.86188 17.1075 8.83935 17.0303 8.82326C17.0303 8.82326 17.6546 3.79942 17.5645 2.47345C17.5645 2.47345 18.3562 1.78795 18.7778 1.42749Z" fill="url(#paint16_linear_3193_5662)"/>
<path d="M18.7099 14.8644L18.2947 18.3145C17.989 18.3434 17.6768 18.3659 17.3517 18.3885C17.1232 18.9163 16.8497 19.3379 16.5439 19.6629L16.7724 18.1149C17.4515 17.011 18.1467 15.8299 18.7099 14.8644Z" fill="#EEAE11"/>
<path style="mix-blend-mode:multiply" d="M18.7099 14.8644L18.2947 18.3145C17.989 18.3434 17.6768 18.3659 17.3517 18.3885C17.1232 18.9163 16.8497 19.3379 16.5439 19.6629L16.7724 18.1149C17.4515 17.011 18.1467 15.8299 18.7099 14.8644Z" fill="url(#paint17_linear_3193_5662)"/>
<path d="M17.198 8.91034L17.5649 9.51217C17.5649 9.51217 17.3299 11.9549 16.8568 13.3291C16.4738 13.9664 16.1005 14.6229 15.7529 15.2666C16.2357 13.725 17.3171 9.26114 17.198 8.91034Z" fill="#A85A04"/>
<path style="mix-blend-mode:screen" d="M17.198 8.91034L17.5649 9.51217C17.5649 9.51217 17.3299 11.9549 16.8568 13.3291C16.4738 13.9664 16.1005 14.6229 15.7529 15.2666C16.2357 13.725 17.3171 9.26114 17.198 8.91034Z" fill="url(#paint18_linear_3193_5662)"/>
<path d="M16.5537 8.81045C16.7339 8.79757 16.9077 8.80079 17.03 8.82332C17.1072 8.83941 17.1652 8.86194 17.1909 8.89734L17.1973 8.91022C17.3164 9.26102 16.2351 13.7249 15.7523 15.2665C15.379 15.9584 15.0282 16.6343 14.7192 17.2554V14.8642L14.1914 14.037C14.1914 14.037 14.2493 13.8407 14.3427 13.5221C14.3427 13.5157 14.3459 13.5092 14.3459 13.5028C14.6838 12.3635 15.4691 9.7309 15.7813 8.89734C15.7813 8.89734 16.1771 8.82976 16.5537 8.81045Z" fill="#EEAE11"/>
<path style="mix-blend-mode:multiply" d="M16.5537 8.81045C16.7339 8.79757 16.9077 8.80079 17.03 8.82332C17.1072 8.83941 17.1652 8.86194 17.1909 8.89734L17.1973 8.91022C17.3164 9.26102 16.2351 13.7249 15.7523 15.2665C15.379 15.9584 15.0282 16.6343 14.7192 17.2554V14.8642L14.1914 14.037C14.1914 14.037 14.2493 13.8407 14.3427 13.5221C14.3427 13.5157 14.3459 13.5092 14.3459 13.5028C14.6838 12.3635 15.4691 9.7309 15.7813 8.89734C15.7813 8.89734 16.1771 8.82976 16.5537 8.81045Z" fill="url(#paint19_linear_3193_5662)"/>
<path d="M16.2294 4.72632L16.857 5.9332L16.5545 8.81041C16.1779 8.82972 15.7821 8.8973 15.7821 8.8973C15.4699 9.73086 14.6846 12.3635 14.3467 13.5028C15.2414 9.9497 16.2294 4.72632 16.2294 4.72632Z" fill="#A85A04"/>
<path style="mix-blend-mode:screen" d="M16.2294 4.72632L16.857 5.9332L16.5545 8.81041C16.1779 8.82972 15.7821 8.8973 15.7821 8.8973C15.4699 9.73086 14.6846 12.3635 14.3467 13.5028C15.2414 9.9497 16.2294 4.72632 16.2294 4.72632Z" fill="url(#paint20_linear_3193_5662)"/>
<path d="M16.7731 18.1148L16.5446 19.6628C16.1488 20.0909 15.7014 20.3548 15.2412 20.4867C15.6886 19.8495 16.2228 19.0095 16.7731 18.1148Z" fill="#DC9017"/>
<path d="M15.5435 4.7038C15.7108 4.69093 15.9136 4.68449 16.0648 4.70059C16.1356 4.7038 16.1936 4.71024 16.229 4.72633C16.229 4.72633 15.2409 9.94972 14.3462 13.5028C14.3462 13.5092 14.343 13.5157 14.343 13.5221C14.2497 13.8407 14.1918 14.037 14.1918 14.037L13.2842 12.6113C13.2842 12.6113 14.7003 6.69596 15.2409 4.72633C15.2409 4.72633 15.3729 4.71346 15.5435 4.7038Z" fill="#EEAE11"/>
<path style="mix-blend-mode:screen" d="M15.5435 4.7038C15.7108 4.69093 15.9136 4.68449 16.0648 4.70059C16.1356 4.7038 16.1936 4.71024 16.229 4.72633C16.229 4.72633 15.2409 9.94972 14.3462 13.5028C14.3462 13.5092 14.343 13.5157 14.343 13.5221C14.2497 13.8407 14.1918 14.037 14.1918 14.037L13.2842 12.6113C13.2842 12.6113 14.7003 6.69596 15.2409 4.72633C15.2409 4.72633 15.3729 4.71346 15.5435 4.7038Z" fill="url(#paint21_linear_3193_5662)"/>
<path d="M16.0653 3.92191V4.70075C15.9141 4.68466 15.7113 4.6911 15.5439 4.70397L15.7016 3.03687L16.0653 3.92191Z" fill="#A85A04"/>
<path d="M14.1886 2.87576C14.5877 2.75668 15.476 2.91116 15.7012 3.03667L15.5435 4.70378C15.373 4.71344 15.241 4.72631 15.241 4.72631C14.7003 6.69594 13.2842 12.6113 13.2842 12.6113L12.6084 12.5405C12.6084 12.5405 13.1008 9.14511 13.5031 6.3902C13.7348 4.79389 13.9376 3.41644 13.9955 3.03667C14.0084 2.95943 14.0792 2.90794 14.1886 2.87576Z" fill="#DC9017"/>
<path d="M14.7193 14.8644V17.2556C14.4458 17.8092 14.2012 18.3177 13.9952 18.7554C14.0048 17.3232 13.9727 15.2667 13.9727 15.2667L14.7193 14.8644Z" fill="#A85A04"/>
<path style="mix-blend-mode:screen" d="M14.7193 14.8644V17.2556C14.4458 17.8092 14.2012 18.3177 13.9952 18.7554C14.0048 17.3232 13.9727 15.2667 13.9727 15.2667L14.7193 14.8644Z" fill="url(#paint22_linear_3193_5662)"/>
<path d="M14.1919 14.0371L14.7197 14.8642L13.973 15.2665C13.7059 14.5456 12.2705 12.5052 12.2705 12.5052L12.6084 12.5406L13.2843 12.6114L14.1919 14.0371Z" fill="#FFBD29"/>
<path style="mix-blend-mode:multiply" d="M14.1919 14.0371L14.7197 14.8642L13.973 15.2665C13.7059 14.5456 12.2705 12.5052 12.2705 12.5052L12.6084 12.5406L13.2843 12.6114L14.1919 14.0371Z" fill="url(#paint23_linear_3193_5662)"/>
<path d="M14.5043 22.199C14.5043 22.199 14.7779 29.9359 14.9388 35.7032C13.8896 35.7032 12.937 35.6099 12.0874 35.4619C11.1476 30.6472 9.42578 19.9719 9.42578 19.9719C9.82808 20.0009 10.2271 20.0234 10.6262 20.0427C11.4018 21.3172 12.9016 22.199 14.5043 22.199Z" fill="#D3392B"/>
<path style="mix-blend-mode:screen" d="M14.5043 22.199C14.5043 22.199 14.7779 29.9359 14.9388 35.7032C13.8896 35.7032 12.937 35.6099 12.0874 35.4619C11.1476 30.6472 9.42578 19.9719 9.42578 19.9719C9.82808 20.0009 10.2271 20.0234 10.6262 20.0427C11.4018 21.3172 12.9016 22.199 14.5043 22.199Z" fill="url(#paint24_linear_3193_5662)"/>
<path d="M14.1885 2.87571C14.0791 2.90789 14.0083 2.95939 13.9954 3.03663C13.9375 3.41639 13.7348 4.79385 13.503 6.38693C13.4805 3.14605 12.9591 0.43298 12.6309 0.384705C13.0718 0.41367 13.7219 0.774125 13.7219 0.774125C13.7219 0.774125 14.1435 1.68492 14.1885 2.87571Z" fill="#A85A04"/>
<path style="mix-blend-mode:screen" d="M14.1885 2.87571C14.0791 2.90789 14.0083 2.95939 13.9954 3.03663C13.9375 3.41639 13.7348 4.79385 13.503 6.38693C13.4805 3.14605 12.9591 0.43298 12.6309 0.384705C13.0718 0.41367 13.7219 0.774125 13.7219 0.774125C13.7219 0.774125 14.1435 1.68492 14.1885 2.87571Z" fill="url(#paint25_linear_3193_5662)"/>
<path d="M13.9728 15.2665C13.9728 15.2665 14.005 17.3231 13.9953 18.7552C13.548 19.7014 13.2841 20.3161 13.2841 20.3161C12.959 20.1713 12.6629 19.9685 12.4183 19.7272C12.4023 19.5341 11.9646 13.6702 12.2703 12.5052C12.2703 12.5052 13.7057 14.5456 13.9728 15.2665Z" fill="#EEAE11"/>
<path style="mix-blend-mode:multiply" d="M13.9728 15.2665C13.9728 15.2665 14.005 17.3231 13.9953 18.7552C13.548 19.7014 13.2841 20.3161 13.2841 20.3161C12.959 20.1713 12.6629 19.9685 12.4183 19.7272C12.4023 19.5341 11.9646 13.6702 12.2703 12.5052C12.2703 12.5052 13.7057 14.5456 13.9728 15.2665Z" fill="url(#paint26_linear_3193_5662)"/>
<path d="M13.5033 6.3871C13.101 9.14522 12.6086 12.5406 12.6086 12.5406L12.2706 12.5052C12.084 9.20637 11.8297 5.39906 11.6656 5.31539C11.6656 5.31539 11.4371 3.11725 11.2375 2.15175C11.0348 1.18624 12.2481 0.462112 12.6086 0.381653C12.615 0.381653 12.6246 0.381653 12.6311 0.381653C12.9593 0.429928 13.4807 3.143 13.5033 6.38388V6.3871Z" fill="#EEAE11"/>
<path style="mix-blend-mode:multiply" d="M13.5033 6.3871C13.101 9.14522 12.6086 12.5406 12.6086 12.5406L12.2706 12.5052C12.084 9.20637 11.8297 5.39906 11.6656 5.31539C11.6656 5.31539 11.4371 3.11725 11.2375 2.15175C11.0348 1.18624 12.2481 0.462112 12.6086 0.381653C12.615 0.381653 12.6246 0.381653 12.6311 0.381653C12.9593 0.429928 13.4807 3.143 13.5033 6.38388V6.3871Z" fill="url(#paint27_linear_3193_5662)"/>
<path d="M12.2704 12.5052C11.9646 13.6703 12.4023 19.5341 12.4184 19.724C12.058 19.3764 11.8037 18.9419 11.72 18.4785L11.2373 18.4592C10.7867 15.6978 9.89524 10.4648 9.89524 10.4648C9.89524 10.4648 9.48651 6.39037 9.42536 5.90762C9.40283 5.74348 9.63133 5.61153 9.94995 5.51176C10.5679 5.31544 11.5237 5.24464 11.6653 5.31544C11.8295 5.39912 12.0837 9.20643 12.2704 12.5052Z" fill="#DC9017"/>
<path style="mix-blend-mode:multiply" d="M12.2704 12.5052C11.9646 13.6703 12.4023 19.5341 12.4184 19.724C12.058 19.3764 11.8037 18.9419 11.72 18.4785L11.2373 18.4592C10.7867 15.6978 9.89524 10.4648 9.89524 10.4648C9.89524 10.4648 9.48651 6.39037 9.42536 5.90762C9.40283 5.74348 9.63133 5.61153 9.94995 5.51176C10.5679 5.31544 11.5237 5.24464 11.6653 5.31544C11.8295 5.39912 12.0837 9.20643 12.2704 12.5052Z" fill="url(#paint28_linear_3193_5662)"/>
<path style="mix-blend-mode:screen" d="M12.2704 12.5052C11.9646 13.6703 12.4023 19.5341 12.4184 19.724C12.058 19.3764 11.8037 18.9419 11.72 18.4785L11.2373 18.4592C10.7867 15.6978 9.89524 10.4648 9.89524 10.4648C9.89524 10.4648 9.48651 6.39037 9.42536 5.90762C9.40283 5.74348 9.63133 5.61153 9.94995 5.51176C10.5679 5.31544 11.5237 5.24464 11.6653 5.31544C11.8295 5.39912 12.0837 9.20643 12.2704 12.5052Z" fill="url(#paint29_linear_3193_5662)"/>
<path d="M11.2374 18.4591C11.0797 18.4526 10.922 18.4462 10.7611 18.4365C10.1753 15.3083 9.02637 9.74377 9.02637 9.74377L9.37395 10.0302L9.89532 10.4647C9.89532 10.4647 10.7868 15.6977 11.2374 18.4591Z" fill="#A85A04"/>
<path d="M9.4251 19.9718C9.4251 19.9718 11.1469 30.6471 12.0867 35.4617C10.9506 35.2654 10.0012 34.9758 9.25775 34.6925C8.01546 30.1933 6.53824 22.6302 6.06836 19.65C7.18835 19.7884 8.31155 19.8946 9.4251 19.9686V19.9718Z" fill="#FFC55F"/>
<path style="mix-blend-mode:screen" d="M12.3704 29.1667C10.4297 29.8716 8.58884 31.1589 7.1084 32.8131C7.19529 33.1382 7.28541 33.46 7.37552 33.7722C7.37552 33.7722 8.0385 34.226 9.25826 34.6927C10.0017 34.9759 10.9511 35.2655 12.0872 35.4618C12.9368 35.6099 13.8895 35.7032 14.9386 35.7032C16.0876 35.7032 17.1303 35.5713 18.054 35.3717C19.277 35.1078 20.2908 34.7248 21.0503 34.3676C22.093 33.8816 22.6627 33.4504 22.6627 33.4504C22.6627 33.4504 22.7818 32.8679 22.9781 31.6706C20.0816 29.0959 16.4577 27.8054 12.3704 29.1667Z" fill="url(#paint30_linear_3193_5662)"/>
<path d="M9.95044 5.50851C9.63182 5.6115 9.40332 5.74345 9.42585 5.90758C9.487 6.39034 9.89572 10.4648 9.89572 10.4648L9.37435 10.0303L9.42263 9.97236C9.33895 6.28413 8.37988 0.944885 8.37988 0.944885L9.42585 1.42764C9.42585 1.42764 9.74768 3.0336 9.95044 5.50851Z" fill="#A85A04"/>
<path style="mix-blend-mode:screen" d="M9.95044 5.50851C9.63182 5.6115 9.40332 5.74345 9.42585 5.90758C9.487 6.39034 9.89572 10.4648 9.89572 10.4648L9.37435 10.0303L9.42263 9.97236C9.33895 6.28413 8.37988 0.944885 8.37988 0.944885L9.42585 1.42764C9.42585 1.42764 9.74768 3.0336 9.95044 5.50851Z" fill="url(#paint31_linear_3193_5662)"/>
<path d="M9.0266 9.74392C9.0266 9.74392 10.1756 15.3084 10.7613 18.4367C10.1981 18.4109 9.61878 18.3755 9.0266 18.3305C9.01695 18.2854 8.92039 17.8799 8.77879 17.2781C8.33144 15.3889 7.41421 11.5623 7.21467 11.0023C7.13421 10.777 7.22754 10.571 7.40777 10.394C7.58156 10.2235 7.83581 10.0786 8.09971 9.97242C8.46661 9.81794 8.84637 9.73426 9.0266 9.74392Z" fill="#EEAE11"/>
<path style="mix-blend-mode:multiply" d="M9.0266 9.74392C9.0266 9.74392 10.1756 15.3084 10.7613 18.4367C10.1981 18.4109 9.61878 18.3755 9.0266 18.3305C9.01695 18.2854 8.92039 17.8799 8.77879 17.2781C8.33144 15.3889 7.41421 11.5623 7.21467 11.0023C7.13421 10.777 7.22754 10.571 7.40777 10.394C7.58156 10.2235 7.83581 10.0786 8.09971 9.97242C8.46661 9.81794 8.84637 9.73426 9.0266 9.74392Z" fill="url(#paint32_linear_3193_5662)"/>
<path d="M9.42182 9.97236L9.37355 10.0303L9.02597 9.74386C8.84574 9.7342 8.46597 9.81788 8.09908 9.97236L7.64207 4.94208C7.60345 4.84231 7.53587 4.70714 7.45541 4.55588C7.29449 3.39727 6.97266 1.94901 6.97266 1.94901L8.37908 0.944885C8.37908 0.944885 9.33815 6.28413 9.42182 9.97236Z" fill="#DC9017"/>
<path style="mix-blend-mode:screen" d="M9.42182 9.97236L9.37355 10.0303L9.02597 9.74386C8.84574 9.7342 8.46597 9.81788 8.09908 9.97236L7.64207 4.94208C7.60345 4.84231 7.53587 4.70714 7.45541 4.55588C7.29449 3.39727 6.97266 1.94901 6.97266 1.94901L8.37908 0.944885C8.37908 0.944885 9.33815 6.28413 9.42182 9.97236Z" fill="url(#paint33_linear_3193_5662)"/>
<path d="M9.02642 18.3274C8.8655 18.3177 8.70136 18.3016 8.53722 18.2856C7.00529 14.5201 4.74923 9.91784 4.68164 9.77301C4.73313 9.82129 5.22232 10.2879 5.69542 10.7514C6.03335 11.0861 6.36484 11.4176 6.5161 11.5914L8.7786 17.2782C8.92021 17.88 9.01676 18.2856 9.02642 18.3274Z" fill="#A85A04"/>
<path style="mix-blend-mode:screen" d="M9.02642 18.3274C8.8655 18.3177 8.70136 18.3016 8.53722 18.2856C7.00529 14.5201 4.74923 9.91784 4.68164 9.77301C4.73313 9.82129 5.22232 10.2879 5.69542 10.7514C6.03335 11.0861 6.36484 11.4176 6.5161 11.5914L8.7786 17.2782C8.92021 17.88 9.01676 18.2856 9.02642 18.3274Z" fill="url(#paint34_linear_3193_5662)"/>
<path d="M8.77844 17.278L6.51594 11.5912C6.36468 11.4174 6.03319 11.0859 5.69526 10.7512C5.69526 10.7512 4.71688 4.99358 4.67826 4.40462C4.63964 3.81566 6.72835 3.3844 6.72835 3.3844C6.72835 3.3844 7.36559 8.93928 7.40742 10.3908C7.2272 10.571 7.13386 10.777 7.21432 11.0022C7.41386 11.5622 8.33109 15.3889 8.77844 17.278Z" fill="#DC9017"/>
<path style="mix-blend-mode:screen" d="M8.77844 17.278L6.51594 11.5912C6.36468 11.4174 6.03319 11.0859 5.69526 10.7512C5.69526 10.7512 4.71688 4.99358 4.67826 4.40462C4.63964 3.81566 6.72835 3.3844 6.72835 3.3844C6.72835 3.3844 7.36559 8.93928 7.40742 10.3908C7.2272 10.571 7.13386 10.777 7.21432 11.0022C7.41386 11.5622 8.33109 15.3889 8.77844 17.278Z" fill="url(#paint35_linear_3193_5662)"/>
<path d="M8.53713 18.2854C8.08656 18.25 7.62634 18.2049 7.15968 18.1566C7.15968 18.1566 3.13674 11.2694 2.2002 9.76962C2.2002 9.76962 3.91236 9.7149 4.67833 9.76962C4.74592 9.91766 7.00198 14.5199 8.53391 18.2854H8.53713Z" fill="#EEAE11"/>
<path d="M7.64253 4.94208L8.09953 9.97237C7.83563 10.0786 7.58138 10.2234 7.40759 10.394C7.36575 8.93927 6.72852 3.3844 6.72852 3.3844C6.72852 3.3844 7.17586 4.0506 7.45586 4.55588C7.53632 4.70714 7.60391 4.84231 7.64253 4.94208Z" fill="#A85A04"/>
<path style="mix-blend-mode:screen" d="M7.64253 4.94208L8.09953 9.97237C7.83563 10.0786 7.58138 10.2234 7.40759 10.394C7.36575 8.93927 6.72852 3.3844 6.72852 3.3844C6.72852 3.3844 7.17586 4.0506 7.45586 4.55588C7.53632 4.70714 7.60391 4.84231 7.64253 4.94208Z" fill="url(#paint36_linear_3193_5662)"/>
<path d="M6.78313 18.1148C6.54819 18.089 6.31003 18.0601 6.06866 18.0311C4.17305 15.2923 2.2002 12.6114 2.2002 12.6114L3.72891 13.5222C3.72891 13.5222 5.65993 16.3801 6.78313 18.1148Z" fill="#A85A04"/>
<path style="mix-blend-mode:screen" d="M6.78313 18.1148C6.54819 18.089 6.31003 18.0601 6.06866 18.0311C4.17305 15.2923 2.2002 12.6114 2.2002 12.6114L3.72891 13.5222C3.72891 13.5222 5.65993 16.3801 6.78313 18.1148Z" fill="url(#paint37_linear_3193_5662)"/>
<path d="M6.06867 18.0277C5.44431 17.9505 4.80708 17.8604 4.15697 17.7606C3.12388 16.2769 0.240234 12.9878 0.240234 12.9878C0.240234 12.9878 1.637 12.2347 2.20021 12.6112C2.20021 12.6112 4.17306 15.2921 6.06867 18.0277Z" fill="#EEAE11"/>
<path style="mix-blend-mode:multiply" d="M6.06867 18.0277C5.44431 17.9505 4.80708 17.8604 4.15697 17.7606C3.12388 16.2769 0.240234 12.9878 0.240234 12.9878C0.240234 12.9878 1.637 12.2347 2.20021 12.6112C2.20021 12.6112 4.17306 15.2921 6.06867 18.0277Z" fill="url(#paint38_linear_3193_5662)"/>
<g style="mix-blend-mode:multiply">
<path d="M17.3968 17.5935C15.601 20.5898 12.8268 19.1544 11.7261 17.5935C10.0558 17.6482 8.5335 17.5066 6.85352 17.5034C7.30087 18.2661 7.01443 17.9089 7.15926 18.1567C7.62592 18.205 8.08614 18.25 8.53671 18.2854C8.70085 18.3015 8.86499 18.3176 9.0259 18.3273C9.61808 18.3755 10.1974 18.4109 10.7606 18.4367C10.9215 18.4463 11.0792 18.4528 11.2369 18.4592L11.7197 18.4785C11.8033 18.942 12.0576 19.3764 12.418 19.724C12.6626 19.9686 12.9587 20.1714 13.2838 20.3194C13.6507 20.4868 14.0562 20.5833 14.4714 20.5898C14.7256 20.5898 14.9863 20.5608 15.2405 20.4868C15.7008 20.3548 16.1481 20.0909 16.544 19.6629C16.8497 19.3378 17.1233 18.9162 17.3518 18.3884C17.6768 18.3659 17.989 18.3434 18.2948 18.3144C18.4589 18.3015 18.6198 18.2854 18.7775 18.2726C19.0285 18.2468 19.2699 18.2211 19.5049 18.1985C19.7462 18.1696 19.978 18.1438 20.2032 18.1149C20.9499 18.0215 21.6097 17.9185 22.1793 17.8188C22.8358 17.7061 23.3701 17.5967 23.7724 17.5034C24.3646 17.3714 24.6735 17.2781 24.6735 17.2781L25.034 16.5057C24.1715 16.6183 18.5908 17.3875 17.3968 17.5935Z" fill="url(#paint39_linear_3193_5662)"/>
<path d="M3.64844 17.072C3.84476 17.3262 4.01855 17.5611 4.15694 17.7607C4.80704 17.8605 5.44428 17.9506 6.06864 18.031C6.31002 18.06 6.54817 18.089 6.78311 18.1147C6.59001 17.8186 6.37438 17.4871 6.1491 17.1428C5.31233 17.1363 4.47877 17.117 3.64844 17.072Z" fill="url(#paint40_linear_3193_5662)"/>
</g>
<g style="mix-blend-mode:multiply">
<path d="M19.7339 14.3105C19.6341 14.5358 20.3743 14.6066 20.2456 14.2623C20.1169 13.9179 19.7339 14.3105 19.7339 14.3105Z" fill="#E0BE8B"/>
<path d="M21.6104 13.0939C21.6909 12.9748 21.2725 12.8557 21.3111 13.0681C21.3497 13.2805 21.6104 13.0939 21.6104 13.0939Z" fill="#E0BE8B"/>
<path d="M23.9592 16.2382C24.1651 16.2575 24.0268 15.6525 23.7854 15.8456C23.544 16.0387 23.9592 16.2382 23.9592 16.2382Z" fill="#E0BE8B"/>
<path d="M23.4958 15.144C23.5151 15.0121 23.116 15.0829 23.2351 15.2438C23.3542 15.4047 23.4958 15.144 23.4958 15.144Z" fill="#E0BE8B"/>
<path d="M21.9162 16.3637C21.9033 16.2768 21.6651 16.3959 21.7713 16.4763C21.8775 16.5568 21.9162 16.3637 21.9162 16.3637Z" fill="#E0BE8B"/>
<path d="M21.0081 13.4768C20.9888 13.7632 21.832 13.5411 21.5488 13.2161C21.2656 12.891 21.0081 13.4768 21.0081 13.4768Z" fill="#E0BE8B"/>
<path d="M20.3935 12.3538C20.4933 12.2476 20.0942 12.0674 20.1007 12.2862C20.1071 12.5019 20.3935 12.3538 20.3935 12.3538Z" fill="#E0BE8B"/>
<path d="M19.2385 10.9089C19.187 10.9668 19.3994 11.0633 19.3962 10.9443C19.393 10.8284 19.2385 10.9089 19.2385 10.9089Z" fill="#E0BE8B"/>
<path d="M18.2498 12.817C18.3303 12.9265 18.5652 12.5917 18.3657 12.5596C18.1662 12.5274 18.2498 12.817 18.2498 12.817Z" fill="#E0BE8B"/>
<path d="M16.4516 16.1965C16.3293 15.9519 15.7468 16.5408 16.1362 16.6728C16.5256 16.8015 16.4516 16.1965 16.4516 16.1965Z" fill="#E0BE8B"/>
<path d="M16.7732 14.4391C16.7314 14.5389 17.0597 14.5679 17.0017 14.4134C16.9406 14.2589 16.7732 14.4391 16.7732 14.4391Z" fill="#E0BE8B"/>
<path d="M16.149 18.2209C16.1361 18.2949 16.3646 18.2595 16.3002 18.1662C16.2359 18.0729 16.149 18.2209 16.149 18.2209Z" fill="#E0BE8B"/>
<path d="M15.2601 18.8001C15.273 18.6971 14.9673 18.7615 15.0638 18.8838C15.1571 19.0061 15.2601 18.8001 15.2601 18.8001Z" fill="#E0BE8B"/>
<path d="M15.3857 17.0462C15.1283 17.0108 15.2763 17.78 15.5853 17.5483C15.8942 17.3166 15.3857 17.0462 15.3857 17.0462Z" fill="#E0BE8B"/>
<path d="M11.559 14.6292C11.736 14.4329 11.0055 14.1175 11.0248 14.5101C11.0441 14.9027 11.559 14.6292 11.559 14.6292Z" fill="#E0BE8B"/>
<path d="M10.7901 13.4897C10.6871 13.3963 10.5133 13.7825 10.7257 13.7729C10.9349 13.7664 10.7901 13.4897 10.7901 13.4897Z" fill="#E0BE8B"/>
<path d="M9.83427 11.9258C10.0016 12.0288 10.1368 11.4495 9.85036 11.517C9.56393 11.5814 9.83427 11.9258 9.83427 11.9258Z" fill="#E0BE8B"/>
<path d="M9.54801 16C9.57697 15.8841 9.21973 15.9099 9.30663 16.0643C9.39674 16.2188 9.54801 16 9.54801 16Z" fill="#E0BE8B"/>
<path d="M8.64046 11.3367C8.60184 11.0825 7.90989 11.4365 8.21885 11.665C8.52781 11.8967 8.64046 11.3367 8.64046 11.3367Z" fill="#E0BE8B"/>
<path d="M6.94767 16.7597C7.05066 16.75 6.92193 16.47 6.82538 16.5859C6.72883 16.705 6.94767 16.7597 6.94767 16.7597Z" fill="#E0BE8B"/>
<path d="M5.45067 16.8209C5.23504 16.8113 5.41205 17.4421 5.65343 17.2232C5.8948 17.0044 5.45067 16.8209 5.45067 16.8209Z" fill="#E0BE8B"/>
<path d="M13.0138 17.5127C13.1683 17.6382 13.3775 17.075 13.0814 17.1039C12.7853 17.1329 13.0138 17.5127 13.0138 17.5127Z" fill="#E0BE8B"/>
<path d="M4.66196 12.4212C4.78104 12.2249 4.10197 12.0736 4.18243 12.4083C4.26289 12.743 4.66196 12.4212 4.66196 12.4212Z" fill="#E0BE8B"/>
<path d="M3.55508 14.6934C3.57117 14.5099 3.0337 14.6451 3.20749 14.8543C3.3845 15.0635 3.55508 14.6934 3.55508 14.6934Z" fill="#E0BE8B"/>
<path d="M3.51367 15.9743C3.52011 16.1063 3.89344 15.9582 3.74539 15.8231C3.59735 15.6911 3.51367 15.9743 3.51367 15.9743Z" fill="#E0BE8B"/>
<path d="M3.27818 15.2986C3.2653 15.173 2.92094 15.3275 3.06576 15.4466C3.21059 15.5657 3.27818 15.2986 3.27818 15.2986Z" fill="#E0BE8B"/>
<path d="M0.790647 13.5221C1.0288 13.5318 0.829265 12.8398 0.562142 13.078C0.298237 13.3194 0.790647 13.5221 0.790647 13.5221Z" fill="#E0BE8B"/>
<path d="M2.10704 14.2107C2.40313 14.2107 2.12313 13.3642 1.80451 13.6732C1.48912 13.9822 2.10704 14.2107 2.10704 14.2107Z" fill="#E0BE8B"/>
<path d="M5.63744 13.2806C5.55055 13.2967 5.67928 13.5285 5.75331 13.4222C5.82733 13.3128 5.63744 13.2806 5.63744 13.2806Z" fill="#E0BE8B"/>
<path d="M3.49128 10.9601C3.55565 11.0083 3.62967 10.7734 3.51059 10.7927C3.39151 10.812 3.49128 10.9601 3.49128 10.9601Z" fill="#E0BE8B"/>
<path d="M5.97827 6.67321C5.93965 6.52839 5.55989 6.78264 5.75621 6.89528C5.95253 7.00792 5.97827 6.67321 5.97827 6.67321Z" fill="#E0BE8B"/>
<path d="M6.13606 9.14171C6.11675 9.4378 6.98249 9.20608 6.68962 8.87137C6.39997 8.53666 6.13606 9.14171 6.13606 9.14171Z" fill="#E0BE8B"/>
<path d="M6.74799 10.2875C6.8381 10.1973 6.49052 10.0235 6.4873 10.2166C6.4873 10.4097 6.74799 10.2875 6.74799 10.2875Z" fill="#E0BE8B"/>
<path d="M7.70964 8.32121C7.49723 8.17317 7.2816 8.92626 7.66137 8.85867C8.04435 8.79109 7.70964 8.32121 7.70964 8.32121Z" fill="#E0BE8B"/>
<path d="M8.86566 9.9014C8.73049 9.8306 8.65325 10.2876 8.87532 10.22C9.09417 10.1524 8.86566 9.9014 8.86566 9.9014Z" fill="#E0BE8B"/>
<path d="M10.5041 12.9715C10.3335 13.0842 10.8162 13.464 10.8806 13.1646C10.945 12.8653 10.5041 12.9715 10.5041 12.9715Z" fill="#E0BE8B"/>
<path d="M11.1475 11.3497C11.1796 11.4333 11.3888 11.2628 11.2698 11.2081C11.1475 11.1501 11.1475 11.3497 11.1475 11.3497Z" fill="#E0BE8B"/>
<path d="M10.8739 6.50577C10.7998 6.54117 10.9704 6.7214 11.0122 6.60553C11.0573 6.48967 10.8739 6.50577 10.8739 6.50577Z" fill="#E0BE8B"/>
<path d="M12.7502 15.852C12.6183 16.0355 13.2652 16.2318 13.2137 15.9003C13.1622 15.5688 12.7502 15.852 12.7502 15.852Z" fill="#E0BE8B"/>
<path d="M14.6777 13.1906C14.6616 13.0297 14.2143 13.2324 14.4009 13.3869C14.5908 13.5414 14.6777 13.1906 14.6777 13.1906Z" fill="#E0BE8B"/>
<path d="M14.1729 5.9911C14.4046 5.94283 14.0474 5.32812 13.8511 5.62099C13.6547 5.91386 14.1729 5.9911 14.1729 5.9911Z" fill="#E0BE8B"/>
<path d="M15.2213 8.18912C15.3855 8.38222 15.7781 7.72246 15.4016 7.69349C15.0218 7.66131 15.2213 8.18912 15.2213 8.18912Z" fill="#E0BE8B"/>
<path d="M16.9691 12.1253C16.8404 12.0963 16.8854 12.4922 17.0496 12.386C17.2169 12.2798 16.9691 12.1253 16.9691 12.1253Z" fill="#E0BE8B"/>
<path d="M17.1752 8.17318C17.1108 8.26973 17.4487 8.35662 17.4133 8.18927C17.3779 8.02191 17.1752 8.17318 17.1752 8.17318Z" fill="#E0BE8B"/>
<path d="M17.8992 4.48174C17.8284 4.46565 17.8477 4.6845 17.941 4.62657C18.0344 4.56864 17.8992 4.48174 17.8992 4.48174Z" fill="#E0BE8B"/>
<path d="M18.0895 6.42887C18.3502 6.29048 17.7066 5.67577 17.5714 6.09738C17.4394 6.51898 18.0895 6.42887 18.0895 6.42887Z" fill="#E0BE8B"/>
<path d="M20.3553 10.0655C20.5419 10.1073 20.484 9.52803 20.2394 9.68251C19.9948 9.83699 20.3553 10.0655 20.3553 10.0655Z" fill="#E0BE8B"/>
<path d="M21.0339 7.98971C21.021 7.88028 20.7217 8.02511 20.8504 8.1281C20.9792 8.23109 21.0339 7.98971 21.0339 7.98971Z" fill="#E0BE8B"/>
<path d="M19.4826 9.4154C19.5567 9.34138 19.2767 9.19977 19.2734 9.35747C19.2734 9.51195 19.4826 9.4154 19.4826 9.4154Z" fill="#E0BE8B"/>
<path d="M18.9136 8.45644C18.7527 8.37598 18.6754 8.91666 18.9329 8.83298C19.1904 8.74931 18.9136 8.45644 18.9136 8.45644Z" fill="#E0BE8B"/>
<path d="M18.5559 10.5062C18.3563 10.3131 17.9959 11.0662 18.411 11.0629C18.8262 11.0597 18.5559 10.5062 18.5559 10.5062Z" fill="#E0BE8B"/>
<path d="M16.7057 10.0721C16.6896 9.95621 16.371 10.1139 16.5094 10.2233C16.651 10.3295 16.7057 10.0721 16.7057 10.0721Z" fill="#E0BE8B"/>
<path d="M15.4728 10.9922C15.418 11.2207 16.1261 11.1596 15.9426 10.8571C15.7592 10.5545 15.4728 10.9922 15.4728 10.9922Z" fill="#E0BE8B"/>
<path d="M14.6264 8.76851C14.4816 8.70093 14.4301 9.18046 14.6554 9.1C14.8806 9.01955 14.6264 8.76851 14.6264 8.76851Z" fill="#E0BE8B"/>
<path d="M14.8551 3.48714C14.7779 3.24255 14.1503 3.70277 14.4915 3.87978C14.8326 4.05679 14.8551 3.48714 14.8551 3.48714Z" fill="#E0BE8B"/>
<path d="M13.2332 10.8154C13.4134 10.8025 13.201 10.3004 13.024 10.5032C12.847 10.7059 13.2332 10.8154 13.2332 10.8154Z" fill="#E0BE8B"/>
<path d="M12.3022 6.64429C12.1896 6.59923 12.1703 6.96613 12.3376 6.89532C12.505 6.82452 12.3022 6.64429 12.3022 6.64429Z" fill="#E0BE8B"/>
<path d="M11.7879 11.0954C11.7589 11.2048 12.0969 11.1791 12.0132 11.0343C11.9295 10.8894 11.7879 11.0954 11.7879 11.0954Z" fill="#E0BE8B"/>
<path d="M10.4811 9.6727C10.7546 9.77247 10.7804 8.89064 10.3813 9.07408C9.98223 9.25753 10.4811 9.6727 10.4811 9.6727Z" fill="#E0BE8B"/>
<path d="M9.5804 8.9968C9.58683 8.926 9.37442 8.97106 9.44201 9.05795C9.50959 9.14163 9.5804 8.9968 9.5804 8.9968Z" fill="#E0BE8B"/>
<path d="M8.669 6.22269C8.62395 6.07464 8.2474 6.3482 8.45015 6.45763C8.65291 6.56705 8.669 6.22269 8.669 6.22269Z" fill="#E0BE8B"/>
</g>
<path d="M7.81008 33.1962L7.7264 32.8743L8.03858 32.7939L8.12226 33.1125L7.81008 33.193V33.1962ZM7.48502 31.9088L7.40779 31.587L7.71997 31.513L7.7972 31.8348L7.48502 31.9121V31.9088ZM7.1825 30.6183L7.10848 30.2964L7.42388 30.2256L7.4979 30.5475L7.18572 30.6183H7.1825ZM6.89285 29.3245L6.82204 28.9994L7.13745 28.9319L7.20825 29.2537L6.89285 29.3213V29.3245ZM6.61929 28.0275L6.5517 27.7025L6.8671 27.6381L6.93469 27.9631L6.61929 28.0275ZM6.35538 26.7273L6.29102 26.4022L6.60642 26.3411L6.67078 26.6661L6.35538 26.7273ZM6.10114 25.4271L6.03999 25.102L6.35538 25.0441L6.41653 25.3691L6.10114 25.4303V25.4271ZM5.85654 24.1236L5.79861 23.7986L6.11401 23.7407L6.17194 24.0657L5.85654 24.1236ZM5.6216 22.8202L5.56367 22.4952L5.88229 22.4404L5.94022 22.7655L5.62482 22.8202H5.6216ZM5.39632 21.5136L5.34161 21.1853L5.66022 21.1306L5.71493 21.4556L5.39632 21.5103V21.5136ZM5.17747 20.2069L5.12598 19.8786L5.44459 19.8271L5.49609 20.1554L5.17747 20.2069Z" fill="#D3392B"/>
<path d="M4.97493 18.8973L4.91699 18.5272L5.29354 18.5787L5.27423 18.7203L5.29354 18.8491L5.25492 18.8555L5.24848 18.8973L5.10687 18.878L4.97493 18.8973Z" fill="#D3392B"/>
<path d="M10.0536 19.3672L9.75104 19.3479L9.77035 19.0261L10.0697 19.0454L10.0503 19.3672H10.0536ZM8.8499 19.2835L8.55059 19.2578L8.57634 18.936L8.87565 18.9617L8.8499 19.2835ZM7.64623 19.1773L7.34693 19.1484L7.37911 18.8265L7.67842 18.8555L7.64623 19.1773ZM6.44579 19.0486L6.14648 19.0132L6.1851 18.6946L6.48441 18.73L6.44579 19.0486Z" fill="#D3392B"/>
<path d="M11.0481 19.4797C11.0385 19.4604 11.0288 19.4379 11.0192 19.4186H10.958L10.9741 19.0935L11.2348 19.1032L11.2734 19.1965C11.2927 19.2415 11.3152 19.2898 11.3378 19.3349L11.0481 19.4797Z" fill="#D3392B"/>
<path d="M14.0476 21.5268C13.9414 21.5139 13.8384 21.4978 13.7354 21.4785L13.7998 21.1631C13.8931 21.1824 13.9897 21.1985 14.0862 21.2082L14.0476 21.5268ZM14.9906 21.5204L14.9487 21.2017C15.0453 21.1889 15.1386 21.1728 15.2319 21.1502L15.3027 21.4656C15.1998 21.4882 15.0968 21.5075 14.9906 21.5204ZM12.8407 21.1824C12.7441 21.1374 12.6508 21.0891 12.5607 21.0376L12.7184 20.7576C12.8021 20.8059 12.889 20.8477 12.9759 20.8896L12.8407 21.1824ZM16.1878 21.1406L16.0365 20.8574C16.1202 20.8123 16.2039 20.764 16.2843 20.7125L16.4581 20.9829C16.368 21.0408 16.2779 21.0923 16.1846 21.1406H16.1878ZM11.8012 20.484C11.7239 20.4132 11.6499 20.336 11.5791 20.2588L11.8173 20.0431C11.8816 20.1139 11.9492 20.1815 12.02 20.2491L11.8012 20.484ZM17.1855 20.3843L16.9538 20.159C17.0213 20.0914 17.0857 20.0174 17.1501 19.9434L17.3947 20.1493C17.3271 20.2298 17.2563 20.307 17.1855 20.3811V20.3843Z" fill="#D3392B"/>
<path d="M17.9353 19.3769L17.6553 19.2192C17.681 19.1741 17.7068 19.1291 17.7293 19.0808L17.7711 19.0036L18.0189 18.9843L18.0447 19.3061L17.9707 19.3125C17.9578 19.3351 17.9449 19.3576 17.9321 19.3801L17.9353 19.3769Z" fill="#D3392B"/>
<path d="M18.9365 19.2286L18.9043 18.9067L19.1972 18.8778L19.2293 19.1996L18.9333 19.2286H18.9365ZM20.1208 19.0998L20.0822 18.7812L20.3751 18.7458L20.4169 19.0644L20.1208 19.0998ZM21.302 18.9422L21.2537 18.6235L21.5466 18.5785L21.5948 18.8971L21.2988 18.9422H21.302ZM22.4799 18.7523L22.4252 18.4369L22.7148 18.3854L22.7728 18.7008L22.4799 18.7523Z" fill="#D3392B"/>
<path d="M23.6506 18.5206L23.6409 18.4788L23.5991 18.4756L23.612 18.3372L23.583 18.2052L23.9499 18.128L23.9177 18.5045L23.7825 18.4917L23.6506 18.5206Z" fill="#D3392B"/>
<path d="M22.2063 32.8551L21.8877 32.8036L21.9392 32.4785L22.2578 32.5268L22.2063 32.8519V32.8551ZM22.4059 31.5549L22.0872 31.5098L22.1355 31.1848L22.4541 31.2298L22.4059 31.5549ZM22.5925 30.2547L22.2739 30.2096L22.319 29.8846L22.6376 29.9296L22.5925 30.2547ZM22.7695 28.9512L22.4509 28.9094L22.4927 28.5843L22.8114 28.6262L22.7695 28.9512ZM22.9369 27.6478L22.6183 27.6092L22.6601 27.2841L22.9787 27.3227L22.9369 27.6478ZM23.0978 26.3444L22.7792 26.3057L22.8178 25.9807L23.1364 26.0193L23.0978 26.3444ZM23.2523 25.0409L22.9337 25.0055L22.9723 24.6805L23.2909 24.7159L23.2523 25.0409ZM23.4003 23.7343L23.0817 23.6989L23.1171 23.3738L23.4357 23.4092L23.4003 23.7343ZM23.5419 22.4276L23.2233 22.3922L23.2587 22.0672L23.5806 22.0994L23.5451 22.4276H23.5419ZM23.6771 21.121L23.3553 21.0888L23.3874 20.7637L23.7093 20.7959L23.6771 21.1242V21.121ZM23.8058 19.8143L23.484 19.7854L23.5162 19.4571L23.838 19.4861L23.8058 19.8143Z" fill="#D3392B"/>
<path style="mix-blend-mode:screen" d="M9.46409 19.2671C7.93537 19.2285 6.77676 19.1029 5.24805 18.897C6.09447 23.3512 6.77998 28.4523 8.03836 32.7938C9.97581 33.3989 11.9776 33.7432 13.9955 33.8784C13.413 30.4026 13.0944 26.1383 12.9238 22.6077C11.5399 21.8064 10.3395 20.7218 9.46409 19.2639V19.2671Z" fill="url(#paint41_linear_3193_5662)"/>
<path d="M14.5036 20.7506C14.5036 20.7506 14.4811 20.7506 14.4682 20.7506C14.0434 20.7442 13.6089 20.6444 13.2163 20.4642C12.8751 20.3097 12.5597 20.0941 12.3055 19.8398L12.2572 19.7883C11.9257 19.4504 11.6908 19.0481 11.5878 18.6297L11.2305 18.6169C11.0696 18.6104 10.9119 18.604 10.751 18.5943C10.1878 18.5686 9.60206 18.5332 9.0131 18.4881L8.86506 18.4752C8.75241 18.4656 8.63655 18.4559 8.52069 18.4431C8.07334 18.4077 7.6099 18.3626 7.14324 18.3143L6.76669 18.2725C6.54784 18.25 6.32578 18.221 6.10371 18.1952L6.049 18.1888C5.42142 18.1084 4.77775 18.0182 4.13086 17.9185L4.17914 17.5999C4.82281 17.6996 5.46326 17.7897 6.08762 17.8702L6.13911 17.8766C6.36118 17.9024 6.58003 17.9313 6.79888 17.9539L7.17542 17.9957C7.64208 18.044 8.09909 18.089 8.54966 18.1244C8.7138 18.1405 8.87793 18.1566 9.03563 18.1663L9.18689 18.1824C9.72114 18.221 10.2522 18.2532 10.7671 18.2757C10.928 18.2854 11.0857 18.2918 11.2402 18.2982L11.8517 18.324L11.8742 18.4495C11.9482 18.8647 12.18 19.2734 12.5243 19.6081L12.5726 19.6596C12.7947 19.8656 13.0586 20.0426 13.345 20.1745C13.699 20.3355 14.0884 20.4256 14.4682 20.432C14.7192 20.432 14.9574 20.403 15.1891 20.3355C15.6493 20.2035 16.0645 19.9428 16.4185 19.5566C16.7211 19.2348 16.9817 18.8196 17.1974 18.3272L17.236 18.2371L17.3325 18.2306C17.6576 18.2081 17.9666 18.1856 18.2723 18.1566C18.3656 18.1502 18.4557 18.1405 18.5426 18.1341L18.9514 18.0955C19.1316 18.0762 19.3086 18.0569 19.4824 18.0408L19.7238 18.0118C19.8783 17.9925 20.0295 17.9764 20.1776 17.9571C20.8438 17.8734 21.4874 17.7769 22.1472 17.661C22.7297 17.5612 23.2768 17.4518 23.7306 17.3456C24.3099 17.2169 24.6189 17.1235 24.6221 17.1235L24.7154 17.4325C24.7154 17.4325 24.3936 17.529 23.8014 17.661C23.3444 17.7672 22.7909 17.8766 22.2019 17.9764C21.5389 18.0923 20.8888 18.1888 20.2194 18.2725C20.0714 18.2918 19.9201 18.3079 19.7624 18.3272L19.521 18.3562C19.344 18.3723 19.1702 18.3916 18.99 18.4109L18.578 18.4495C18.4879 18.4592 18.3978 18.4656 18.3077 18.472C18.0341 18.4978 17.7509 18.5203 17.4613 18.5396C17.2392 19.0288 16.9721 19.4407 16.6631 19.769C16.2673 20.1971 15.8038 20.4899 15.2857 20.638C15.0346 20.712 14.774 20.7474 14.5068 20.7474L14.5036 20.7506Z" fill="#CF493C"/>
<defs>
<linearGradient id="paint0_linear_3193_5662" x1="26.9071" y1="14.7869" x2="25.298" y2="14.2527" gradientUnits="userSpaceOnUse">
<stop stop-color="#FF7E21"/>
<stop offset="1"/>
</linearGradient>
<linearGradient id="paint1_linear_3193_5662" x1="22.4114" y1="18.0021" x2="26.0063" y2="11.6748" gradientUnits="userSpaceOnUse">
<stop stop-color="#CC9B7E"/>
<stop offset="1" stop-color="white"/>
</linearGradient>
<linearGradient id="paint2_linear_3193_5662" x1="24.8151" y1="7.31081" x2="23.5278" y2="9.88549" gradientUnits="userSpaceOnUse">
<stop stop-color="#CC9B7E"/>
<stop offset="1" stop-color="white"/>
</linearGradient>
<linearGradient id="paint3_linear_3193_5662" x1="21.1954" y1="18.8356" x2="22.9654" y2="12.0224" gradientUnits="userSpaceOnUse">
<stop stop-color="#FF7E21"/>
<stop offset="1"/>
</linearGradient>
<linearGradient id="paint4_linear_3193_5662" x1="13.6996" y1="41.995" x2="14.398" y2="18.1277" gradientUnits="userSpaceOnUse">
<stop stop-color="#945113"/>
<stop offset="1"/>
</linearGradient>
<linearGradient id="paint5_linear_3193_5662" x1="23.3155" y1="11.0152" x2="21.5036" y2="10.3715" gradientUnits="userSpaceOnUse">
<stop stop-color="#FF7E21"/>
<stop offset="1"/>
</linearGradient>
<linearGradient id="paint6_linear_3193_5662" x1="18.6013" y1="18.1792" x2="21.6169" y2="7.23682" gradientUnits="userSpaceOnUse">
<stop stop-color="#CC9B7E"/>
<stop offset="1" stop-color="white"/>
</linearGradient>
<linearGradient id="paint7_linear_3193_5662" x1="20.3513" y1="12.6082" x2="21.7191" y2="13.21" gradientUnits="userSpaceOnUse">
<stop stop-color="#FF7E21"/>
<stop offset="1"/>
</linearGradient>
<linearGradient id="paint8_linear_3193_5662" x1="19.7369" y1="34.9178" x2="21.507" y2="16.0905" gradientUnits="userSpaceOnUse">
<stop stop-color="#FF7E21"/>
<stop offset="1"/>
</linearGradient>
<linearGradient id="paint9_linear_3193_5662" x1="20.6059" y1="11.4206" x2="18.4335" y2="12.3861" gradientUnits="userSpaceOnUse">
<stop stop-color="#CC9B7E"/>
<stop offset="1" stop-color="white"/>
</linearGradient>
<linearGradient id="paint10_linear_3193_5662" x1="20.2872" y1="4.54607" x2="17.1107" y2="4.58469" gradientUnits="userSpaceOnUse">
<stop stop-color="#FF7E21"/>
<stop offset="1"/>
</linearGradient>
<linearGradient id="paint11_linear_3193_5662" x1="20.7086" y1="7.6937" x2="18.2948" y2="11.3144" gradientUnits="userSpaceOnUse">
<stop stop-color="#FF7E21"/>
<stop offset="1"/>
</linearGradient>
<linearGradient id="paint12_linear_3193_5662" x1="19.6436" y1="17.3681" x2="16.3866" y2="16.4831" gradientUnits="userSpaceOnUse">
<stop stop-color="#FF7E21"/>
<stop offset="1"/>
</linearGradient>
<linearGradient id="paint13_linear_3193_5662" x1="18.2725" y1="6.54462" x2="18.1921" y2="9.76297" gradientUnits="userSpaceOnUse">
<stop stop-color="#FF7E21"/>
<stop offset="1"/>
</linearGradient>
<linearGradient id="paint14_linear_3193_5662" x1="12.3219" y1="22.968" x2="18.6395" y2="11.8647" gradientUnits="userSpaceOnUse">
<stop stop-color="#FF7E21"/>
<stop offset="1"/>
</linearGradient>
<linearGradient id="paint15_linear_3193_5662" x1="17.2363" y1="36.675" x2="17.0239" y2="22.2472" gradientUnits="userSpaceOnUse">
<stop stop-color="#FF7E21"/>
<stop offset="1"/>
</linearGradient>
<linearGradient id="paint16_linear_3193_5662" x1="19.5953" y1="5.09641" x2="17.1429" y2="5.74008" gradientUnits="userSpaceOnUse">
<stop stop-color="#FF7E21"/>
<stop offset="1"/>
</linearGradient>
<linearGradient id="paint17_linear_3193_5662" x1="17.4032" y1="16.4349" x2="18.1274" y2="19.1319" gradientUnits="userSpaceOnUse">
<stop stop-color="#CC9B7E"/>
<stop offset="1" stop-color="white"/>
</linearGradient>
<linearGradient id="paint18_linear_3193_5662" x1="18.2278" y1="12.914" x2="16.1778" y2="11.9485" gradientUnits="userSpaceOnUse">
<stop stop-color="#FF7E21"/>
<stop offset="1"/>
</linearGradient>
<linearGradient id="paint19_linear_3193_5662" x1="14.5197" y1="16.66" x2="15.6043" y2="12.1929" gradientUnits="userSpaceOnUse">
<stop stop-color="#CC9B7E"/>
<stop offset="1" stop-color="white"/>
</linearGradient>
<linearGradient id="paint20_linear_3193_5662" x1="16.5738" y1="9.4927" x2="14.2405" y2="8.81041" gradientUnits="userSpaceOnUse">
<stop stop-color="#FF7E21"/>
<stop offset="1"/>
</linearGradient>
<linearGradient id="paint21_linear_3193_5662" x1="16.3706" y1="4.34979" x2="14.52" y2="9.9819" gradientUnits="userSpaceOnUse">
<stop stop-color="#FF7E21"/>
<stop offset="1"/>
</linearGradient>
<linearGradient id="paint22_linear_3193_5662" x1="15.4692" y1="16.2676" x2="13.8214" y2="17.0722" gradientUnits="userSpaceOnUse">
<stop stop-color="#FF7E21"/>
<stop offset="1"/>
</linearGradient>
<linearGradient id="paint23_linear_3193_5662" x1="12.0967" y1="11.3112" x2="14.9128" y2="16.0969" gradientUnits="userSpaceOnUse">
<stop stop-color="#CC9B7E"/>
<stop offset="1" stop-color="white"/>
</linearGradient>
<linearGradient id="paint24_linear_3193_5662" x1="13.3135" y1="35.6421" x2="11.8138" y2="19.4409" gradientUnits="userSpaceOnUse">
<stop stop-color="#FF7E21"/>
<stop offset="1"/>
</linearGradient>
<linearGradient id="paint25_linear_3193_5662" x1="15.9586" y1="2.62146" x2="11.6943" y2="3.74788" gradientUnits="userSpaceOnUse">
<stop stop-color="#FF7E21"/>
<stop offset="1"/>
</linearGradient>
<linearGradient id="paint26_linear_3193_5662" x1="13.2905" y1="20.5253" x2="13.0491" y2="14.6904" gradientUnits="userSpaceOnUse">
<stop stop-color="#CC9B7E"/>
<stop offset="1" stop-color="white"/>
</linearGradient>
<linearGradient id="paint27_linear_3193_5662" x1="11.4982" y1="11.3466" x2="12.3414" y2="4.2662" gradientUnits="userSpaceOnUse">
<stop stop-color="#CC9B7E"/>
<stop offset="1" stop-color="white"/>
</linearGradient>
<linearGradient id="paint28_linear_3193_5662" x1="13.1426" y1="18.7424" x2="10.4069" y2="7.59726" gradientUnits="userSpaceOnUse">
<stop stop-color="#CC9B7E"/>
<stop offset="1" stop-color="white"/>
</linearGradient>
<linearGradient id="paint29_linear_3193_5662" x1="10.5518" y1="4.33063" x2="11.2759" y2="16.2771" gradientUnits="userSpaceOnUse">
<stop stop-color="#FF7E21"/>
<stop offset="1"/>
</linearGradient>
<linearGradient id="paint30_linear_3193_5662" x1="15.4117" y1="36.4274" x2="14.929" y2="30.9562" gradientUnits="userSpaceOnUse">
<stop stop-color="#FF7A52"/>
<stop offset="1"/>
</linearGradient>
<linearGradient id="paint31_linear_3193_5662" x1="11.0028" y1="5.41839" x2="8.91091" y2="5.74023" gradientUnits="userSpaceOnUse">
<stop stop-color="#FF7E21"/>
<stop offset="1"/>
</linearGradient>
<linearGradient id="paint32_linear_3193_5662" x1="9.9567" y1="19.2316" x2="8.66936" y2="13.0363" gradientUnits="userSpaceOnUse">
<stop stop-color="#CC9B7E"/>
<stop offset="1" stop-color="white"/>
</linearGradient>
<linearGradient id="paint33_linear_3193_5662" x1="8.19563" y1="10.1783" x2="8.19563" y2="2.57659" gradientUnits="userSpaceOnUse">
<stop stop-color="#FF7E21"/>
<stop offset="1"/>
</linearGradient>
<linearGradient id="paint34_linear_3193_5662" x1="8.89124" y1="12.7339" x2="6.27472" y2="14.4235" gradientUnits="userSpaceOnUse">
<stop stop-color="#FF7E21"/>
<stop offset="1"/>
</linearGradient>
<linearGradient id="paint35_linear_3193_5662" x1="5.34446" y1="3.41336" x2="7.79685" y2="13.7539" gradientUnits="userSpaceOnUse">
<stop stop-color="#FF7E21"/>
<stop offset="1"/>
</linearGradient>
<linearGradient id="paint36_linear_3193_5662" x1="8.48573" y1="6.77976" x2="6.43565" y2="6.94068" gradientUnits="userSpaceOnUse">
<stop stop-color="#FF7E21"/>
<stop offset="1"/>
</linearGradient>
<linearGradient id="paint37_linear_3193_5662" x1="5.22223" y1="14.7226" x2="3.93489" y2="15.8491" gradientUnits="userSpaceOnUse">
<stop stop-color="#FF7E21"/>
<stop offset="1"/>
</linearGradient>
<linearGradient id="paint38_linear_3193_5662" x1="5.57304" y1="19.0061" x2="3.0402" y2="15.3436" gradientUnits="userSpaceOnUse">
<stop stop-color="#CC9B7E"/>
<stop offset="1" stop-color="white"/>
</linearGradient>
<linearGradient id="paint39_linear_3193_5662" x1="8.70085" y1="19.6371" x2="28.6096" y2="14.2013" gradientUnits="userSpaceOnUse">
<stop stop-color="#CC9B7E"/>
<stop offset="1" stop-color="white"/>
</linearGradient>
<linearGradient id="paint40_linear_3193_5662" x1="7.7969" y1="16.8885" x2="28.2334" y2="11.3111" gradientUnits="userSpaceOnUse">
<stop stop-color="#CC9B7E"/>
<stop offset="1" stop-color="white"/>
</linearGradient>
<linearGradient id="paint41_linear_3193_5662" x1="7.26274" y1="15.5209" x2="11.3372" y2="30.969" gradientUnits="userSpaceOnUse">
<stop stop-color="white"/>
<stop offset="1"/>
</linearGradient>
</defs>
</svg>
