<svg width="36" height="21" viewBox="0 0 36 21" fill="none" xmlns="http://www.w3.org/2000/svg">
<g clip-path="url(#clip0_2_12770)">
<path d="M27.0118 21H17.3942C16.447 21 15.6455 20.2787 15.5726 19.3579L15.1885 14.4121C14.9301 14.4443 14.6784 14.4637 14.4267 14.4637C11.1082 14.4637 8.40576 11.8362 8.40576 8.60994C8.40576 5.38362 11.1082 2.75621 14.4267 2.75621C15.2481 2.75621 16.0628 2.92364 16.8179 3.23919C17.8313 1.25575 19.8979 0 22.203 0C24.5081 0 26.5747 1.25575 27.5881 3.23919C28.3366 2.92364 29.1579 2.75621 29.9793 2.75621C33.2978 2.75621 36.0002 5.38362 36.0002 8.60994C36.0002 11.8362 33.2978 14.4637 29.9793 14.4637C29.7276 14.4637 29.4692 14.4443 29.2175 14.4121L28.8334 19.3579C28.7605 20.2787 27.9657 21 27.0118 21ZM15.6058 13.4526C15.7051 13.4526 15.7979 13.4848 15.8773 13.5428C15.9833 13.6201 16.0496 13.736 16.0562 13.8648L16.4801 19.2935C16.5132 19.7571 16.9173 20.1178 17.3942 20.1178H27.0118C27.4887 20.1178 27.8862 19.7571 27.9259 19.2935L28.3498 13.8648C28.3565 13.736 28.4227 13.6201 28.5287 13.5428C28.6347 13.4655 28.7671 13.4397 28.8996 13.4655C29.2639 13.5428 29.6282 13.5814 29.9859 13.5814C32.801 13.5814 35.0928 11.3533 35.0928 8.61638C35.0928 5.87949 32.801 3.65133 29.9859 3.65133C29.1513 3.65133 28.3233 3.85097 27.5881 4.23091C27.4755 4.28887 27.343 4.30175 27.2172 4.25667C27.0979 4.21159 26.9986 4.12144 26.9522 4.00552C26.1706 2.11224 24.3094 0.895124 22.2096 0.895124C20.1099 0.895124 18.2553 2.11867 17.467 4.00552C17.4207 4.12144 17.3213 4.21159 17.2021 4.25667C17.0829 4.30175 16.9438 4.28887 16.8312 4.23091C16.0959 3.85097 15.268 3.65133 14.4334 3.65133C11.6183 3.65133 9.32646 5.87949 9.32646 8.61638C9.32646 11.3533 11.6183 13.5814 14.4334 13.5814C14.791 13.5814 15.1553 13.5428 15.513 13.4655C15.5461 13.4591 15.5793 13.4526 15.6124 13.4526H15.6058Z" fill="white"/>
<path d="M32.8871 11.2889C32.8208 11.2889 32.7612 11.276 32.695 11.2502C32.4698 11.1472 32.3638 10.8832 32.4698 10.6642C32.7082 10.1619 32.8275 9.62097 32.8275 9.06071C32.8275 7.81784 32.2048 6.64581 31.1649 5.92456C30.9596 5.78288 30.9132 5.50597 31.0589 5.30634C31.2047 5.10671 31.4895 5.06163 31.6948 5.20331C32.9732 6.09199 33.7415 7.53449 33.7415 9.06071C33.7415 9.74976 33.5958 10.4131 33.3044 11.0313C33.2249 11.1923 33.0659 11.2889 32.8937 11.2889H32.8871Z" fill="white"/>
<path d="M29.9793 14.4637C28.84 14.4637 27.7272 14.1481 26.7668 13.5621C26.5548 13.4333 26.4886 13.1564 26.6277 12.9503C26.7601 12.7442 27.045 12.6863 27.2569 12.8151C28.0716 13.3174 29.0122 13.5814 29.9859 13.5814C32.801 13.5814 35.0928 11.3533 35.0928 8.61637C35.0928 5.87948 32.801 3.65133 29.9859 3.65133C29.1513 3.65133 28.3233 3.85097 27.5881 4.23091C27.4755 4.28887 27.343 4.30175 27.2172 4.25667C27.0979 4.21159 26.9986 4.12143 26.9522 4.00552C26.1706 2.11224 24.3094 0.895124 22.2096 0.895124C20.1099 0.895124 18.2553 2.11867 17.467 4.00552C17.4207 4.12143 17.3213 4.21159 17.2021 4.25667C17.0829 4.30175 16.9438 4.28887 16.8312 4.23091C16.0959 3.85097 15.268 3.65133 14.4334 3.65133C11.6183 3.65133 9.32646 5.87948 9.32646 8.61637C9.32646 11.3533 11.6183 13.5814 14.4334 13.5814C15.8641 13.5814 17.1888 13.0212 18.1625 12.0037C18.3347 11.8234 18.6196 11.8169 18.805 11.9844C18.9905 12.1518 18.9971 12.4287 18.8249 12.609C17.6922 13.7875 16.0893 14.4637 14.4267 14.4637C11.1082 14.4637 8.40576 11.8362 8.40576 8.60993C8.40576 5.38362 11.1082 2.75621 14.4267 2.75621C15.2481 2.75621 16.0628 2.92364 16.8179 3.23919C17.8313 1.25575 19.8979 0 22.203 0C24.5081 0 26.5747 1.25575 27.5881 3.23919C28.3366 2.92364 29.1579 2.75621 29.9793 2.75621C33.2978 2.75621 36.0002 5.38362 36.0002 8.60993C36.0002 11.8362 33.2978 14.4637 29.9793 14.4637Z" fill="white"/>
<path d="M12.9095 18.2052H11.3198C11.0681 18.2052 10.8628 18.0055 10.8628 17.7608C10.8628 17.5161 11.0681 17.3165 11.3198 17.3165H12.9095C13.1612 17.3165 13.3666 17.5161 13.3666 17.7608C13.3666 18.0055 13.1612 18.2052 12.9095 18.2052Z" fill="white"/>
<path d="M9.02131 18.2052H6.7295C6.4778 18.2052 6.27246 18.0055 6.27246 17.7608C6.27246 17.5161 6.4778 17.3165 6.7295 17.3165H9.02131C9.27301 17.3165 9.47835 17.5161 9.47835 17.7608C9.47835 18.0055 9.27301 18.2052 9.02131 18.2052Z" fill="white"/>
<path d="M4.43785 18.2052H2.84815C2.59645 18.2052 2.39111 18.0055 2.39111 17.7608C2.39111 17.5161 2.59645 17.3165 2.84815 17.3165H4.43785C4.68955 17.3165 4.89489 17.5161 4.89489 17.7608C4.89489 18.0055 4.68955 18.2052 4.43785 18.2052Z" fill="white"/>
<path d="M7.25316 11.6881H6.34571C6.09401 11.6881 5.88867 11.4885 5.88867 11.2438C5.88867 10.9991 6.09401 10.7994 6.34571 10.7994H7.25316C7.50486 10.7994 7.7102 10.9991 7.7102 11.2438C7.7102 11.4885 7.50486 11.6881 7.25316 11.6881Z" fill="white"/>
<path d="M4.69623 11.6881H3.59669C3.34498 11.6881 3.13965 11.4885 3.13965 11.2438C3.13965 10.9991 3.34498 10.7994 3.59669 10.7994H4.69623C4.94793 10.7994 5.15326 10.9991 5.15326 11.2438C5.15326 11.4885 4.94793 11.6881 4.69623 11.6881Z" fill="white"/>
<path d="M1.94094 11.6881H1.02686C0.77516 11.6881 0.569824 11.4885 0.569824 11.2438C0.569824 10.9991 0.77516 10.7994 1.02686 10.7994H1.93431C2.18602 10.7994 2.39135 10.9991 2.39135 11.2438C2.39135 11.4885 2.18602 11.6881 1.93431 11.6881H1.94094Z" fill="white"/>
<path d="M7.25316 5.16469H6.34571C6.09401 5.16469 5.88867 4.96505 5.88867 4.72034C5.88867 4.47563 6.09401 4.276 6.34571 4.276H7.25316C7.50486 4.276 7.7102 4.47563 7.7102 4.72034C7.7102 4.96505 7.50486 5.16469 7.25316 5.16469Z" fill="white"/>
<path d="M4.47769 5.16469H3.23243C2.98073 5.16469 2.77539 4.96505 2.77539 4.72034C2.77539 4.47563 2.98073 4.276 3.23243 4.276H4.47769C4.72939 4.276 4.93473 4.47563 4.93473 4.72034C4.93473 4.96505 4.72939 5.16469 4.47769 5.16469Z" fill="white"/>
<path d="M1.36449 5.16469H0.457038C0.205336 5.16469 0 4.96505 0 4.72034C0 4.47563 0.205336 4.276 0.457038 4.276H1.36449C1.61619 4.276 1.82153 4.47563 1.82153 4.72034C1.82153 4.96505 1.61619 5.16469 1.36449 5.16469Z" fill="white"/>
<path d="M23.5077 17.2456H15.8374C15.5857 17.2456 15.3804 17.046 15.3804 16.8013C15.3804 16.5566 15.5857 16.3569 15.8374 16.3569H23.5077C23.7594 16.3569 23.9647 16.5566 23.9647 16.8013C23.9647 17.046 23.7594 17.2456 23.5077 17.2456Z" fill="white"/>
</g>
<defs>
<clipPath id="clip0_2_12770">
<rect width="36" height="21" fill="white"/>
</clipPath>
</defs>
</svg>
