<svg width="20" height="33" viewBox="0 0 20 33" fill="none" xmlns="http://www.w3.org/2000/svg">
<g clip-path="url(#clip0_2_12719)">
<path d="M17.3899 33H2.61007C1.172 33 0 31.8451 0 30.4279V2.57208C0 1.15494 1.172 0 2.61007 0H17.3899C18.828 0 20 1.15494 20 2.57208V30.4279C20 31.8451 18.828 33 17.3899 33ZM2.61007 0.855278C1.65347 0.855278 0.867913 1.62316 0.867913 2.57208V30.4279C0.867913 31.3706 1.64713 32.1447 2.61007 32.1447H17.3899C18.3465 32.1447 19.1321 31.3768 19.1321 30.4279V2.57208C19.1321 1.6294 18.3529 0.855278 17.3899 0.855278H2.61007Z" fill="white"/>
<path d="M16.9146 31.8076H3.08501C2.14741 31.8076 1.38086 31.0522 1.38086 30.1282V4.00168C1.38086 3.76445 1.57725 3.57092 1.81798 3.57092C2.05872 3.57092 2.25511 3.76445 2.25511 4.00168V30.1282C2.25511 30.584 2.62888 30.9461 3.08501 30.9461H16.9146C17.3771 30.9461 17.7445 30.5777 17.7445 30.1282V4.00168C17.7445 3.76445 17.9409 3.57092 18.1816 3.57092C18.4224 3.57092 18.6187 3.76445 18.6187 4.00168V30.1282C18.6187 31.0522 17.8522 31.8076 16.9146 31.8076Z" fill="white"/>
<path d="M13.8298 3.2588H6.17065C5.68918 3.2588 5.30273 2.87174 5.30273 2.40352V0.430761C5.30273 0.19353 5.49912 0 5.73986 0H14.2669C14.5077 0 14.7041 0.19353 14.7041 0.430761V2.40352C14.7041 2.87798 14.3113 3.2588 13.8362 3.2588H13.8298ZM6.17065 0.855278V2.40352H13.8298V0.855278H6.17065Z" fill="white"/>
<path d="M11.1247 14.4336H8.95177C8.71104 14.4336 8.51465 14.2401 8.51465 14.0029V8.71512C8.51465 8.47789 8.71104 8.28436 8.95177 8.28436H11.1247C11.3655 8.28436 11.5618 8.47789 11.5618 8.71512V14.0029C11.5618 14.2401 11.3655 14.4336 11.1247 14.4336ZM9.38256 13.5783H10.6876V9.14588H9.38256V13.5783Z" fill="white"/>
<path d="M11.1247 14.4336H8.95177C8.71104 14.4336 8.51465 14.2401 8.51465 14.0029V8.71512C8.51465 8.47789 8.71104 8.28436 8.95177 8.28436H11.1247C11.3655 8.28436 11.5618 8.47789 11.5618 8.71512V14.0029C11.5618 14.2401 11.3655 14.4336 11.1247 14.4336ZM9.38256 13.5783H10.6876V9.14588H9.38256V13.5783Z" fill="white"/>
<path d="M8.9514 14.4336H5.91054C4.65619 14.4336 3.63623 13.4285 3.63623 12.1924C3.63623 10.9563 4.65619 9.95117 5.91054 9.95117H8.9514C9.19214 9.95117 9.38853 10.1447 9.38853 10.3819V14.0028C9.38853 14.24 9.19214 14.4336 8.9514 14.4336ZM5.91054 10.8127C5.13766 10.8127 4.51048 11.4307 4.51048 12.1924C4.51048 12.954 5.13766 13.5721 5.91054 13.5721H8.52061V10.8064H5.91054V10.8127Z" fill="white"/>
<path d="M14.0958 14.4336H11.131C10.8902 14.4336 10.6938 14.24 10.6938 14.0028V10.3819C10.6938 10.1447 10.8902 9.95117 11.131 9.95117H14.0958C15.3502 9.95117 16.3701 10.9563 16.3701 12.1924C16.3701 13.4285 15.3502 14.4336 14.0958 14.4336ZM11.5618 13.5783H14.0958C14.8687 13.5783 15.4959 12.9603 15.4959 12.1986C15.4959 11.437 14.8687 10.8189 14.0958 10.8189H11.5618V13.5845V13.5783Z" fill="white"/>
<path d="M4.09266 12.8729C4.00397 12.8729 3.90894 12.8479 3.83292 12.7917C3.18674 12.3235 2.80029 11.5744 2.80029 10.7878C2.80029 9.41431 3.93428 8.29059 5.33434 8.29059H8.9517C9.19244 8.29059 9.38883 8.48412 9.38883 8.72135V10.3882C9.38883 10.6254 9.19244 10.819 8.9517 10.819H5.91084C5.13796 10.819 4.51078 11.437 4.51078 12.1986C4.51078 12.2611 4.51711 12.3297 4.52345 12.3922C4.54879 12.5607 4.46643 12.7293 4.31439 12.8167C4.2447 12.8542 4.16868 12.8791 4.09266 12.8791V12.8729ZM5.33434 9.14587C4.41575 9.14587 3.67454 9.88253 3.67454 10.7815C3.67454 10.9938 3.71255 11.1998 3.78857 11.3871C4.118 10.5505 4.94157 9.9512 5.91084 9.9512H8.52091V9.14587H5.33434Z" fill="white"/>
<path d="M15.914 12.8729C15.838 12.8729 15.762 12.8542 15.6923 12.8105C15.5402 12.7231 15.4579 12.5545 15.4832 12.386C15.4895 12.3235 15.4959 12.2611 15.4959 12.1924C15.4959 11.4308 14.8687 10.8127 14.0958 10.8127H11.131C10.8902 10.8127 10.6938 10.6192 10.6938 10.382V8.71512C10.6938 8.47789 10.8902 8.28436 11.131 8.28436H14.6723C16.066 8.28436 17.2064 9.40184 17.2064 10.7815C17.2064 11.5681 16.8199 12.3173 16.1737 12.7855C16.0977 12.8417 16.009 12.8667 15.914 12.8667V12.8729ZM11.5618 9.95122H14.0958C15.0588 9.95122 15.8887 10.5443 16.2181 11.3871C16.2941 11.1998 16.3321 10.9938 16.3321 10.7815C16.3321 9.8763 15.5846 9.14588 14.6723 9.14588H11.5618V9.95122Z" fill="white"/>
<path d="M5.65734 13.0539C5.41027 13.0539 5.22021 12.8541 5.22021 12.6169V12.2548C5.23289 12.0176 5.43561 11.849 5.67001 11.8365C5.91074 11.8365 6.1008 12.0363 6.09446 12.2736V12.6356C6.08179 12.8666 5.89174 13.0539 5.651 13.0539H5.65734Z" fill="white"/>
<path d="M12.7714 11.9551H12.4166C12.1759 11.9551 11.9795 11.7616 11.9795 11.5244C11.9795 11.2872 12.1759 11.0936 12.4166 11.0936H12.7714C13.0121 11.0936 13.2085 11.2872 13.2085 11.5244C13.2085 11.7616 13.0121 11.9551 12.7714 11.9551Z" fill="white"/>
<path d="M14.4186 12.798C14.1778 12.798 13.9814 12.6044 13.9814 12.3672V12.0176C13.9814 11.7804 14.1778 11.5869 14.4186 11.5869C14.6593 11.5869 14.8557 11.7804 14.8557 12.0176V12.3672C14.8557 12.6044 14.6593 12.798 14.4186 12.798Z" fill="white"/>
<path d="M13.1329 13.4472C12.8922 13.4472 12.6958 13.2537 12.6958 13.0164V12.6668C12.6958 12.4296 12.8922 12.2361 13.1329 12.2361C13.3737 12.2361 13.57 12.4296 13.57 12.6668V13.0164C13.57 13.2537 13.3737 13.4472 13.1329 13.4472Z" fill="white"/>
<path d="M7.55773 13.5096C7.31699 13.5096 7.12061 13.3161 7.12061 13.0789V12.7293C7.12061 12.4921 7.31699 12.2985 7.55773 12.2985C7.79846 12.2985 7.99485 12.4921 7.99485 12.7293V13.0789C7.99485 13.3161 7.79846 13.5096 7.55773 13.5096Z" fill="white"/>
<path d="M7.558 11.9551H7.20324C6.9625 11.9551 6.76611 11.7616 6.76611 11.5244C6.76611 11.2872 6.9625 11.0936 7.20324 11.0936H7.558C7.79874 11.0936 7.99513 11.2872 7.99513 11.5244C7.99513 11.7616 7.79874 11.9551 7.558 11.9551Z" fill="white"/>
<path d="M6.30968 10.8127C6.06895 10.8127 5.87256 10.6192 5.87256 10.382V8.71512C5.87256 8.47789 6.06895 8.28436 6.30968 8.28436C6.55042 8.28436 6.74681 8.47789 6.74681 8.71512V10.382C6.74681 10.6192 6.55042 10.8127 6.30968 10.8127Z" fill="white"/>
<path d="M13.8361 10.8127C13.5953 10.8127 13.3989 10.6192 13.3989 10.382V8.71512C13.3989 8.47789 13.5953 8.28436 13.8361 8.28436C14.0768 8.28436 14.2732 8.47789 14.2732 8.71512V10.382C14.2732 10.6192 14.0768 10.8127 13.8361 10.8127Z" fill="white"/>
</g>
<defs>
<clipPath id="clip0_2_12719">
<rect width="20" height="33" fill="white"/>
</clipPath>
</defs>
</svg>
