<svg width="38" height="18" viewBox="0 0 38 18" fill="none" xmlns="http://www.w3.org/2000/svg">
<path d="M11.6833 13.8887H10.7759C10.5242 13.8887 10.3188 13.6891 10.3188 13.4443C10.3188 13.1996 10.5242 13 10.7759 13H11.6833C11.935 13 12.1404 13.1996 12.1404 13.4443C12.1404 13.6891 11.935 13.8887 11.6833 13.8887Z" fill="#455A64"/>
<path d="M9.1264 13.8887H8.02686C7.77516 13.8887 7.56982 13.6891 7.56982 13.4443C7.56982 13.1996 7.77516 13 8.02686 13H9.1264C9.3781 13 9.58344 13.1996 9.58344 13.4443C9.58344 13.6891 9.3781 13.8887 9.1264 13.8887Z" fill="#455A64"/>
<path d="M6.37111 13.8887H5.45704C5.20534 13.8887 5 13.6891 5 13.4443C5 13.1996 5.20534 13 5.45704 13H6.36449C6.61619 13 6.82153 13.1996 6.82153 13.4443C6.82153 13.6891 6.61619 13.8887 6.36449 13.8887H6.37111Z" fill="#455A64"/>
<path d="M6.68334 5.88868H5.77589C5.52418 5.88868 5.31885 5.68905 5.31885 5.44434C5.31885 5.19963 5.52418 5 5.77589 5H6.68334C6.93504 5 7.14037 5.19963 7.14037 5.44434C7.14037 5.68905 6.93504 5.88868 6.68334 5.88868Z" fill="#455A64"/>
<path d="M4.1264 5.88868H3.02686C2.77516 5.88868 2.56982 5.68905 2.56982 5.44434C2.56982 5.19963 2.77516 5 3.02686 5H4.1264C4.3781 5 4.58344 5.19963 4.58344 5.44434C4.58344 5.68905 4.3781 5.88868 4.1264 5.88868Z" fill="#455A64"/>
<path d="M1.37111 5.88868H0.457038C0.205336 5.88868 0 5.68905 0 5.44434C0 5.19963 0.205336 5 0.457038 5H1.36449C1.61619 5 1.82153 5.19963 1.82153 5.44434C1.82153 5.68905 1.61619 5.88868 1.36449 5.88868H1.37111Z" fill="#455A64"/>
<g clip-path="url(#clip0_2_12794)">
<path d="M34.0539 18C31.8823 18 30.1128 16.156 30.1128 13.8929C30.1128 11.6298 31.8823 9.78577 34.0539 9.78577C36.2255 9.78577 37.995 11.6298 37.995 13.8929C37.995 16.156 36.2255 18 34.0539 18ZM34.0539 10.5035C32.2593 10.5035 30.8015 12.0227 30.8015 13.8929C30.8015 15.7631 32.2593 17.2823 34.0539 17.2823C35.8485 17.2823 37.3063 15.7631 37.3063 13.8929C37.3063 12.0227 35.8485 10.5035 34.0539 10.5035Z" fill="#455A64"/>
<path d="M17.4147 18C15.2431 18 13.4736 16.156 13.4736 13.8929C13.4736 11.6298 15.2431 9.78577 17.4147 9.78577C19.5864 9.78577 21.3559 11.6298 21.3559 13.8929C21.3559 16.156 19.5864 18 17.4147 18ZM17.4147 10.5035C15.6201 10.5035 14.1623 12.0227 14.1623 13.8929C14.1623 15.7631 15.6201 17.2823 17.4147 17.2823C19.2094 17.2823 20.6672 15.7631 20.6672 13.8929C20.6672 12.0227 19.2094 10.5035 17.4147 10.5035Z" fill="#455A64"/>
<path d="M30.5502 4.81956C29.2733 4.81956 28.2378 3.7404 28.2378 2.40978C28.2378 1.07916 29.2733 0 30.5502 0C30.7412 0 30.897 0.162398 30.897 0.361467V4.46333C30.897 4.6624 30.7412 4.8248 30.5502 4.8248V4.81956ZM30.2033 0.754366C29.4744 0.922002 28.9265 1.59779 28.9265 2.40454C28.9265 3.21129 29.4744 3.89232 30.2033 4.05471V0.759604V0.754366Z" fill="#455A64"/>
<path d="M30.55 4.56811C30.359 4.56811 30.2031 4.40571 30.2031 4.20664V0.612932C30.2031 0.413863 30.359 0.251465 30.55 0.251465C31.6911 0.251465 32.6211 1.22061 32.6211 2.40979C32.6211 3.59896 31.6911 4.56811 30.55 4.56811ZM30.8968 1.02155V3.80327C31.49 3.64087 31.9324 3.08034 31.9324 2.40979C31.9324 1.73924 31.49 1.17871 30.8968 1.01631V1.02155Z" fill="#455A64"/>
<path d="M34.0539 18C31.8823 18 30.1128 16.156 30.1128 13.8929C30.1128 11.6298 31.8823 9.78577 34.0539 9.78577C36.2255 9.78577 37.995 11.6298 37.995 13.8929C37.995 16.156 36.2255 18 34.0539 18ZM34.0539 10.5035C32.2593 10.5035 30.8015 12.0227 30.8015 13.8929C30.8015 15.7631 32.2593 17.2823 34.0539 17.2823C35.8485 17.2823 37.3063 15.7631 37.3063 13.8929C37.3063 12.0227 35.8485 10.5035 34.0539 10.5035Z" fill="#455A64"/>
<path d="M34.0537 15.9098C32.9829 15.9098 32.1133 15.0036 32.1133 13.8877C32.1133 12.7719 32.9829 11.8656 34.0537 11.8656C35.1244 11.8656 35.9941 12.7719 35.9941 13.8877C35.9941 15.0036 35.1244 15.9098 34.0537 15.9098ZM34.0537 12.5833C33.365 12.5833 32.802 13.17 32.802 13.8877C32.802 14.6054 33.365 15.1921 34.0537 15.1921C34.7424 15.1921 35.3054 14.6054 35.3054 13.8877C35.3054 13.17 34.7424 12.5833 34.0537 12.5833Z" fill="#455A64"/>
<path d="M34.0537 15.9098C32.9829 15.9098 32.1133 15.0036 32.1133 13.8877C32.1133 12.7719 32.9829 11.8656 34.0537 11.8656C35.1244 11.8656 35.9941 12.7719 35.9941 13.8877C35.9941 15.0036 35.1244 15.9098 34.0537 15.9098ZM34.0537 12.5833C33.365 12.5833 32.802 13.17 32.802 13.8877C32.802 14.6054 33.365 15.1921 34.0537 15.1921C34.7424 15.1921 35.3054 14.6054 35.3054 13.8877C35.3054 13.17 34.7424 12.5833 34.0537 12.5833Z" fill="#455A64"/>
<path d="M17.4497 15.9098C16.3789 15.9098 15.5093 15.0036 15.5093 13.8877C15.5093 12.7719 16.3789 11.8656 17.4497 11.8656C18.5204 11.8656 19.3901 12.7719 19.3901 13.8877C19.3901 15.0036 18.5204 15.9098 17.4497 15.9098ZM17.4497 12.5833C16.761 12.5833 16.198 13.17 16.198 13.8877C16.198 14.6054 16.761 15.1921 17.4497 15.1921C18.1384 15.1921 18.7014 14.6054 18.7014 13.8877C18.7014 13.17 18.1384 12.5833 17.4497 12.5833Z" fill="#455A64"/>
<path d="M17.4147 18C15.2431 18 13.4736 16.156 13.4736 13.8929C13.4736 11.6298 15.2431 9.78577 17.4147 9.78577C19.5864 9.78577 21.3559 11.6298 21.3559 13.8929C21.3559 16.156 19.5864 18 17.4147 18ZM17.4147 10.5035C15.6201 10.5035 14.1623 12.0227 14.1623 13.8929C14.1623 15.7631 15.6201 17.2823 17.4147 17.2823C19.2094 17.2823 20.6672 15.7631 20.6672 13.8929C20.6672 12.0227 19.2094 10.5035 17.4147 10.5035Z" fill="#455A64"/>
<path d="M30.4597 14.3749H21.009C20.9135 14.3749 20.8281 14.333 20.7627 14.2649C20.6974 14.1968 20.6622 14.1025 20.6672 14.0029V13.8877C20.6672 12.0175 19.2094 10.4983 17.4198 10.4983C16.2787 10.4983 15.208 11.1374 14.6198 12.1589C14.5494 12.2847 14.4137 12.3528 14.278 12.3318C14.1423 12.3161 14.0266 12.2113 13.9914 12.0751L13.6747 10.9436C13.6647 10.9121 13.6597 10.8755 13.6597 10.844V6.92553C13.6597 6.72647 13.8155 6.56407 14.0065 6.56407H22.7484C22.9394 6.56407 23.0952 6.72647 23.0952 6.92553V10.6031C23.0952 11.2527 23.6029 11.7818 24.2263 11.7818H28.3132C28.6349 11.7818 28.9365 11.6456 29.1527 11.3941C29.3688 11.1426 29.4694 10.8231 29.4392 10.4878L28.7907 3.86616C28.7756 3.71424 28.8561 3.56756 28.9868 3.5047C29.1225 3.44183 29.2783 3.47326 29.3789 3.58328C29.6905 3.91855 30.1028 4.10714 30.5502 4.10714H30.6658C31.6259 4.10714 32.4905 4.66244 32.9229 5.55301L35.1096 10.0635C35.1699 10.1892 35.1548 10.3359 35.0744 10.4459C34.994 10.5559 34.8582 10.6083 34.7275 10.5769C34.5063 10.5297 34.2751 10.5035 34.0489 10.5035C32.2543 10.5035 30.7965 12.0227 30.7965 13.8929V13.982C30.8015 14.0815 30.7663 14.1863 30.701 14.2596C30.6356 14.333 30.5451 14.3854 30.4546 14.3854L30.4597 14.3749ZM21.3458 13.6572H30.1178C30.2385 11.4465 32.0532 9.70726 34.2047 9.78584L32.3096 5.87257C31.9929 5.22297 31.3645 4.8196 30.6658 4.8196H30.5502C30.1983 4.8196 29.8615 4.74102 29.5498 4.58386L30.1178 10.4145C30.1681 10.9488 30.0022 11.4779 29.6554 11.8761C29.3135 12.2742 28.8209 12.4995 28.3031 12.4995H24.2162C23.2108 12.4995 22.3965 11.6508 22.3965 10.6031V7.28176H14.3433V10.7864L14.4539 11.1688C15.1979 10.294 16.2787 9.77012 17.4148 9.77012C19.516 9.77012 21.2353 11.4884 21.3509 13.6467L21.3458 13.6572Z" fill="#455A64"/>
<path d="M24.1158 7.28697H19.0286C18.4857 7.28697 18.0483 6.82597 18.0483 6.26543C18.0483 5.7049 18.4907 5.2439 19.0286 5.2439H24.1158C24.6588 5.2439 25.0961 5.7049 25.0961 6.26543C25.0961 6.82597 24.6537 7.28697 24.1158 7.28697ZM19.0286 5.96159C18.8677 5.96159 18.737 6.0978 18.737 6.26543C18.737 6.43307 18.8677 6.56927 19.0286 6.56927H24.1158C24.2767 6.56927 24.4074 6.43307 24.4074 6.26543C24.4074 6.0978 24.2767 5.96159 24.1158 5.96159H19.0286Z" fill="#455A64"/>
<path d="M26.7898 3.41563C26.6691 3.41563 26.5485 3.34753 26.4881 3.22704C26.3977 3.05417 26.463 2.83414 26.6289 2.73985L28.4587 1.71307C28.6246 1.61878 28.8357 1.68164 28.9262 1.85975C29.0167 2.03263 28.9513 2.25265 28.7854 2.34695L26.9556 3.37372C26.9054 3.40516 26.8501 3.41563 26.7948 3.41563H26.7898Z" fill="#455A64"/>
<path d="M31.8973 9.83823C31.7566 9.83823 31.6309 9.74917 31.5756 9.60773L30.6255 7.05651C30.5551 6.87315 30.6456 6.66361 30.8216 6.59027C30.9975 6.51692 31.1986 6.61122 31.269 6.79457L32.219 9.3458C32.2894 9.52915 32.1989 9.73869 32.023 9.81203C31.9828 9.82775 31.9375 9.83823 31.8973 9.83823Z" fill="#455A64"/>
<path d="M22.7481 8.93192H18.5456C18.3546 8.93192 18.1987 8.76952 18.1987 8.57045C18.1987 8.37138 18.3546 8.20898 18.5456 8.20898H22.7481C22.9391 8.20898 23.095 8.37138 23.095 8.57045C23.095 8.76952 22.9391 8.93192 22.7481 8.93192Z" fill="#455A64"/>
<path d="M16.7815 7.28702H11.7546C11.5635 7.28702 11.4077 7.12462 11.4077 6.92555C11.4077 6.72649 11.5635 6.56409 11.7546 6.56409H16.7815C16.9725 6.56409 17.1284 6.72649 17.1284 6.92555C17.1284 7.12462 16.9725 7.28702 16.7815 7.28702Z" fill="#455A64"/>
<path d="M17.2689 7.2869H10.3469C10.1558 7.2869 10 7.12451 10 6.92544V5.75722C10 5.55815 10.1558 5.39575 10.3469 5.39575H17.2689C17.46 5.39575 17.6158 5.55815 17.6158 5.75722V6.92544C17.6158 7.12451 17.46 7.2869 17.2689 7.2869ZM10.6887 6.56921H16.9271V6.11869H10.6887V6.56921Z" fill="#455A64"/>
<path d="M17.5858 6.11869H10.6638C10.4727 6.11869 10.3169 5.95629 10.3169 5.75722V4.58901C10.3169 4.38994 10.4727 4.22754 10.6638 4.22754H17.5858C17.7769 4.22754 17.9327 4.38994 17.9327 4.58901V5.75722C17.9327 5.95629 17.7769 6.11869 17.5858 6.11869ZM11.0056 5.401H17.244V4.95047H11.0056V5.401Z" fill="#455A64"/>
<path d="M17.2689 4.95048H10.3469C10.1558 4.95048 10 4.78808 10 4.58901V3.42079C10 3.22172 10.1558 3.05933 10.3469 3.05933H17.2689C17.46 3.05933 17.6158 3.22172 17.6158 3.42079V4.58901C17.6158 4.78808 17.46 4.95048 17.2689 4.95048ZM10.6887 4.23278H16.9271V3.78226H10.6887V4.23278Z" fill="#455A64"/>
<path d="M17.5858 3.78227H10.6638C10.4727 3.78227 10.3169 3.61987 10.3169 3.4208V2.25258C10.3169 2.05351 10.4727 1.89111 10.6638 1.89111H17.5858C17.7769 1.89111 17.9327 2.05351 17.9327 2.25258V3.4208C17.9327 3.61987 17.7769 3.78227 17.5858 3.78227ZM11.0056 3.06457H17.244V2.61405H11.0056V3.06457Z" fill="#455A64"/>
<path d="M17.2689 2.61406H10.3469C10.1558 2.61406 10 2.45167 10 2.2526V1.08962C10 0.890548 10.1558 0.728149 10.3469 0.728149H17.2689C17.46 0.728149 17.6158 0.890548 17.6158 1.08962V2.25784C17.6158 2.4569 17.46 2.6193 17.2689 2.6193V2.61406ZM10.6887 1.89637H16.9271V1.44584H10.6887V1.89637Z" fill="#455A64"/>
<path d="M37.2964 18H10.6638C10.4727 18 10.3169 17.8376 10.3169 17.6386C10.3169 17.4395 10.4727 17.2771 10.6638 17.2771H37.2964C37.4874 17.2771 37.6433 17.4395 37.6433 17.6386C37.6433 17.8376 37.4874 18 37.2964 18Z" fill="#455A64"/>
</g>
<defs>
<clipPath id="clip0_2_12794">
<rect width="28" height="18" fill="white" transform="translate(10)"/>
</clipPath>
</defs>
</svg>
