<svg width="17" height="34" viewBox="0 0 17 34" fill="none" xmlns="http://www.w3.org/2000/svg">
<g clip-path="url(#clip0_2_12754)">
<path d="M13.8113 30.2514C13.7191 30.2514 13.6208 30.2201 13.5409 30.1513C13.3628 30.0011 13.3382 29.732 13.4856 29.5443L14.014 28.8934C14.3826 28.4366 14.5915 27.8608 14.5915 27.2663V20.6015C14.5915 20.3074 14.3581 20.0696 14.0693 20.0696C13.7805 20.0696 13.5471 20.3074 13.5471 20.6015C13.5471 20.8393 13.3566 21.0333 13.1231 21.0333C12.8897 21.0333 12.6992 20.8393 12.6992 20.6015V20.1947C12.6992 20.0195 12.8037 19.8693 12.9511 19.8005C13.1969 19.4438 13.6085 19.2122 14.0693 19.2122C14.825 19.2122 15.4394 19.838 15.4394 20.6078V27.2726C15.4394 28.0611 15.169 28.8371 14.6714 29.4441L14.143 30.095C14.057 30.1951 13.9403 30.2514 13.8174 30.2514H13.8113Z" fill="white"/>
<path d="M13.1234 22.9483C12.8899 22.9483 12.6994 22.7543 12.6994 22.5165V19.7254C12.6994 19.4313 12.466 19.1934 12.1772 19.1934C11.8884 19.1934 11.655 19.4313 11.655 19.7254V20.226C11.655 20.4638 11.4645 20.6578 11.2311 20.6578C10.9976 20.6578 10.8071 20.4638 10.8071 20.226V19.7254C10.8071 18.9556 11.4215 18.3298 12.1772 18.3298C12.9329 18.3298 13.5473 18.9556 13.5473 19.7254V22.5165C13.5473 22.7543 13.3568 22.9483 13.1234 22.9483Z" fill="white"/>
<path d="M11.2371 22.4664C11.0037 22.4664 10.8132 22.2724 10.8132 22.0346V19.1496C10.8132 18.8555 10.5797 18.6177 10.291 18.6177C10.0022 18.6177 9.76875 18.8555 9.76875 19.1496V21.728C9.76875 21.9658 9.57829 22.1598 9.34482 22.1598C9.11136 22.1598 8.9209 21.9658 8.9209 21.728V19.1496C8.9209 18.3799 9.53528 17.7541 10.291 17.7541C11.0467 17.7541 11.661 18.3799 11.661 19.1496V22.0346C11.661 22.2724 11.4706 22.4664 11.2371 22.4664Z" fill="white"/>
<path d="M13.8111 34C13.5777 34 13.3872 33.806 13.3872 33.5682V29.8196C13.3872 29.7195 13.4241 29.6256 13.4855 29.5443L14.0139 28.8934C14.3825 28.4366 14.5914 27.8608 14.5914 27.2663V21.5402C14.5914 21.3024 14.7819 21.1084 15.0153 21.1084C15.2488 21.1084 15.4392 21.3024 15.4392 21.5402V27.2663C15.4392 28.0548 15.1689 28.8308 14.6713 29.4379L14.2351 29.9698V33.5619C14.2351 33.7997 14.0446 33.9937 13.8111 33.9937V34Z" fill="white"/>
<path d="M5.99 34C5.75653 34 5.56607 33.806 5.56607 33.5682V30.0199L4.21443 28.8559C3.71064 28.424 3.42188 27.7857 3.42188 27.1161V21.2711C3.42188 20.833 3.60005 20.4137 3.91338 20.1134C4.22672 19.8067 4.63836 19.6503 5.07457 19.6753C5.91013 19.7191 6.56138 20.4513 6.56138 21.3399V24.6755C6.56138 24.8006 6.66582 24.9008 6.79484 24.9008C6.92386 24.9008 7.02831 24.8006 7.02831 24.6755V15.6013C7.02831 15.207 7.19419 14.8316 7.47681 14.5687C7.76557 14.3059 8.14649 14.1807 8.53355 14.2183C9.22166 14.2871 9.76232 14.9192 9.76232 15.6576V19.9194C9.76232 20.1572 9.57186 20.3512 9.33839 20.3512C9.10492 20.3512 8.91447 20.1572 8.91447 19.9194V15.6576C8.91447 15.3572 8.71172 15.1007 8.44754 15.0694C8.30008 15.0568 8.15263 15.1007 8.04204 15.207C7.93145 15.3072 7.87001 15.4511 7.87001 15.6013V24.6755C7.87001 25.27 7.39079 25.7581 6.79484 25.7581C6.19889 25.7581 5.71967 25.27 5.71967 24.6755V21.3399C5.71967 20.9144 5.41248 20.5577 5.03156 20.5326C4.82881 20.5201 4.63835 20.5952 4.4909 20.7329C4.34345 20.8768 4.26358 21.0646 4.26358 21.2711V27.1161C4.26358 27.5354 4.44175 27.9297 4.75509 28.1988L6.25418 29.4942C6.34634 29.5755 6.40164 29.6944 6.40164 29.8196V33.5682C6.40164 33.806 6.21118 34 5.97771 34H5.99Z" fill="white"/>
<path d="M13.8114 30.2514H5.99033C5.75686 30.2514 5.56641 30.0574 5.56641 29.8196C5.56641 29.5818 5.75686 29.3878 5.99033 29.3878H13.8176C14.051 29.3878 14.2415 29.5818 14.2415 29.8196C14.2415 30.0574 14.051 30.2514 13.8176 30.2514H13.8114Z" fill="white"/>
<path d="M13.8114 32.4605H7.55088C7.31741 32.4605 7.12695 32.2665 7.12695 32.0287C7.12695 31.7909 7.31741 31.5969 7.55088 31.5969H13.8114C14.0449 31.5969 14.2354 31.7909 14.2354 32.0287C14.2354 32.2665 14.0449 32.4605 13.8114 32.4605Z" fill="white"/>
<path d="M5.99024 16.9093C5.94724 16.9093 5.90423 16.903 5.86122 16.8905C2.35309 15.7202 0 12.416 0 8.65489C0 3.88625 3.81532 0 8.50307 0C13.1908 0 17 3.88625 17 8.65489C17 12.3346 14.7083 15.6201 11.3047 16.8279C11.0835 16.903 10.8439 16.7904 10.7701 16.5651C10.6964 16.3398 10.807 16.0957 11.0282 16.0206C14.1001 14.9317 16.1583 11.9717 16.1583 8.65489C16.1583 4.3556 12.7239 0.857353 8.50307 0.857353C4.28226 0.857353 0.841706 4.3556 0.841706 8.65489C0.841706 12.0405 2.96133 15.0193 6.11926 16.0707C6.34044 16.1458 6.46332 16.3898 6.38959 16.6151C6.3343 16.7966 6.16841 16.9093 5.99024 16.9093Z" fill="white"/>
<path d="M11.3 5L6.96 9.77167L5.7 8.815H5L6.96 12L9.48 8.5L12 5H11.3Z" fill="white"/>
</g>
<defs>
<clipPath id="clip0_2_12754">
<rect width="17" height="34" fill="white"/>
</clipPath>
</defs>
</svg>
