<svg width="49" height="40" viewBox="0 0 49 40" fill="none" xmlns="http://www.w3.org/2000/svg">
<path d="M19.3785 22.2991C19.8343 22.1143 20.2832 22.2635 20.2832 22.2635C19.9132 23.1599 19.3996 25.0815 19.3996 25.0815C19.3996 25.0815 18.8783 25.3605 18.4043 24.8766C18.6297 24.3639 18.8213 23.8633 18.9703 23.3475C19.0748 22.9868 19.214 22.6411 19.3785 22.2991Z" fill="#6E8702"/>
<path d="M15.3579 32.3295C15.1214 31.8313 16.2156 31.7136 16.2418 31.9099C16.268 32.1062 15.6127 32.8663 15.3579 32.3295Z" fill="#7A7711"/>
<path d="M30.1534 10.9539C30.2709 11.2013 30.0975 11.6657 29.8686 11.8059C29.6398 11.946 28.8908 11.057 29.0465 10.7625C29.2036 10.4713 30.0375 10.7096 30.1534 10.9539Z" fill="#7A7711"/>
<path d="M35.9478 23.1615C36.1456 23.296 35.9373 23.8281 35.5887 23.5998C35.2432 23.3699 35.7547 23.0286 35.9478 23.1615Z" fill="#1E0D07"/>
<path d="M27.8267 18.9785C28.3149 19.3099 28.5169 19.7851 28.2483 19.9993C28.0929 20.1282 27.9217 20.2488 27.7411 20.3661C26.8928 20.9106 26.1025 21.1873 25.3781 21.2791C24.7926 21.3483 24.4247 20.814 24.5589 20.2422L25.0184 18.3226C25.1257 17.7439 25.6268 17.5218 26.1298 17.8265L27.8267 18.9785Z" fill="#B81D07"/>
<path style="mix-blend-mode:multiply" d="M27.8267 18.9785C28.3149 19.3099 28.5169 19.7851 28.2483 19.9993C28.0929 20.1282 27.9217 20.2488 27.7411 20.3661C26.8928 20.9106 26.1025 21.1873 25.3781 21.2791C24.7926 21.3483 24.4247 20.814 24.5589 20.2422L25.0184 18.3226C25.1257 17.7439 25.6268 17.5218 26.1298 17.8265L27.8267 18.9785Z" fill="url(#paint0_linear_3193_5273)"/>
<g style="mix-blend-mode:screen">
<path d="M25.0182 18.3226L24.7588 19.4107C25.6773 19.4788 26.6016 19.1858 27.1531 18.5222L26.1296 17.8265C25.6266 17.5218 25.1255 17.7439 25.0182 18.3226Z" fill="#A81B06"/>
</g>
<path d="M27.7843 22.9723C27.8931 22.7119 28.2326 23.1533 28.1512 23.322C28.0729 23.4891 27.5804 23.4472 27.7843 22.9723Z" fill="#1E0D07"/>
<path d="M29.1242 25.7945C28.7175 25.2116 29.5839 25.1036 29.6498 25.3087C29.7156 25.5137 29.3407 26.1013 29.1242 25.7945Z" fill="#1E0D07"/>
<path d="M33.0103 12.6578L33.8259 12.7748C33.865 13.7448 34.2759 15.0503 36.4834 15.7512C34.9414 15.7387 33.4544 14.755 33.0103 12.6578Z" fill="#B26693"/>
<path d="M33.1013 9.76322L33.5819 10.7757C32.5155 11.5576 31.3431 13.0122 32.2249 16.0398C31.9718 15.6558 31.7719 15.2348 31.636 14.7991C31.2185 13.4218 31.4323 11.8395 32.5717 10.3651C32.7286 10.1646 32.9046 9.96291 33.0981 9.76474L33.1013 9.76322Z" fill="#B26693"/>
<path d="M38.668 14.1979C38.8242 13.7968 38.9164 13.3356 38.9283 12.8297L39.6392 12.9334C39.6392 12.9334 39.586 13.7424 39.16 14.496C38.8264 15.0876 38.2628 15.6427 37.3123 15.7394C37.1368 15.7597 36.9442 15.7605 36.7361 15.7451C37.6252 15.6933 38.3152 15.1058 38.668 14.1979Z" fill="#EAACCE"/>
<path d="M37.3766 16.5954L37.7962 17.4794C37.7962 17.4794 37.5579 17.6161 37.1745 17.7627C36.0675 18.1936 33.7557 18.7082 32.4199 16.3174C33.4753 17.7109 35.4757 17.7932 37.3766 16.5954Z" fill="#EAACCE"/>
<path d="M32.2431 20.8831C32.6148 20.0647 34.0926 21.1867 33.5281 21.8643C33.1907 21.0871 32.4692 20.8782 32.1996 21.2228C32.1829 21.1047 32.198 20.9873 32.2463 20.8816L32.2431 20.8831Z" fill="black"/>
<path d="M32.2002 21.2228C32.4699 20.8782 33.1913 21.0871 33.5287 21.8643C33.0572 22.4308 32.2723 21.8227 32.197 21.2243L32.2002 21.2228Z" fill="#351F18"/>
<path d="M39.2129 19.1778C39.3524 19.281 39.4117 19.4143 39.4008 19.5573C38.9188 19.2387 36.932 19.9652 36.9692 20.7156C36.8717 20.6595 36.8068 20.5642 36.7921 20.4255C36.691 19.5321 38.7927 18.8653 39.2129 19.1778Z" fill="#7A7711"/>
<path d="M39.4011 19.5572C39.3855 19.8561 39.0937 20.1955 38.6437 20.4091C38.1133 20.6609 37.32 20.9312 36.9695 20.7155C36.9323 19.9651 38.919 19.2386 39.4011 19.5572Z" fill="#FFC55F"/>
<path d="M40.4139 18.7966C40.9468 19.2802 40.9422 20.5151 40.9422 20.5151C40.9422 20.5151 40.8592 20.7633 40.5452 21.0974C40.2735 21.3879 39.8205 21.7447 39.0932 22.0545C37.5359 22.715 36.6259 22.2332 36.6259 22.2332C36.3239 21.9788 36.0623 21.5437 35.9257 21.2974C36.5344 22.2728 38.268 21.7846 39.3576 21.2673C40.4472 20.7501 40.9379 19.6349 40.4139 18.7966Z" fill="#7A7711"/>
<path d="M40.414 18.7966C40.938 19.6349 40.4505 20.7485 39.3577 21.2673C38.2648 21.7861 36.5344 22.2727 35.9257 21.2974C35.8735 21.204 35.843 21.1397 35.8323 21.1172L35.8293 21.1108C35.7896 21.0273 35.7629 20.9296 35.7397 20.8225C35.5216 19.7326 36.4166 18.9297 37.4739 18.5105C38.5073 18.0987 39.705 18.0579 40.1531 18.4793C40.2593 18.5785 40.3462 18.687 40.414 18.7966ZM39.4006 19.5573C39.4115 19.4143 39.3521 19.281 39.2126 19.1778C38.7925 18.8653 36.6907 19.5321 36.7918 20.4254C36.8065 20.5642 36.8714 20.6594 36.9689 20.7155C37.3194 20.9312 38.1128 20.6609 38.6431 20.4092C39.0931 20.1956 39.3849 19.8562 39.4021 19.5605L39.4006 19.5573Z" fill="#99991F"/>
<path style="mix-blend-mode:screen" d="M40.414 18.7966C40.938 19.6349 40.4505 20.7485 39.3577 21.2673C38.2648 21.7861 36.5344 22.2727 35.9257 21.2974C35.8735 21.204 35.843 21.1397 35.8323 21.1172L35.8293 21.1108C35.7896 21.0273 35.7629 20.9296 35.7397 20.8225C35.5216 19.7326 36.4166 18.9297 37.4739 18.5105C38.5073 18.0987 39.705 18.0579 40.1531 18.4793C40.2593 18.5785 40.3462 18.687 40.414 18.7966ZM39.4006 19.5573C39.4115 19.4143 39.3521 19.281 39.2126 19.1778C38.7925 18.8653 36.6907 19.5321 36.7918 20.4254C36.8065 20.5642 36.8714 20.6594 36.9689 20.7155C37.3194 20.9312 38.1128 20.6609 38.6431 20.4092C39.0931 20.1956 39.3849 19.8562 39.4021 19.5605L39.4006 19.5573Z" fill="url(#paint1_linear_3193_5273)"/>
<path d="M32.4711 19.6368C33.9546 19.551 35.0583 21.146 34.7374 22.1293C33.873 24.7886 31.5491 25.2695 30.9465 24.9293C28.2668 23.4247 30.5764 19.7525 32.4711 19.6368ZM33.5285 21.8643C34.093 21.1867 32.6152 20.0647 32.2435 20.8831C32.1952 20.9888 32.1801 21.1062 32.1967 21.2243C32.272 21.8227 33.057 22.4308 33.5285 21.8643Z" fill="#1E0D07"/>
<path style="mix-blend-mode:screen" d="M32.4711 19.6368C33.9546 19.551 35.0583 21.146 34.7374 22.1293C33.873 24.7886 31.5491 25.2695 30.9465 24.9293C28.2668 23.4247 30.5764 19.7525 32.4711 19.6368ZM33.5285 21.8643C34.093 21.1867 32.6152 20.0647 32.2435 20.8831C32.1952 20.9888 32.1801 21.1062 32.1967 21.2243C32.272 21.8227 33.057 22.4308 33.5285 21.8643Z" fill="url(#paint2_linear_3193_5273)"/>
<path d="M26.0406 19.7393C25.6903 19.9056 25.8428 19.14 25.8428 19.14C25.8428 19.14 26.4328 19.5531 26.0406 19.7393Z" fill="#E6A015"/>
<path d="M25.5497 19.6259C25.5497 19.6259 26.1033 20.4935 25.6062 20.5247C25.109 20.5559 25.5497 19.6259 25.5497 19.6259Z" fill="#E6A015"/>
<path d="M26.4143 18.9161C26.4143 18.9161 27.3627 19.3127 26.9697 19.6214C26.5766 19.93 26.4143 18.9161 26.4143 18.9161Z" fill="#E6A015"/>
<path d="M23.5593 14.6195L23.9087 15.3556C24.1056 15.7702 23.9436 16.1425 23.5511 16.187C23.1922 16.2274 22.8971 16.2612 22.8429 16.2633C23.1031 15.6829 23.3071 15.2 23.5593 14.6195Z" fill="#B81D07"/>
<g style="mix-blend-mode:screen">
<path d="M23.5593 14.6195L23.9087 15.3556C24.1056 15.7702 23.9436 16.1425 23.5511 16.187C23.1922 16.2274 22.8971 16.2612 22.8429 16.2633C23.1031 15.6829 23.3071 15.2 23.5593 14.6195Z" fill="#A81B06"/>
</g>
<path d="M27.0012 12.71C27.5423 12.9455 27.5667 13.5444 27.1227 13.9284L25.8217 15.0541C25.3746 15.4397 24.804 15.3246 24.541 14.7956L23.9786 13.6605C24.2181 13.1529 24.4643 12.7091 24.7461 12.3154C25.3319 12.3878 26.2834 12.4009 27.0012 12.71Z" fill="#B81D07"/>
<path style="mix-blend-mode:multiply" d="M27.0012 12.71C27.5423 12.9455 27.5667 13.5444 27.1227 13.9284L25.8217 15.0541C25.3746 15.4397 24.804 15.3246 24.541 14.7956L23.9786 13.6605C24.2181 13.1529 24.4643 12.7091 24.7461 12.3154C25.3319 12.3878 26.2834 12.4009 27.0012 12.71Z" fill="url(#paint3_linear_3193_5273)"/>
<g style="mix-blend-mode:screen">
<path d="M24.9193 13.1944C24.6401 13.2284 24.3682 13.2945 24.1116 13.3927C24.0668 13.4809 24.022 13.5691 23.9788 13.6605L24.5412 14.7957C24.8042 15.3246 25.3748 15.4398 25.8219 15.0542L26.9803 14.0513C26.562 13.1038 25.6193 13.2087 24.9193 13.1944Z" fill="#A81B06"/>
</g>
<path d="M29.2816 14.684C29.8232 15.5927 30.0213 16.6488 29.7808 17.6688C29.6481 18.2438 28.9839 18.4212 28.476 18.1228L26.6392 17.0412C26.1312 16.7427 26.0727 16.1797 26.5121 15.786L27.847 14.5576C28.2801 14.159 28.9784 14.1781 29.2816 14.684Z" fill="#B81D07"/>
<path style="mix-blend-mode:multiply" d="M29.2816 14.684C29.8232 15.5927 30.0213 16.6488 29.7808 17.6688C29.6481 18.2438 28.9839 18.4212 28.476 18.1228L26.6392 17.0412C26.1312 16.7427 26.0727 16.1797 26.5121 15.786L27.847 14.5576C28.2801 14.159 28.9784 14.1781 29.2816 14.684Z" fill="url(#paint4_linear_3193_5273)"/>
<g style="mix-blend-mode:screen">
<path d="M27.6716 14.7195L26.5119 15.786C26.0725 16.1797 26.131 16.7427 26.639 17.0411L27.6392 17.6297C28.3934 16.7794 28.2145 15.6473 27.6716 14.7195Z" fill="#A81B06"/>
</g>
<path d="M23.3732 17.1224C23.9191 17.0445 24.2325 17.4392 24.0729 18.0073L23.5169 19.9806C23.3573 20.5486 22.772 20.8423 22.2787 20.525C21.5718 20.0729 21.3955 19.5855 21.2098 19.327C21.6224 18.6861 22.0341 18.0102 22.3851 17.2646L23.3732 17.1224Z" fill="#B81D07"/>
<path style="mix-blend-mode:multiply" d="M23.3732 17.1224C23.9191 17.0445 24.2325 17.4392 24.0729 18.0073L23.5169 19.9806C23.3573 20.5486 22.772 20.8423 22.2787 20.525C21.5718 20.0729 21.3955 19.5855 21.2098 19.327C21.6224 18.6861 22.0341 18.0102 22.3851 17.2646L23.3732 17.1224Z" fill="url(#paint5_linear_3193_5273)"/>
<g style="mix-blend-mode:screen">
<path d="M23.3733 17.1225L22.3852 17.2646C22.2638 17.5231 22.1347 17.7656 22.0024 18.0096C22.3731 18.7158 23.0007 19.2332 23.6613 19.4631L24.0698 18.0089C24.2294 17.4408 23.916 17.046 23.3701 17.124L23.3733 17.1225Z" fill="#A81B06"/>
</g>
<path d="M22.8425 16.2632C22.8967 16.2611 23.1918 16.2274 23.5508 16.187C23.9432 16.1425 24.1052 15.7702 23.9083 15.3555L23.5528 14.6066C23.5528 14.6066 23.1259 13.6159 23.978 13.6604L24.5405 14.7955C24.8034 15.3245 25.374 15.4396 25.8212 15.0541L27.1222 13.9284C27.5661 13.5444 27.5417 12.9455 27.0007 12.71C26.2828 12.4009 25.3314 12.3878 24.7456 12.3153C24.6995 12.3096 24.6582 12.3056 24.6154 12.2984C24.36 12.2581 24.9171 11.3989 24.9171 11.3989C25.0714 11.4005 25.2226 11.4036 25.3688 11.413C28.2284 11.5876 30.0878 13.198 30.7337 15.1561C31.3633 17.0549 30.85 19.2758 28.9961 20.8214C25.4779 23.7479 22.0168 22.0904 20.5029 20.3947C20.4174 20.2975 20.3365 20.2019 20.2637 20.1065C20.2637 20.1065 20.5841 19.147 20.8772 19.1339C21.0285 19.1291 21.1178 19.2009 21.2091 19.3269C21.3948 19.5854 21.571 20.0728 22.278 20.5249C22.7712 20.8422 23.3566 20.5486 23.5162 19.9805L24.0722 18.0072C24.2318 17.4391 23.9184 17.0444 23.3725 17.1223L22.3844 17.2645C22.3844 17.2645 21.7673 16.5452 22.8361 16.2663L22.8425 16.2632ZM29.7799 17.6687C30.0204 16.6487 29.8224 15.5926 29.2807 14.6839C28.9775 14.178 28.2793 14.159 27.8462 14.5575L26.5112 15.786C26.0719 16.1796 26.1304 16.7426 26.6384 17.0411L28.4751 18.1227C28.9831 18.4211 29.6472 18.2437 29.7799 17.6687ZM28.2474 19.9992C28.516 19.7851 28.314 19.3098 27.8258 18.9784L26.1289 17.8264C25.6259 17.5217 25.1248 17.7438 25.0175 18.3225L24.558 20.2421C24.4238 20.8139 24.7917 21.3482 25.3772 21.279C26.1016 21.1872 26.8919 20.9105 27.7402 20.366C27.9208 20.2488 28.092 20.1281 28.2474 19.9992Z" fill="#FF5A27"/>
<path style="mix-blend-mode:screen" d="M22.8425 16.2632C22.8967 16.2611 23.1918 16.2274 23.5508 16.187C23.9432 16.1425 24.1052 15.7702 23.9083 15.3555L23.5528 14.6066C23.5528 14.6066 23.1259 13.6159 23.978 13.6604L24.5405 14.7955C24.8034 15.3245 25.374 15.4396 25.8212 15.0541L27.1222 13.9284C27.5661 13.5444 27.5417 12.9455 27.0007 12.71C26.2828 12.4009 25.3314 12.3878 24.7456 12.3153C24.6995 12.3096 24.6582 12.3056 24.6154 12.2984C24.36 12.2581 24.9171 11.3989 24.9171 11.3989C25.0714 11.4005 25.2226 11.4036 25.3688 11.413C28.2284 11.5876 30.0878 13.198 30.7337 15.1561C31.3633 17.0549 30.85 19.2758 28.9961 20.8214C25.4779 23.7479 22.0168 22.0904 20.5029 20.3947C20.4174 20.2975 20.3365 20.2019 20.2637 20.1065C20.2637 20.1065 20.5841 19.147 20.8772 19.1339C21.0285 19.1291 21.1178 19.2009 21.2091 19.3269C21.3948 19.5854 21.571 20.0728 22.278 20.5249C22.7712 20.8422 23.3566 20.5486 23.5162 19.9805L24.0722 18.0072C24.2318 17.4391 23.9184 17.0444 23.3725 17.1223L22.3844 17.2645C22.3844 17.2645 21.7673 16.5452 22.8361 16.2663L22.8425 16.2632ZM29.7799 17.6687C30.0204 16.6487 29.8224 15.5926 29.2807 14.6839C28.9775 14.178 28.2793 14.159 27.8462 14.5575L26.5112 15.786C26.0719 16.1796 26.1304 16.7426 26.6384 17.0411L28.4751 18.1227C28.9831 18.4211 29.6472 18.2437 29.7799 17.6687ZM28.2474 19.9992C28.516 19.7851 28.314 19.3098 27.8258 18.9784L26.1289 17.8264C25.6259 17.5217 25.1248 17.7438 25.0175 18.3225L24.558 20.2421C24.4238 20.8139 24.7917 21.3482 25.3772 21.279C26.1016 21.1872 26.8919 20.9105 27.7402 20.366C27.9208 20.2488 28.092 20.1281 28.2474 19.9992Z" fill="url(#paint6_linear_3193_5273)"/>
<path d="M44.64 13.3953C45.3469 13.8475 46.0706 14.6501 46.5228 15.6524C45.0965 14.2657 41.8546 15.8992 42.5487 18.0667C41.3505 15.8745 41.198 15.5531 39.2846 14.5591C39.2421 14.5359 39.2058 14.5177 39.1601 14.4961C39.5861 13.7424 39.6393 12.9334 39.6393 12.9334L38.9284 12.8298C38.9165 13.3356 38.8243 13.7969 38.6681 14.1979C37.199 13.2687 35.4283 11.6792 33.5815 10.7756L33.1009 9.76312C32.9074 9.96129 32.7314 10.163 32.5745 10.3635C32.4448 10.3227 32.3152 10.2818 32.1821 10.2504C29.5697 9.5843 27.4258 9.35744 26.0925 9.72648C26.0925 9.72648 24.1993 7.6713 26.881 6.26829C29.5612 4.86206 36.6492 5.82978 39.5413 8.46241C42.4302 11.0966 43.2261 12.4911 44.64 13.3953Z" fill="#EBAE4E"/>
<path style="mix-blend-mode:multiply" d="M44.6401 13.3954C43.2262 12.4911 42.4303 11.0966 39.5414 8.46243C36.6493 5.82981 29.5614 4.86209 26.8811 6.26832C25.6166 6.9316 25.3694 7.73822 25.4623 8.40697C28.2722 8.21136 31.3015 7.39955 34.0713 9.24346C35.6459 10.0714 38.0322 10.1202 39.4379 11.4222C40.7743 12.6941 42.2395 14.1214 43.5128 15.6753C44.4377 15.0432 45.7473 14.8981 46.5229 15.6524C46.0707 14.6501 45.347 13.8475 44.6401 13.3954Z" fill="url(#paint7_linear_3193_5273)"/>
<path style="mix-blend-mode:screen" d="M34.0716 9.24337C31.3019 7.39946 28.2725 8.21127 25.4627 8.40688C25.5652 9.15381 26.093 9.72641 26.093 9.72641C27.4263 9.35738 29.5702 9.58424 32.1826 10.2504C32.3156 10.2817 32.4453 10.3226 32.575 10.3634C32.7319 10.1629 32.9079 9.96123 33.1013 9.76306L33.5819 10.7755C35.4287 11.6791 37.1995 13.2686 38.6685 14.1979C38.8248 13.7968 38.9169 13.3356 38.9289 12.8297L39.6398 12.9334C39.6398 12.9334 39.5866 13.7424 39.1606 14.496C39.2063 14.5176 39.2425 14.5359 39.285 14.559C41.1984 15.553 41.351 15.8745 42.5492 18.0666C42.2336 17.0782 42.7368 16.2052 43.5132 15.6752C42.2367 14.1228 40.7746 12.694 39.4383 11.4221C38.0325 10.1201 35.6462 10.0713 34.0716 9.24337Z" fill="url(#paint8_linear_3193_5273)"/>
<path d="M26.6399 29.5458C27.3341 29.2163 27.9966 28.886 28.6658 28.5368C28.8235 28.4541 28.9779 28.3729 29.1341 28.287C29.4575 28.1138 29.7858 27.9343 30.1191 27.7485C32.7126 26.3007 34.4535 24.9899 37.284 24.174C40.113 23.3549 41.0102 22.2082 41.4897 20.862C41.9675 19.5206 43.1184 19.0412 43.1184 19.0412C42.8323 18.7123 42.6481 18.3823 42.5495 18.0667C41.8553 15.8992 45.0973 14.2657 46.5236 15.6525C46.982 16.6597 47.1609 17.8745 46.7769 19.1399C46.009 21.6706 45.2395 21.709 44.4072 22.1711C43.5734 22.6299 37.3929 25.6977 31.4776 28.6357C25.5655 31.5722 21.7387 33.3258 18.2831 34.8992C14.8308 36.471 14.0105 36.2697 13.997 35.6853C15.1852 35.4836 17.0152 34.2526 19.5108 32.9221C20.2012 32.5511 20.9457 32.178 21.741 31.8123C23.7186 30.9089 25.2462 30.2192 26.6399 29.5458Z" fill="#D28427"/>
<path style="mix-blend-mode:screen" d="M26.6399 29.5458C27.3341 29.2163 27.9966 28.886 28.6658 28.5368C28.8235 28.4541 28.9779 28.3729 29.1341 28.287C29.4575 28.1138 29.7858 27.9343 30.1191 27.7485C32.7126 26.3007 34.4535 24.9899 37.284 24.174C40.113 23.3549 41.0102 22.2082 41.4897 20.862C41.9675 19.5206 43.1184 19.0412 43.1184 19.0412C42.8323 18.7123 42.6481 18.3823 42.5495 18.0667C41.8553 15.8992 45.0973 14.2657 46.5236 15.6525C46.982 16.6597 47.1609 17.8745 46.7769 19.1399C46.009 21.6706 45.2395 21.709 44.4072 22.1711C43.5734 22.6299 37.3929 25.6977 31.4776 28.6357C25.5655 31.5722 21.7387 33.3258 18.2831 34.8992C14.8308 36.471 14.0105 36.2697 13.997 35.6853C15.1852 35.4836 17.0152 34.2526 19.5108 32.9221C20.2012 32.5511 20.9457 32.178 21.741 31.8123C23.7186 30.9089 25.2462 30.2192 26.6399 29.5458Z" fill="url(#paint9_linear_3193_5273)"/>
<path d="M22.2342 24.5554C26.3944 23.1556 28.3977 25.9817 29.0406 27.6182L29.0559 27.6503C28.8855 27.7312 28.6715 27.8446 28.4252 27.9812C27.9712 26.7592 25.9709 28.5358 26.4161 29.1003C26.1103 29.2692 25.7965 29.4378 25.4828 29.5985C24.4406 30.1327 23.2555 30.4156 22.3813 30.6731C22.3472 30.3938 22.2774 30.0725 22.221 29.7133C22.0931 28.8878 20.6726 29.0068 20.248 29.7716C19.9473 30.3082 19.6071 31.2259 19.7719 31.8802C19.4037 32.0668 19.068 32.2144 18.8284 32.2572C17.8602 30.5743 17.9322 27.598 20.1028 25.7405C20.6666 25.2523 21.372 24.8465 22.2342 24.5554ZM26.758 25.9211C26.9361 25.5412 25.8014 24.6029 25.5344 25.2849C25.2689 25.9702 26.5768 26.3026 26.758 25.9211ZM25.185 28.2078C25.4396 27.4332 24.5188 27.0117 24.0244 27.2148C23.5301 27.418 22.7115 28.5312 23.1939 28.9915C23.7293 29.5054 24.9288 28.9872 25.185 28.2078ZM22.0669 28.1441C22.9131 27.7778 23.3393 27.0162 22.8023 26.5819C22.2685 26.146 20.137 27.2563 20.3331 28.0179C20.5116 28.7091 21.2254 28.512 22.0669 28.1441Z" fill="#C14C2D"/>
<path style="mix-blend-mode:screen" d="M22.2342 24.5554C26.3944 23.1556 28.3977 25.9817 29.0406 27.6182L29.0559 27.6503C28.8855 27.7312 28.6715 27.8446 28.4252 27.9812C27.9712 26.7592 25.9709 28.5358 26.4161 29.1003C26.1103 29.2692 25.7965 29.4378 25.4828 29.5985C24.4406 30.1327 23.2555 30.4156 22.3813 30.6731C22.3472 30.3938 22.2774 30.0725 22.221 29.7133C22.0931 28.8878 20.6726 29.0068 20.248 29.7716C19.9473 30.3082 19.6071 31.2259 19.7719 31.8802C19.4037 32.0668 19.068 32.2144 18.8284 32.2572C17.8602 30.5743 17.9322 27.598 20.1028 25.7405C20.6666 25.2523 21.372 24.8465 22.2342 24.5554ZM26.758 25.9211C26.9361 25.5412 25.8014 24.6029 25.5344 25.2849C25.2689 25.9702 26.5768 26.3026 26.758 25.9211ZM25.185 28.2078C25.4396 27.4332 24.5188 27.0117 24.0244 27.2148C23.5301 27.418 22.7115 28.5312 23.1939 28.9915C23.7293 29.5054 24.9288 28.9872 25.185 28.2078ZM22.0669 28.1441C22.9131 27.7778 23.3393 27.0162 22.8023 26.5819C22.2685 26.146 20.137 27.2563 20.3331 28.0179C20.5116 28.7091 21.2254 28.512 22.0669 28.1441Z" fill="url(#paint10_linear_3193_5273)"/>
<path d="M29.0525 27.6518L29.1334 28.2869C28.9773 28.3728 28.8228 28.454 28.6652 28.5367L28.425 27.9812C28.6713 27.8446 28.8853 27.7312 29.0525 27.6518Z" fill="#8E2510"/>
<path d="M26.4162 29.1004C25.971 28.5359 27.9712 26.7593 28.4253 27.9813C27.8781 28.2804 27.171 28.6909 26.4162 29.1004Z" fill="#EFC89B"/>
<path d="M29.2373 16.3432C29.2708 16.729 28.6044 16.3207 28.6044 16.3207C28.6044 16.3207 29.1969 15.9094 29.2373 16.3432Z" fill="#E6A015"/>
<path d="M22.1107 18.9857C21.7872 18.7769 22.5138 18.4989 22.5138 18.4989C22.5138 18.4989 22.4784 19.2208 22.1107 18.9857Z" fill="#E6A015"/>
<path d="M28.6682 14.7034C28.9184 14.9981 28.1421 15.0555 28.1421 15.0555C28.1421 15.0555 28.3836 14.3776 28.6682 14.7034Z" fill="#E6A015"/>
<path d="M25.7874 12.7744C26.1528 12.6482 25.9228 13.3915 25.9228 13.3915C25.9228 13.3915 25.3769 12.922 25.7874 12.7744Z" fill="#E6A015"/>
<path d="M28.4248 27.9812L28.6649 28.5368C27.9956 28.8859 27.3332 29.2162 26.6389 29.5458L26.4451 29.1375C26.4451 29.1375 26.4217 29.1132 26.4156 29.1003C27.1704 28.6908 27.8775 28.2803 28.4248 27.9812Z" fill="#E2AE7A"/>
<path d="M25.5348 25.285C25.8018 24.6029 26.9365 25.5412 26.7584 25.9211C26.5772 26.3026 25.2693 25.9703 25.5348 25.285Z" fill="#EFC89B"/>
<path d="M27.6719 16.9763C27.6719 16.9763 28.6984 16.8986 28.4886 17.3526C28.2788 17.8067 27.6719 16.9763 27.6719 16.9763Z" fill="#E6A015"/>
<path d="M22.8023 26.582C23.3393 27.0163 22.9132 27.7779 22.0669 28.1442C21.2255 28.5121 20.5116 28.7092 20.3332 28.018C20.1371 27.2564 22.2685 26.1462 22.8023 26.582Z" fill="#EFC89B"/>
<path d="M26.4102 13.8375C26.4102 13.8375 26.6043 12.8277 26.9893 13.1491C27.3695 13.4688 26.4102 13.8375 26.4102 13.8375Z" fill="#E6A015"/>
<path d="M25.1054 13.5196C25.1054 13.5196 24.5049 12.6861 25.0011 12.6278C25.4972 12.5695 25.1054 13.5196 25.1054 13.5196Z" fill="#E6A015"/>
<path d="M20.2475 29.7716C20.6722 29.0068 22.0926 28.8878 22.2206 29.7132C22.2769 30.0725 22.3467 30.3938 22.3808 30.673C22.059 30.7667 21.7819 30.855 21.565 30.954C21.0686 31.1778 20.3776 31.5806 19.7715 31.8802C19.6066 31.2259 19.9469 30.3082 20.2475 29.7716Z" fill="#EFC89B"/>
<path d="M23.2721 18.6195C23.2721 18.6195 23.2606 19.649 22.8265 19.3982C22.3939 19.1506 23.2721 18.6195 23.2721 18.6195Z" fill="#E6A015"/>
<path style="mix-blend-mode:multiply" d="M25.8789 13.798C25.9955 13.1558 27.2116 12.8385 28.5911 13.0895C29.9706 13.3405 30.9966 14.0666 30.88 14.7087C30.7634 15.3509 29.5506 15.6667 28.1679 15.4172C26.7852 15.1677 25.7591 14.4417 25.8757 13.7995L25.8789 13.798Z" fill="url(#paint11_radial_3193_5273)"/>
<path style="mix-blend-mode:multiply" d="M25.6412 10.7327C26.1926 10.3843 27.2467 11.0615 28.0023 12.2467C28.7547 13.4335 28.9155 14.6766 28.3641 15.025C27.8126 15.3734 26.7586 14.6961 26.0062 13.5094C25.2538 12.3226 25.093 11.0796 25.6429 10.7279L25.6412 10.7327Z" fill="url(#paint12_radial_3193_5273)"/>
<path style="mix-blend-mode:multiply" d="M24.4535 25.1243C24.6413 24.4995 25.8832 24.3196 27.2278 24.7211C28.5724 25.1226 29.5119 25.9567 29.324 26.5815C29.1362 27.2063 27.8943 27.3862 26.5497 26.9847C25.2051 26.5832 24.2657 25.7491 24.4535 25.1243Z" fill="url(#paint13_radial_3193_5273)"/>
<path style="mix-blend-mode:multiply" d="M22.0912 27.2739C21.8313 26.6766 22.6621 25.7387 23.9501 25.1745C25.2363 24.6151 26.4899 24.6424 26.7514 25.2429C27.0113 25.8403 26.1805 26.7782 24.8925 27.3424C23.6063 27.9017 22.3527 27.8745 22.088 27.2755L22.0912 27.2739Z" fill="url(#paint14_radial_3193_5273)"/>
<path style="mix-blend-mode:multiply" d="M20.1752 29.1049C19.7347 28.6248 20.2167 27.4665 21.25 26.5152C22.2847 25.5671 23.4782 25.1856 23.9235 25.6674C24.3641 26.1475 23.8821 27.3058 22.8488 28.2571C21.8141 29.2052 20.6174 29.5882 20.1752 29.1049Z" fill="url(#paint15_radial_3193_5273)"/>
<path style="mix-blend-mode:multiply" d="M17.8129 31.7271C17.3724 31.247 17.8544 30.0887 18.8876 29.1374C19.9224 28.1893 21.1159 27.8079 21.5612 28.2897C22.0018 28.7698 21.5198 29.9281 20.4865 30.8794C19.4518 31.8275 18.2551 32.2105 17.8129 31.7271Z" fill="url(#paint16_radial_3193_5273)"/>
<path style="mix-blend-mode:multiply" d="M24.9978 20.2973C24.957 19.6471 26.3272 19.0321 28.0562 18.9243C29.7852 18.8164 31.2197 19.2579 31.2605 19.9081C31.3013 20.5582 29.9312 21.1732 28.2054 21.2796C26.4764 21.3875 25.0419 20.9459 25.0011 20.2958L24.9978 20.2973Z" fill="url(#paint17_radial_3193_5273)"/>
<path style="mix-blend-mode:multiply" d="M22.7125 20.7837C22.5504 20.1518 23.7807 19.292 25.459 18.8616C27.1373 18.4312 28.6299 18.597 28.7889 19.2305C28.951 19.8625 27.7207 20.7222 26.0424 21.1526C24.3641 21.583 22.8714 21.4172 22.7093 20.7853L22.7125 20.7837Z" fill="url(#paint18_radial_3193_5273)"/>
<path style="mix-blend-mode:multiply" d="M21.1195 22.7962C20.7533 22.2572 21.6218 21.0335 23.0582 20.0602C24.4929 19.0917 25.9546 18.7444 26.3176 19.2849C26.6837 19.824 25.8152 21.0476 24.3806 22.0162C22.9427 22.9863 21.4841 23.3321 21.1179 22.793L21.1195 22.7962Z" fill="url(#paint19_radial_3193_5273)"/>
<path d="M27.8678 15.7565C27.8678 15.7565 28.5128 14.958 28.6992 15.417C28.8871 15.8792 27.8678 15.7565 27.8678 15.7565Z" fill="#E6A015"/>
<path d="M26.4457 29.1377L26.6395 29.5459C25.2459 30.2192 23.7182 30.909 21.7406 31.8123C20.9453 32.178 20.2008 32.5511 19.5105 32.9222C19.2667 32.6243 18.8174 32.2587 18.8174 32.2587C18.8174 32.2587 18.8253 32.2588 18.8286 32.2573C19.0682 32.2145 19.4038 32.0669 19.7721 31.8803C19.7721 31.8803 21.2526 32.0952 22.3814 30.6732C23.2556 30.4157 24.4407 30.1328 25.483 29.5986C25.7966 29.4379 26.1104 29.2693 26.4162 29.1004C26.4223 29.1133 26.43 29.1294 26.4457 29.1377Z" fill="#8E2510"/>
<path d="M24.024 27.2148C24.5183 27.0117 25.4391 27.4332 25.1846 28.2078C24.9283 28.9872 23.7288 29.5054 23.1935 28.9915C22.7111 28.5312 23.5296 27.418 24.024 27.2148Z" fill="#EFC89B"/>
<path d="M42.5494 18.0668C41.3513 15.8746 41.1987 15.5532 39.2853 14.5591C39.2428 14.536 39.2065 14.5178 39.1608 14.4961C38.8273 15.0877 38.2637 15.6428 37.3131 15.7395C37.1376 15.7598 36.945 15.7607 36.7369 15.7453C37.626 15.6934 38.316 15.1059 38.6688 14.198C37.1997 13.2688 35.429 11.6792 33.5822 10.7757C32.5158 11.5576 31.3434 13.0122 32.2252 16.0398C31.9721 15.6558 31.7722 15.2347 31.6363 14.7991C31.2188 13.4218 31.4326 11.8394 32.572 10.3651C32.4423 10.3243 32.3127 10.2834 32.1796 10.252C29.5672 9.5859 27.4233 9.35904 26.09 9.72807C26.09 9.72807 25.9588 10.2315 25.643 10.8855C25.5757 10.9096 25.5266 10.9723 25.5518 11.0667C25.4953 11.1801 25.4325 11.2966 25.3649 11.4114C25.4507 11.4179 25.5301 11.4275 25.6127 11.4356C25.6227 11.4899 25.6343 11.5474 25.6568 11.6115C25.7216 11.7895 25.7999 11.9296 25.9227 12.0722C26.0844 12.2633 26.3426 12.4006 26.599 12.4679C26.6527 13.1868 26.8162 13.5976 27.4012 13.7098C27.6168 14.0644 27.9867 14.2629 28.3257 14.4958C28.6522 14.719 28.9486 14.7791 29.2374 14.7405C29.4712 14.8264 29.7286 14.7712 29.9805 14.6713C30.2474 14.9266 30.4726 15.0442 30.4726 15.0442C30.5508 15.0347 30.6117 15.0137 30.6742 14.9958C30.6954 15.0488 30.7166 15.1017 30.7345 15.1562C31.2742 16.7827 30.9703 18.6481 29.7051 20.123C29.5691 20.0025 29.3227 19.9895 29.024 20.1234C28.8617 20.1965 28.7005 20.2967 28.5392 20.4048C28.4685 20.3556 28.3947 20.3079 28.2969 20.2677C28.0082 20.1409 27.6609 20.0812 27.3471 20.0923C27.2468 20.0966 27.1446 20.1137 27.0375 20.1369C27.0217 20.1286 27.006 20.1204 26.9885 20.1168C26.9536 20.1098 26.8979 20.0338 26.8505 20.0169C26.7083 19.9663 26.5629 19.9171 26.4139 19.8855C26.1969 19.8349 25.9805 19.8352 25.7635 19.8594C25.5848 19.8812 25.327 19.9603 25.2125 20.1092C25.1505 20.1859 25.0741 20.2655 25.0056 20.3453C23.9905 20.4057 22.8756 21.1516 22.7126 21.9615C21.7943 21.5703 21.0295 20.9881 20.5053 20.3981C20.0832 21.0356 19.6853 21.6577 19.3809 22.3024C19.8367 22.1176 20.2856 22.2668 20.2856 22.2668C19.9156 23.1632 19.402 25.0849 19.402 25.0849C19.402 25.0849 18.8807 25.3639 18.4067 24.8799C17.7246 26.405 16.7019 28.009 15.3817 30.3056C13.6208 33.3747 12.3951 34.9412 13.9984 35.6885C15.1867 35.4868 17.0166 34.2558 19.5123 32.9254C19.2685 32.6276 18.8192 32.2619 18.8192 32.2619C18.8192 32.2619 18.8272 32.262 18.8304 32.2605C18.7812 32.1736 18.7385 32.0836 18.6926 31.9951C19.1152 31.6409 19.1582 31.4078 19.0107 31.3045C19.0467 31.2559 19.0746 31.2151 19.0813 31.1961C19.1996 30.9391 19.1639 30.7395 19.0914 30.4706C19.0752 30.4034 19.0576 30.333 19.0431 30.2611C20.1213 30.1511 21.2844 29.5398 21.4236 28.7294C21.5103 28.2235 22.05 27.8255 22.4421 27.2494C23.0872 27.148 23.6884 27.0123 24.3129 26.6686C24.7685 26.4169 25.4678 25.9155 25.6909 25.3567C27.0166 25.9838 27.841 26.841 27.8086 25.7023C27.8072 25.6912 27.8026 25.6815 27.8013 25.6704C28.4121 26.3099 28.8156 27.0439 29.0409 27.6262L29.0561 27.6584L29.1338 28.295C29.4573 28.1218 29.7856 27.9423 30.1189 27.7565C32.7124 26.3087 34.4533 24.9979 37.2838 24.182C40.1127 23.3629 41.0099 22.2162 41.4894 20.8701C41.9673 19.5286 43.1182 19.0492 43.1182 19.0492C42.8321 18.7203 42.6478 18.3903 42.5493 18.0747L42.5494 18.0668ZM39.5566 18.4162C39.4859 18.4498 39.4119 18.4849 39.3412 18.5184C38.9103 18.7308 38.6394 18.5916 38.4333 18.3232C38.8541 18.4464 39.2342 18.4589 39.5566 18.4162ZM33.0138 12.6564L33.8294 12.7733C33.8685 13.7434 34.2795 15.0489 36.4869 15.7497C34.945 15.7373 33.4579 14.7535 33.0138 12.6564ZM37.38 16.594L37.7996 17.4779C37.7996 17.4779 37.5613 17.6147 37.1779 17.7612C36.0709 18.1921 33.7591 18.7067 32.4233 16.316C33.4786 17.7094 35.4791 17.7917 37.38 16.594ZM29.0498 10.761C29.207 10.4698 30.0409 10.7081 30.1568 10.9523C30.2728 11.1966 30.1009 11.6642 29.872 11.8043C29.6432 11.9445 28.8942 11.0554 29.0498 10.761ZM26.5892 12.0906C26.5056 12.0554 26.4285 12.0093 26.3845 11.9829C26.2115 11.8839 26.1015 11.7352 26.024 11.5554C26.0118 11.5297 26.0076 11.5041 26.0001 11.4801C26.1985 11.508 26.3934 11.5454 26.582 11.5859C26.5832 11.7626 26.586 11.9345 26.5924 12.089L26.5892 12.0906ZM28.5355 14.1993C28.3139 14.0643 28.0751 13.9098 27.8797 13.7387C27.9848 13.7361 28.0948 13.7272 28.2144 13.7137C28.233 13.7364 28.2501 13.7558 28.2688 13.7785C28.4165 13.9486 28.5546 14.1233 28.704 14.2887C28.6488 14.2637 28.5921 14.2355 28.5355 14.1993ZM29.3216 14.3618C29.2964 14.3502 29.2694 14.3432 29.2412 14.3252C29.0354 14.1905 28.8716 13.9531 28.7195 13.7654C28.693 13.7346 28.6588 13.6957 28.6198 13.6552C28.8755 13.6047 29.0901 13.5422 29.2604 13.4614C29.3526 13.7799 29.4873 14.0389 29.6373 14.2553C29.5344 14.3041 29.4302 14.3418 29.3231 14.365L29.3216 14.3618ZM30.7207 24.7847C30.7207 24.7847 30.6909 24.7634 30.6784 24.7536L30.7276 24.7578C30.7276 24.7578 30.7209 24.7767 30.7207 24.7847ZM30.9208 24.4179C30.7206 24.4027 30.544 24.3959 30.3511 24.3379C30.2878 24.3207 30.1608 24.2273 30.0674 24.122C30.0335 24.0672 30.0012 24.0156 29.9737 23.9577C29.956 23.8873 29.9812 23.8242 30.0869 23.7898C30.5036 23.6471 30.9243 23.7782 31.3359 23.9649C31.1786 24.1065 31.0322 24.2627 30.9208 24.4179ZM15.3611 32.3281C15.1246 31.8298 16.2187 31.7122 16.245 31.9085C16.2712 32.1047 15.6159 32.8648 15.3611 32.3281ZM18.8036 30.7687C18.852 30.9702 18.7426 31.1049 18.6332 31.2395C18.5694 31.2461 18.499 31.2638 18.4286 31.2815C18.3351 30.9517 18.2739 30.5987 18.2495 30.2322C18.3955 30.2574 18.548 30.2717 18.7055 30.2717C18.74 30.4523 18.765 30.6295 18.8004 30.7702L18.8036 30.7687ZM21.0417 25.6102C21.0451 25.6755 21.0389 25.7454 20.993 25.8145C20.7087 26.2527 20.1032 26.9103 19.5624 26.8165C19.4397 26.8236 19.3158 26.8115 19.2007 26.7598C19.2007 26.7598 19.1976 26.7534 19.1912 26.7564C19.4405 26.3939 19.742 26.0499 20.1032 25.7406C20.4272 25.4607 20.8048 25.2106 21.2246 24.9916C21.2549 25.2214 21.1822 25.4332 21.04 25.6149L21.0417 25.6102ZM25.7317 24.5299C25.5606 24.6505 25.3492 24.7115 25.1178 24.6638C24.8262 24.6053 24.5273 24.4321 24.3655 24.1741C24.8859 24.1752 25.3587 24.2501 25.7841 24.383C25.7726 24.4002 25.7658 24.4192 25.7606 24.4414C25.7552 24.4715 25.7403 24.4983 25.7349 24.5284L25.7317 24.5299ZM27.7865 22.9677C27.8953 22.7073 28.2348 23.1487 28.1533 23.3173C28.0751 23.4844 27.5826 23.4425 27.7865 22.9677ZM29.1262 25.7898C28.7195 25.2069 29.5859 25.0989 29.6517 25.304C29.7176 25.509 29.3427 26.0966 29.1262 25.7898ZM34.1018 23.4278C33.6665 23.2327 33.1607 23.2208 32.6363 23.4933C32.5349 23.5454 32.4395 23.5434 32.3623 23.5052C32.3543 23.5051 32.3432 23.5064 32.3337 23.5031C32.1355 23.4672 31.8803 23.5686 31.6351 23.7323C31.3151 23.5809 30.9934 23.4343 30.6417 23.3571C30.4341 23.3099 30.0417 23.3543 29.7999 23.5085C29.3806 21.8289 31.0455 19.7191 32.4733 19.6321C33.9567 19.5463 35.0605 21.1413 34.7396 22.1246C34.5731 22.6369 34.3511 23.0653 34.1003 23.4246L34.1018 23.4278ZM35.5928 23.5983C35.2473 23.3685 35.7588 23.0272 35.9519 23.16C36.1496 23.2946 35.9414 23.8267 35.5928 23.5983ZM39.3596 21.7432C39.2754 21.8147 39.1695 21.8571 39.0666 21.9059C39.119 21.5266 38.9035 21.3217 38.5631 21.2352C38.8778 21.2591 39.1935 21.3849 39.3864 21.6005C39.4471 21.6702 39.4801 21.69 39.4911 21.6966C39.4769 21.6915 39.4325 21.6811 39.3628 21.7417L39.3596 21.7432ZM40.9461 20.5136C40.9461 20.5136 40.863 20.7618 40.549 21.0959C40.3863 21.2677 40.1611 21.4652 39.8515 21.6594C39.8512 21.6005 39.8269 21.5411 39.7612 21.4856C39.5703 21.3242 39.4584 21.1962 39.2447 21.0613C38.9995 20.9099 38.7498 20.8984 38.4714 20.8927C38.244 20.8865 38.0313 20.9362 37.8213 21.0083C37.669 21.0609 37.5478 21.1539 37.4328 21.2518C36.9263 21.3465 36.4387 21.5307 36.1898 21.7198C36.08 21.5632 35.9893 21.4054 35.928 21.2927C35.8909 21.2394 35.8586 21.1799 35.8346 21.1125L35.8315 21.1061C35.7918 21.0225 35.7652 20.9249 35.7419 20.8178C35.5281 19.7535 36.3782 18.9639 37.404 18.5361C37.5478 18.6648 37.7148 18.6682 37.925 18.6629C38.038 18.6605 38.1121 18.6174 38.1691 18.5549C38.4249 18.8864 38.7643 19.1034 39.2661 18.9243C39.5803 18.8146 39.8781 18.6456 40.1679 18.4844C40.2678 18.5788 40.3532 18.6839 40.418 18.7871C40.9508 19.2707 40.9462 20.5056 40.9462 20.5056L40.9461 20.5136Z" fill="#FFCE78"/>
<g style="mix-blend-mode:screen">
<path d="M13.252 34.7151C13.2689 35.1324 13.4901 35.4489 13.9961 35.6852C15.1843 35.4835 17.0143 34.2525 19.5099 32.9221C19.3221 32.6922 19.0155 32.4282 18.8826 32.314C16.8539 33.0683 15.1704 34.9978 13.252 34.7151Z" fill="#574629"/>
</g>
<g style="mix-blend-mode:screen">
<path d="M40.9421 20.515C40.9421 20.515 40.8591 20.7631 40.5451 21.0973L40.5386 21.1004C40.5386 21.1004 40.5204 21.1366 40.5121 21.1523C37.7242 24.9453 32.4628 24.8552 28.9401 27.3821C28.9782 27.4625 29.0084 27.5427 29.0403 27.6181L29.0555 27.6503L29.1332 28.2869C29.4567 28.1137 29.785 27.9342 30.1183 27.7484C32.7118 26.3006 34.4527 24.9898 37.2832 24.1739C40.1121 23.3548 41.0093 22.2081 41.4889 20.862C41.9667 19.5205 43.1176 19.0411 43.1176 19.0411C42.8579 18.743 42.6842 18.4434 42.5819 18.1532C41.7283 18.6451 41.3141 19.5231 40.9381 20.3239C40.9468 20.4419 40.9468 20.5167 40.9468 20.5167L40.9421 20.515Z" fill="#574629"/>
</g>
<path d="M21.5652 30.954C21.782 30.855 22.0592 30.7667 22.381 30.6731C21.2522 32.0951 19.7732 31.8834 19.7732 31.8834C20.3778 31.5807 21.0688 31.1778 21.5652 30.954Z" fill="#E2AE7A"/>
<path style="mix-blend-mode:multiply" d="M42.5494 18.0668C41.3513 15.8746 41.1987 15.5532 39.2853 14.5591C39.2428 14.536 39.2065 14.5178 39.1608 14.4961C38.8273 15.0877 38.2637 15.6428 37.3131 15.7395C37.1376 15.7598 36.945 15.7607 36.7369 15.7453C37.626 15.6934 38.316 15.1059 38.6688 14.198C37.1997 13.2688 35.429 11.6792 33.5822 10.7757C32.5158 11.5576 31.3434 13.0122 32.2252 16.0398C31.9721 15.6558 31.7722 15.2347 31.6363 14.7991C31.2188 13.4218 31.4326 11.8394 32.572 10.3651C32.4423 10.3243 32.3127 10.2834 32.1796 10.252C29.5672 9.5859 27.4233 9.35904 26.09 9.72807C26.09 9.72807 25.9588 10.2315 25.643 10.8855C25.5757 10.9096 25.5266 10.9723 25.5518 11.0667C25.4953 11.1801 25.4325 11.2966 25.3649 11.4114C25.4507 11.4179 25.5301 11.4275 25.6127 11.4356C25.6227 11.4899 25.6343 11.5474 25.6568 11.6115C25.7216 11.7895 25.7999 11.9296 25.9227 12.0722C26.0844 12.2633 26.3426 12.4006 26.599 12.4679C26.6527 13.1868 26.8162 13.5976 27.4012 13.7098C27.6168 14.0644 27.9867 14.2629 28.3257 14.4958C28.6522 14.719 28.9486 14.7791 29.2374 14.7405C29.4712 14.8264 29.7286 14.7712 29.9805 14.6713C30.2474 14.9266 30.4726 15.0442 30.4726 15.0442C30.5508 15.0347 30.6117 15.0137 30.6742 14.9958C30.6954 15.0488 30.7166 15.1017 30.7345 15.1562C31.2742 16.7827 30.9703 18.6481 29.7051 20.123C29.5691 20.0025 29.3227 19.9895 29.024 20.1234C28.8617 20.1965 28.7005 20.2967 28.5392 20.4048C28.4685 20.3556 28.3947 20.3079 28.2969 20.2677C28.0082 20.1409 27.6609 20.0812 27.3471 20.0923C27.2468 20.0966 27.1446 20.1137 27.0375 20.1369C27.0217 20.1286 27.006 20.1204 26.9885 20.1168C26.9536 20.1098 26.8979 20.0338 26.8505 20.0169C26.7083 19.9663 26.5629 19.9171 26.4139 19.8855C26.1969 19.8349 25.9805 19.8352 25.7635 19.8594C25.5848 19.8812 25.327 19.9603 25.2125 20.1092C25.1505 20.1859 25.0741 20.2655 25.0056 20.3453C23.9905 20.4057 22.8756 21.1516 22.7126 21.9615C21.7943 21.5703 21.0295 20.9881 20.5053 20.3981C20.0832 21.0356 19.6853 21.6577 19.3809 22.3024C19.8367 22.1176 20.2856 22.2668 20.2856 22.2668C19.9156 23.1632 19.402 25.0849 19.402 25.0849C19.402 25.0849 18.8807 25.3639 18.4067 24.8799C17.7246 26.405 16.7019 28.009 15.3817 30.3056C13.6208 33.3747 12.3951 34.9412 13.9984 35.6885C15.1867 35.4868 17.0166 34.2558 19.5123 32.9254C19.2685 32.6276 18.8192 32.2619 18.8192 32.2619C18.8192 32.2619 18.8272 32.262 18.8304 32.2605C18.7812 32.1736 18.7385 32.0836 18.6926 31.9951C19.1152 31.6409 19.1582 31.4078 19.0107 31.3045C19.0467 31.2559 19.0746 31.2151 19.0813 31.1961C19.1996 30.9391 19.1639 30.7395 19.0914 30.4706C19.0752 30.4034 19.0576 30.333 19.0431 30.2611C20.1213 30.1511 21.2844 29.5398 21.4236 28.7294C21.5103 28.2235 22.05 27.8255 22.4421 27.2494C23.0872 27.148 23.6884 27.0123 24.3129 26.6686C24.7685 26.4169 25.4678 25.9155 25.6909 25.3567C27.0166 25.9838 27.841 26.841 27.8086 25.7023C27.8072 25.6912 27.8026 25.6815 27.8013 25.6704C28.4121 26.3099 28.8156 27.0439 29.0409 27.6262L29.0561 27.6584L29.1338 28.295C29.4573 28.1218 29.7856 27.9423 30.1189 27.7565C32.7124 26.3087 34.4533 24.9979 37.2838 24.182C40.1127 23.3629 41.0099 22.2162 41.4894 20.8701C41.9673 19.5286 43.1182 19.0492 43.1182 19.0492C42.8321 18.7203 42.6478 18.3903 42.5493 18.0747L42.5494 18.0668ZM39.5566 18.4162C39.4859 18.4498 39.4119 18.4849 39.3412 18.5184C38.9103 18.7308 38.6394 18.5916 38.4333 18.3232C38.8541 18.4464 39.2342 18.4589 39.5566 18.4162ZM33.0138 12.6564L33.8294 12.7733C33.8685 13.7434 34.2795 15.0489 36.4869 15.7497C34.945 15.7373 33.4579 14.7535 33.0138 12.6564ZM37.38 16.594L37.7996 17.4779C37.7996 17.4779 37.5613 17.6147 37.1779 17.7612C36.0709 18.1921 33.7591 18.7067 32.4233 16.316C33.4786 17.7094 35.4791 17.7917 37.38 16.594ZM29.0498 10.761C29.207 10.4698 30.0409 10.7081 30.1568 10.9523C30.2728 11.1966 30.1009 11.6642 29.872 11.8043C29.6432 11.9445 28.8942 11.0554 29.0498 10.761ZM26.5892 12.0906C26.5056 12.0554 26.4285 12.0093 26.3845 11.9829C26.2115 11.8839 26.1015 11.7352 26.024 11.5554C26.0118 11.5297 26.0076 11.5041 26.0001 11.4801C26.1985 11.508 26.3934 11.5454 26.582 11.5859C26.5832 11.7626 26.586 11.9345 26.5924 12.089L26.5892 12.0906ZM28.5355 14.1993C28.3139 14.0643 28.0751 13.9098 27.8797 13.7387C27.9848 13.7361 28.0948 13.7272 28.2144 13.7137C28.233 13.7364 28.2501 13.7558 28.2688 13.7785C28.4165 13.9486 28.5546 14.1233 28.704 14.2887C28.6488 14.2637 28.5921 14.2355 28.5355 14.1993ZM29.3216 14.3618C29.2964 14.3502 29.2694 14.3432 29.2412 14.3252C29.0354 14.1905 28.8716 13.9531 28.7195 13.7654C28.693 13.7346 28.6588 13.6957 28.6198 13.6552C28.8755 13.6047 29.0901 13.5422 29.2604 13.4614C29.3526 13.7799 29.4873 14.0389 29.6373 14.2553C29.5344 14.3041 29.4302 14.3418 29.3231 14.365L29.3216 14.3618ZM30.7207 24.7847C30.7207 24.7847 30.6909 24.7634 30.6784 24.7536L30.7276 24.7578C30.7276 24.7578 30.7209 24.7767 30.7207 24.7847ZM30.9208 24.4179C30.7206 24.4027 30.544 24.3959 30.3511 24.3379C30.2878 24.3207 30.1608 24.2273 30.0674 24.122C30.0335 24.0672 30.0012 24.0156 29.9737 23.9577C29.956 23.8873 29.9812 23.8242 30.0869 23.7898C30.5036 23.6471 30.9243 23.7782 31.3359 23.9649C31.1786 24.1065 31.0322 24.2627 30.9208 24.4179ZM15.3611 32.3281C15.1246 31.8298 16.2187 31.7122 16.245 31.9085C16.2712 32.1047 15.6159 32.8648 15.3611 32.3281ZM18.8036 30.7687C18.852 30.9702 18.7426 31.1049 18.6332 31.2395C18.5694 31.2461 18.499 31.2638 18.4286 31.2815C18.3351 30.9517 18.2739 30.5987 18.2495 30.2322C18.3955 30.2574 18.548 30.2717 18.7055 30.2717C18.74 30.4523 18.765 30.6295 18.8004 30.7702L18.8036 30.7687ZM21.0417 25.6102C21.0451 25.6755 21.0389 25.7454 20.993 25.8145C20.7087 26.2527 20.1032 26.9103 19.5624 26.8165C19.4397 26.8236 19.3158 26.8115 19.2007 26.7598C19.2007 26.7598 19.1976 26.7534 19.1912 26.7564C19.4405 26.3939 19.742 26.0499 20.1032 25.7406C20.4272 25.4607 20.8048 25.2106 21.2246 24.9916C21.2549 25.2214 21.1822 25.4332 21.04 25.6149L21.0417 25.6102ZM25.7317 24.5299C25.5606 24.6505 25.3492 24.7115 25.1178 24.6638C24.8262 24.6053 24.5273 24.4321 24.3655 24.1741C24.8859 24.1752 25.3587 24.2501 25.7841 24.383C25.7726 24.4002 25.7658 24.4192 25.7606 24.4414C25.7552 24.4715 25.7403 24.4983 25.7349 24.5284L25.7317 24.5299ZM27.7865 22.9677C27.8953 22.7073 28.2348 23.1487 28.1533 23.3173C28.0751 23.4844 27.5826 23.4425 27.7865 22.9677ZM29.1262 25.7898C28.7195 25.2069 29.5859 25.0989 29.6517 25.304C29.7176 25.509 29.3427 26.0966 29.1262 25.7898ZM34.1018 23.4278C33.6665 23.2327 33.1607 23.2208 32.6363 23.4933C32.5349 23.5454 32.4395 23.5434 32.3623 23.5052C32.3543 23.5051 32.3432 23.5064 32.3337 23.5031C32.1355 23.4672 31.8803 23.5686 31.6351 23.7323C31.3151 23.5809 30.9934 23.4343 30.6417 23.3571C30.4341 23.3099 30.0417 23.3543 29.7999 23.5085C29.3806 21.8289 31.0455 19.7191 32.4733 19.6321C33.9567 19.5463 35.0605 21.1413 34.7396 22.1246C34.5731 22.6369 34.3511 23.0653 34.1003 23.4246L34.1018 23.4278ZM35.5928 23.5983C35.2473 23.3685 35.7588 23.0272 35.9519 23.16C36.1496 23.2946 35.9414 23.8267 35.5928 23.5983ZM39.3596 21.7432C39.2754 21.8147 39.1695 21.8571 39.0666 21.9059C39.119 21.5266 38.9035 21.3217 38.5631 21.2352C38.8778 21.2591 39.1935 21.3849 39.3864 21.6005C39.4471 21.6702 39.4801 21.69 39.4911 21.6966C39.4769 21.6915 39.4325 21.6811 39.3628 21.7417L39.3596 21.7432ZM40.9461 20.5136C40.9461 20.5136 40.863 20.7618 40.549 21.0959C40.3863 21.2677 40.1611 21.4652 39.8515 21.6594C39.8512 21.6005 39.8269 21.5411 39.7612 21.4856C39.5703 21.3242 39.4584 21.1962 39.2447 21.0613C38.9995 20.9099 38.7498 20.8984 38.4714 20.8927C38.244 20.8865 38.0313 20.9362 37.8213 21.0083C37.669 21.0609 37.5478 21.1539 37.4328 21.2518C36.9263 21.3465 36.4387 21.5307 36.1898 21.7198C36.08 21.5632 35.9893 21.4054 35.928 21.2927C35.8909 21.2394 35.8586 21.1799 35.8346 21.1125L35.8315 21.1061C35.7918 21.0225 35.7652 20.9249 35.7419 20.8178C35.5281 19.7535 36.3782 18.9639 37.404 18.5361C37.5478 18.6648 37.7148 18.6682 37.925 18.6629C38.038 18.6605 38.1121 18.6174 38.1691 18.5549C38.4249 18.8864 38.7643 19.1034 39.2661 18.9243C39.5803 18.8146 39.8781 18.6456 40.1679 18.4844C40.2678 18.5788 40.3532 18.6839 40.418 18.7871C40.9508 19.2707 40.9462 20.5056 40.9462 20.5056L40.9461 20.5136Z" fill="url(#paint20_linear_3193_5273)"/>
<path style="mix-blend-mode:screen" d="M30.2721 23.367C30.868 24.1908 32.3514 21.8482 31.416 21.2052C30.4806 20.5622 29.6421 22.4963 30.2721 23.367Z" fill="url(#paint21_linear_3193_5273)"/>
<g style="mix-blend-mode:screen">
<path d="M46.3345 16.3172C46.3566 16.2476 46.4128 16.2249 46.4683 16.234C46.5111 16.1664 46.5617 16.107 46.6215 16.0588C46.453 15.8947 46.2391 15.7677 46.0091 15.6564C45.9429 15.6248 45.8812 15.6029 45.8259 15.5858C45.909 15.6448 45.9807 15.7211 46.0138 15.8156C46.1057 16.0674 45.9632 16.265 45.7104 16.3299C45.528 16.3771 45.4193 16.3223 45.3561 16.2224C45.2978 16.3485 45.071 16.3104 45.0839 16.1468C45.0954 15.9719 45.143 15.7485 45.27 15.6095C45.1188 15.5316 44.9705 15.4681 44.8633 15.4165C44.7419 15.3599 44.5528 15.3433 44.3537 15.3552C44.3545 15.3902 44.3537 15.43 44.3338 15.471C44.3238 15.4914 44.3154 15.5151 44.3022 15.5372C44.2939 15.7853 44.1804 16.044 43.9951 16.2343C43.8277 16.4044 43.5722 16.5217 43.3371 16.4246C43.3166 16.4146 43.2993 16.4031 43.2789 16.3932C43.231 16.4001 43.1848 16.4024 43.1403 16.3999C42.9748 16.632 42.8633 16.8701 42.8289 17.2291C42.7233 17.3304 42.6583 17.4755 42.6896 17.6575C42.7596 18.0457 42.9988 18.2591 43.2759 18.3284C43.3044 18.4133 43.3456 18.5001 43.3853 18.5837C43.4844 18.4854 43.61 18.41 43.7424 18.3984C44.0086 18.3784 44.1458 18.5929 44.1152 18.8437C44.0996 18.985 44.054 19.2706 43.8477 19.2425C43.7429 19.2292 43.6567 19.1638 43.5883 19.086C43.5858 19.1305 43.5849 19.1703 43.5857 19.2133C43.6375 19.2477 43.691 19.2775 43.7399 19.2976C43.8565 19.3525 43.789 19.5421 43.6724 19.4872C43.6519 19.4772 43.6314 19.4672 43.6094 19.4541C43.6294 19.5627 43.6512 19.6666 43.689 19.7629C43.501 19.6158 43.2431 19.5453 43.0085 19.5739C42.9383 19.5836 42.8743 19.5982 42.8136 19.6113C42.8613 19.6122 42.9073 19.618 42.9532 19.6316C42.9899 19.626 43.0251 19.6172 43.0602 19.6163C43.2753 19.6048 43.5532 19.6343 43.686 19.8312C43.8467 20.0701 43.8157 20.3368 43.7134 20.5941C43.6681 20.7062 43.5409 20.7784 43.4241 20.7314C43.4241 20.7314 43.4143 20.744 43.403 20.7533L43.3805 20.764C43.378 20.8085 43.3487 20.8381 43.3039 20.8515C43.3051 20.8707 43.3046 20.8945 43.3026 20.9152C43.2807 21.0516 43.1989 21.1613 43.0815 21.221C43.0796 21.2337 43.073 21.2447 43.068 21.2589C42.8712 21.5414 42.5414 21.6349 42.2412 21.4505C42.0181 21.3123 41.7917 21.018 41.8801 20.7397C41.8801 20.7397 41.8802 20.7397 41.8834 20.7382C41.6988 20.814 41.5463 20.9573 41.4694 21.1355C41.553 21.0959 41.6808 21.1494 41.6846 21.2736C41.6925 21.5141 41.5621 21.7374 41.362 21.8718C41.312 21.9074 41.2526 21.9316 41.1902 21.9495C41.1078 22.0083 41.041 22.0833 40.9851 22.1729C40.6709 22.3574 40.3881 22.724 40.2796 23.0513C40.2676 23.0924 40.2683 23.1354 40.2834 23.1755C40.0446 23.1786 39.7645 23.41 39.7158 23.6143C39.6738 23.7996 39.7132 23.8991 39.7982 23.9454C39.7947 24.0377 39.8086 24.1334 39.8465 24.2297C39.8709 24.2811 39.9335 24.3302 39.9924 24.3298C40.2948 24.328 40.5388 24.0704 40.6022 23.7725C40.6376 23.7557 40.6667 23.734 40.6876 23.7201C40.7249 23.6906 40.7668 23.6628 40.8105 23.6303C40.8789 23.7081 41.0028 23.7202 41.0844 23.6184C41.1759 23.5041 41.2737 23.3119 41.3826 23.1263L41.3922 23.1218C41.3983 23.2922 41.509 23.4011 41.782 23.3621C42.2544 23.2954 42.5998 22.9857 42.9199 22.6644C42.8649 22.4739 42.9774 22.2629 43.1952 22.1989C43.2905 22.0513 43.447 21.9494 43.6311 21.9723C43.774 21.9911 43.9018 22.0447 43.9601 22.1509C44.0342 22.1079 44.1037 22.0552 44.1546 21.9798C44.2333 21.8637 44.2688 21.7641 44.2721 21.6798C44.4912 21.8594 44.7123 21.7111 44.8882 21.5174C44.9132 21.537 44.9432 21.5503 44.9747 21.5669C44.9753 21.5351 44.976 21.5032 44.9782 21.4746C44.9967 21.1901 45.0535 20.6709 45.4191 20.6115C45.606 20.5819 45.8079 20.6672 45.9324 20.805C46.053 20.5115 46.1372 20.2076 46.1867 20.0463C46.2753 19.76 46.4672 19.3263 46.5198 18.9311C46.5508 18.8967 46.5787 18.8559 46.6082 18.8103C46.507 18.7796 46.4125 18.7299 46.3309 18.6742C46.1253 18.5315 45.9402 18.324 45.8865 18.0698C45.8243 17.7646 45.9808 17.5052 46.2169 17.3222C46.3123 17.2494 46.4219 17.1816 46.5356 17.1473C46.33 16.9298 46.2377 16.6192 46.3264 16.325L46.3345 16.3172ZM41.9539 22.737C41.8896 22.7675 41.8043 22.7371 41.7738 22.6728C41.7265 22.5732 41.7 22.4676 41.6847 22.3606C41.6613 22.3363 41.646 22.3041 41.6501 22.2628C41.6537 22.1626 41.6724 22.0278 41.7332 21.9319C41.7383 21.9177 41.7402 21.905 41.7467 21.894C41.7766 21.8325 41.8328 21.8098 41.8853 21.8125C42.0102 21.7768 42.132 21.8096 42.2223 21.9085C42.5042 22.2119 42.2626 22.5825 41.9539 22.737ZM44.2546 20.3569C44.1939 20.4448 44.1463 20.5934 44.1128 20.7551C44.1046 20.7629 44.0997 20.7691 44.0916 20.7769C44.0668 20.6666 44.0275 20.5671 43.9673 20.4736C43.9729 20.4355 43.9752 20.3989 43.9775 20.3624C44.0198 20.3187 44.0604 20.2797 44.1025 20.244C44.1623 20.2786 44.2254 20.3038 44.2889 20.3131C44.2791 20.3256 44.2645 20.3364 44.2563 20.3522L44.2546 20.3569ZM45.0564 17.7234C45.0758 17.7891 45.0999 17.8564 45.1367 17.9256C45.2224 18.0897 45.4893 18.1126 45.4268 18.3708C45.4266 18.3787 45.4217 18.385 45.4215 18.393C45.2473 18.2748 45.0452 18.1975 44.8468 18.1695C44.8649 18.1413 44.883 18.113 44.9059 18.0784C44.9367 17.9772 44.9709 17.8585 45.0163 17.7385C45.0292 17.7324 45.0436 17.7295 45.058 17.7266L45.0564 17.7234ZM44.0423 17.2714C43.9047 17.2304 43.9316 17.0049 44.0888 17.0209C44.1921 17.0309 44.2524 16.959 44.3611 17.0137C44.4526 17.0569 44.4833 17.1881 44.4702 17.2849C44.4458 17.4658 44.3133 17.4854 44.1554 17.5013C44.0199 17.5144 43.9676 17.3462 44.0406 17.2761L44.0423 17.2714ZM43.8205 18.3889C43.7989 18.3598 43.7755 18.3354 43.7553 18.3096C43.9379 18.2544 44.1025 18.1448 44.214 17.9815C44.3388 18.0286 44.4517 18.0341 44.554 18.0092C44.5387 18.0598 44.5249 18.1136 44.5127 18.1627C44.4792 18.1668 44.4425 18.1724 44.4105 18.1797C44.2568 18.1463 44.1006 18.1575 43.9617 18.2549C43.9085 18.292 43.863 18.3372 43.8222 18.3841L43.8205 18.3889ZM44.4684 18.7745C44.4822 18.8783 44.5024 18.9789 44.5402 19.0752C44.3096 18.9877 44.2782 18.8884 44.4286 18.7737C44.4413 18.7756 44.4557 18.7727 44.4684 18.7745ZM45.8598 19.9218C45.8151 20.0848 45.7592 20.2492 45.6955 20.4055C45.7237 20.2739 45.7105 20.1384 45.6209 20.0077C45.5777 19.9415 45.4744 19.9314 45.4101 19.962C45.2526 20.0367 45.0814 20.2401 44.9492 20.4762C44.9458 20.4108 44.9359 20.3486 44.9085 20.2907C44.9348 20.2467 44.958 20.2042 44.9828 20.1569C45.0227 20.1498 45.061 20.1474 45.1043 20.1308C45.2728 20.0626 45.3832 19.9551 45.4559 19.826C45.7192 19.7916 45.9307 19.5652 45.9213 19.2467C45.9154 19.0683 45.8613 18.9128 45.7783 18.7711C45.7916 18.7411 45.7985 18.7142 45.8102 18.689C45.8525 18.7201 45.8998 18.7449 45.9473 18.7538C45.965 18.8242 45.9874 18.8963 46.0115 18.9636C46.0294 19.0181 46.0877 19.0495 46.1447 19.0619C46.0663 19.3945 45.9062 19.7541 45.8518 19.9217L45.8598 19.9218Z" fill="#302717"/>
<path d="M39.4342 23.7995C39.3691 23.7122 39.2459 23.6683 39.0383 23.7039C38.7843 23.7496 38.503 23.8871 38.2572 24.0746C38.2508 24.0777 38.2444 24.0808 38.2395 24.087C38.1133 24.1863 38.0027 24.3018 37.9079 24.4256C37.9109 24.432 37.914 24.4385 37.9155 24.4417C37.9362 24.5185 37.9119 24.6167 37.9297 24.6791C37.9774 24.8376 37.834 25.0002 37.6855 25.0274C37.6679 25.0318 37.6504 25.0283 37.633 25.0248C37.6458 25.1014 37.7179 25.1538 37.7924 25.1697C38.0412 25.2209 38.2996 24.9604 38.1183 24.7196C38.1592 24.6647 38.2049 24.6115 38.2536 24.5648C38.504 24.9264 39.0396 25.1172 39.322 24.6168C39.393 24.4926 39.4668 24.3079 39.4878 24.1364C39.6739 24.0638 39.6242 23.7684 39.4311 23.7931L39.4342 23.7995ZM39.0765 24.249L39.0025 24.284C38.6875 24.4336 38.4571 23.9482 38.7721 23.7987L38.8461 23.7636C39.1611 23.6141 39.3915 24.0994 39.0765 24.249Z" fill="#302717"/>
<path d="M37.2573 24.6988C37.2252 24.7141 37.1932 24.7214 37.161 24.7366C36.9926 24.6473 36.7858 24.643 36.5731 24.6928C36.6565 24.8934 36.6034 25.155 36.4514 25.3492C36.2472 25.6076 35.8626 25.6602 35.5877 25.4796C35.5124 25.4287 35.4484 25.3685 35.402 25.3039C35.3786 25.2795 35.36 25.2569 35.3398 25.231C35.2928 25.273 35.2473 25.3182 35.2049 25.3699C34.9922 25.4196 34.7737 25.5154 34.6161 25.5982C34.4699 25.5888 34.3061 25.6587 34.154 25.7781C34.0953 25.7705 34.0349 25.7677 33.9645 25.7854C33.9863 25.9641 33.9838 26.1661 33.8693 26.315C33.75 26.4701 33.5596 26.4423 33.4151 26.3455C33.2393 26.2241 33.4265 25.9462 33.6038 26.0708C33.6132 26.0742 33.6148 26.0774 33.621 26.0823C33.6278 26.0634 33.6361 26.0476 33.6381 26.027C33.644 25.973 33.637 25.9251 33.6364 25.8741C33.4026 25.9458 33.1952 26.0481 33.0674 26.227C33.0545 26.2331 33.0449 26.2376 33.0353 26.2422C33.229 26.3433 33.3636 26.5275 33.2726 26.7755C33.1294 27.1625 32.6829 27.4414 32.3016 27.1774C32.1839 27.0954 32.108 26.9936 32.0688 26.8861L32.0497 26.8873C32.0497 26.8873 32.0458 26.9207 32.047 26.9398C32.047 27.0146 31.9326 27.0059 31.9278 26.9294C31.9248 26.923 31.9297 26.9167 31.9299 26.9088C31.7762 26.9502 31.6343 27.0412 31.5293 27.1934C31.4016 27.2895 31.307 27.4053 31.2519 27.5299C30.9179 27.3655 30.5223 27.3288 30.4638 27.778C30.4505 27.8828 30.4608 28.0039 30.4934 28.1224C30.448 28.1597 30.4059 28.1954 30.3716 28.2393C30.0846 28.2652 29.7375 28.43 29.507 28.6497C29.395 28.6792 29.2764 28.7198 29.1654 28.7764C28.8465 28.5694 28.2358 28.8593 28.0605 29.2615C27.825 29.3379 27.598 29.4653 27.4433 29.6372C27.5669 29.9724 27.5117 30.3373 27.0794 30.3889C26.7172 30.4309 26.4312 30.2516 26.2822 29.9875C26.2822 29.9875 26.2758 29.9906 26.2726 29.9921C26.2552 30.0633 26.2507 30.1285 26.2865 30.1706C26.3796 30.2839 26.5269 30.3204 26.6649 30.3455C26.9091 30.3871 26.954 30.6808 26.8255 30.8167C26.8546 30.795 26.8791 30.7636 26.8892 30.7352C26.8926 30.7257 26.8928 30.7178 26.893 30.7098C26.9495 30.746 27.0111 30.7679 27.0731 30.774C27.0866 30.736 27.0986 30.6949 27.1215 30.6604C27.2296 30.5146 27.4031 30.3574 27.5845 30.3579C27.5429 30.1374 27.623 29.8749 27.7722 29.741C27.9181 29.6087 28.1022 29.5568 28.2606 29.5919C28.4045 29.4054 28.6386 29.2431 28.8733 29.2065C28.8435 29.1852 28.8201 29.1609 28.7998 29.1429C28.8287 29.1292 28.8607 29.1219 28.891 29.1193C28.8942 29.1178 28.8974 29.1163 28.9006 29.1148C28.9182 29.1104 28.9358 29.1059 28.955 29.1047C28.9758 29.0988 28.9981 29.0961 29.0221 29.0886C29.0029 29.0978 28.9805 29.1005 28.9582 29.1032C28.9374 29.1091 28.9166 29.1151 28.8942 29.1178C28.8365 29.1373 28.8437 29.1773 28.8765 29.205C28.9244 29.198 28.9706 29.1958 29.0166 29.2015C29.0248 29.1937 29.0344 29.1891 29.0363 29.1764C29.0601 29.1021 29.0791 29.0261 29.1029 28.9518C29.0859 29.0071 29.0704 29.1405 29.0293 29.2033C29.0739 29.2058 29.1182 29.2163 29.1609 29.2315C29.194 29.2433 29.2208 29.2582 29.2475 29.273C29.2929 29.2358 29.3367 29.1953 29.3883 29.1629C29.5168 29.0271 29.6812 28.9254 29.8776 28.8912C29.9144 28.8856 29.9526 28.8832 29.9908 28.8808C29.9774 28.836 29.9625 28.7879 29.9379 28.7445C29.9833 28.7072 30.0269 28.6747 30.0707 28.6342C30.1215 28.6416 30.1755 28.6475 30.2247 28.6516C30.2214 28.7359 30.2403 28.8254 30.2718 28.9168C30.3304 28.9323 30.3856 28.9573 30.4408 28.9823C30.6614 28.468 31.2592 28.1094 31.8147 28.1844C31.7814 28.0978 31.769 28.0052 31.7948 27.9103C31.8682 27.6667 32.1206 27.7005 32.3332 27.8083C32.3364 27.8067 32.3396 27.8052 32.3429 27.8037C32.4058 27.762 32.4843 27.7365 32.5671 27.7366C32.6347 27.6218 32.6969 27.5372 32.7397 27.5444C32.7825 27.5517 32.8302 27.5526 32.8796 27.5489C33.0254 27.6569 33.194 27.6635 33.3237 27.472C33.3614 27.4187 33.3966 27.3271 33.4225 27.2321C33.5206 27.2564 33.6224 27.2633 33.718 27.2573C33.8583 27.2458 33.9472 27.176 34.0081 27.0802C34.2763 27.0395 34.444 26.8535 34.5217 26.6355C34.5438 26.6407 34.5677 26.6412 34.5916 26.6417C34.5664 26.4725 34.5937 26.3059 34.733 26.1846C34.8967 26.04 35.1612 26.0247 35.3203 26.1855C35.3796 26.244 35.4096 26.3322 35.4205 26.4215C35.5653 26.3449 35.7252 26.3084 35.889 26.3133C35.9339 26.2171 35.9616 26.1095 35.9702 26.003C36.3312 26.0916 36.6281 25.8955 36.7764 25.6439C37.1509 25.7773 37.7086 25.6661 37.4472 25.0656C37.4746 25.0486 37.4955 25.0347 37.5229 25.0178C37.449 24.9781 37.3947 24.9054 37.3662 24.8204C37.3286 24.791 37.3007 24.757 37.2744 24.7183L37.2573 24.6988Z" fill="#302717"/>
<path d="M18.3358 33.8738C18.2554 33.9119 18.1969 33.9712 18.1511 34.0323C18.045 34.0079 17.9223 34.0897 17.9263 34.206C17.8747 34.2383 17.8262 34.2771 17.7777 34.3159C17.7956 34.3704 17.804 34.4295 17.7964 34.4882C17.77 34.6898 17.4998 34.9835 17.2981 34.8075C17.2261 34.7471 17.1853 34.6444 17.1699 34.5375C17.1563 34.5833 17.149 34.6262 17.145 34.6675C17.1234 34.788 16.9312 34.7729 16.9527 34.6524C16.9615 34.6128 16.972 34.5684 16.9809 34.5209C16.7523 34.5703 16.4933 34.7051 16.3037 34.8699C16.0444 34.863 15.7704 34.9577 15.5837 35.1369C15.3613 35.1164 15.1118 35.2545 14.9862 35.4796C14.927 35.4959 14.8644 35.5216 14.8033 35.5506C14.921 35.6326 14.9535 35.8338 14.7864 35.9131L14.706 35.9513C14.706 35.9513 14.6788 35.9603 14.6644 35.9632C14.6624 35.9838 14.6571 36.006 14.6519 36.0282C14.7566 35.9666 14.8838 35.8944 14.9801 35.8566C15.091 35.9576 15.143 35.9841 15.3093 35.9445C15.3909 35.9255 15.4594 35.8457 15.4563 35.7645C15.4767 35.7745 15.5004 35.7829 15.5243 35.7834C15.7216 35.7843 15.749 35.7673 15.9168 35.6561C15.962 35.6268 15.9924 35.5415 15.9759 35.4902C15.955 35.4214 15.9259 35.3683 15.895 35.3199C15.9419 35.2858 15.9918 35.2582 16.0497 35.2307C16.011 35.4066 16.1449 35.5558 16.5705 35.5979C16.8009 35.6185 16.8686 35.421 16.831 35.234C16.8578 35.2489 16.8845 35.2637 16.9194 35.2708C17.0999 35.319 17.2564 35.292 17.3614 35.2146C17.4039 35.0802 17.4969 34.9691 17.6617 34.9263C17.7257 34.9117 17.7942 34.9067 17.8625 34.9177C17.8753 34.9116 17.8851 34.899 17.8996 34.8882C17.9626 34.8465 18.0308 34.8574 18.0762 34.895C18.0763 34.887 18.0795 34.8855 18.0797 34.8775C18.0901 34.7584 18.065 34.664 18.0204 34.5867C18.0771 34.5401 18.1288 34.4998 18.1723 34.4752C18.2141 34.5302 18.2639 34.5853 18.3393 34.6362C18.4146 34.687 18.4865 34.6726 18.54 34.6275C18.5908 34.6349 18.6356 34.6215 18.6757 34.6064C18.4831 34.3749 18.3603 34.0748 18.412 33.8021C18.3877 33.8255 18.3586 33.8472 18.3358 33.8738Z" fill="#302717"/>
<path d="M21.9638 32.5729C21.8535 32.4401 21.6695 32.3345 21.4867 32.3228C21.4561 32.3413 21.4254 32.3598 21.3979 32.3847C21.3183 32.383 21.2336 32.4036 21.1452 32.4416C20.9553 32.6223 20.9834 32.9635 21.0373 33.2096C21.0418 33.2193 21.0242 33.2237 21.0196 33.2141C20.9717 32.9887 20.9483 32.6572 21.097 32.4644C21.0167 32.5026 20.9379 32.5439 20.8619 32.5997C20.6048 32.5642 20.2308 32.7221 20.0072 32.9149C19.8316 32.9431 19.678 33.0593 19.5635 33.2082C19.5713 33.2163 19.5823 33.2229 19.5901 33.231C19.7135 33.2669 19.8302 33.3218 19.9237 33.4192C20.0297 33.5265 20.0777 33.6691 20.0795 33.814C20.3522 33.8657 20.7092 33.6884 20.7255 33.4325C20.8378 33.4698 20.9603 33.4707 21.0457 33.4183C21.1634 33.3427 21.2258 33.2501 21.2501 33.1519C21.1611 32.9894 21.164 32.7714 21.2989 32.6325C21.307 32.6247 21.3179 32.6393 21.3098 32.647C21.1862 32.7766 21.1885 32.9724 21.2633 33.1299C21.2911 33.1719 21.3285 33.2092 21.3661 33.2387C21.4336 33.2066 21.5043 33.1731 21.5843 33.1508C21.5908 33.1478 21.5941 33.1383 21.5958 33.1335C21.7054 32.991 21.8777 32.8894 22.0637 32.8248C22.0623 32.7388 22.0338 32.6539 21.9686 32.5746L21.9638 32.5729Z" fill="#302717"/>
<path d="M23.8622 31.5853C23.8076 31.6112 23.7236 31.592 23.7014 31.512C23.6836 31.4495 23.6769 31.3858 23.6687 31.3187C23.2852 31.2409 22.8728 31.4839 22.6366 31.8244C22.5535 31.8402 22.4655 31.8623 22.3691 31.9081C22.2598 31.96 22.1325 32.0401 22.0158 32.1428C21.8372 32.1566 21.6562 32.215 21.5047 32.3106C21.7397 32.3329 21.9819 32.4779 22.0601 32.7007C22.0737 32.7376 22.0808 32.7775 22.08 32.8173C22.1585 32.7919 22.2353 32.7711 22.3167 32.7601C22.3456 32.6715 22.387 32.5928 22.4407 32.5318C22.5434 32.4162 22.8323 32.2948 23.1359 32.2373C23.1607 32.1901 23.1903 32.1445 23.2246 32.1007C23.1849 32.0171 23.1292 31.9411 23.0459 31.8901C23.1399 31.8061 23.246 31.7557 23.3704 31.7439C23.3063 31.8413 23.2773 31.9378 23.2914 32.0256C23.5193 31.7756 23.8448 31.6566 24.1384 31.9347C24.1388 31.836 24.1186 31.7354 24.0696 31.6405C24.0219 31.6395 23.9726 31.6353 23.9299 31.6201C23.9062 31.6117 23.8842 31.5985 23.8638 31.5885L23.8622 31.5853Z" fill="#302717"/>
<path d="M25.7624 30.2935C25.5504 30.3115 25.286 30.4764 25.0594 30.6627C24.9402 30.6523 24.8173 30.6673 24.7081 30.7192C24.6824 30.7314 24.6534 30.7451 24.6213 30.7604C24.6901 30.8223 24.7394 30.9013 24.7484 31.0033C24.7778 31.2808 24.4904 31.5551 24.2057 31.6272C24.2804 31.7847 24.4051 31.9146 24.5808 31.9612C24.6663 31.9836 24.7304 31.961 24.7891 31.8938C24.8495 31.8218 24.8858 31.7573 24.903 31.694C25.0953 31.7839 25.3482 31.5615 25.4636 31.4397C25.7305 31.1555 25.6164 30.8985 25.3835 30.7648C25.4962 30.7035 25.6191 30.6885 25.7601 30.72L25.7814 30.765C25.8058 30.8164 25.8434 30.8458 25.8846 30.8578C25.9588 30.9644 26.0883 31.0132 26.2742 30.9486C26.3319 30.929 26.3586 30.8691 26.3724 30.8153C26.1383 30.7452 25.9228 30.6231 25.8048 30.3994C25.7896 30.3673 25.7822 30.3353 25.7702 30.3016L25.7624 30.2935Z" fill="#302717"/>
</g>
<g style="mix-blend-mode:screen">
<path d="M23.6114 18.4707C23.4907 18.3823 23.3544 18.8172 23.578 18.782C23.8015 18.7468 23.6114 18.4707 23.6114 18.4707Z" fill="url(#paint22_linear_3193_5273)"/>
<path d="M26.0411 18.7351C25.9203 18.6467 25.7841 19.0816 26.0077 19.0464C26.2312 19.0112 26.0411 18.7351 26.0411 18.7351Z" fill="url(#paint23_linear_3193_5273)"/>
<path d="M25.1124 14.0404C24.9916 13.952 24.8554 14.3868 25.079 14.3516C25.3025 14.3164 25.1124 14.0404 25.1124 14.0404Z" fill="url(#paint24_linear_3193_5273)"/>
<path d="M27.5928 17.1165C27.4721 17.0281 27.3359 17.463 27.5594 17.4278C27.783 17.3926 27.5928 17.1165 27.5928 17.1165Z" fill="url(#paint25_linear_3193_5273)"/>
<path d="M22.5976 18.2351C22.6064 18.038 22.3812 17.688 22.1953 17.9102C22.0142 18.1261 22.2549 18.2599 22.4002 18.317C22.4181 18.4543 22.5198 18.6187 22.6478 18.5067C22.7726 18.3963 22.6855 18.2958 22.5961 18.2319L22.5976 18.2351Z" fill="url(#paint26_linear_3193_5273)"/>
<path d="M24.6094 13.8693C24.6182 13.6721 24.393 13.3221 24.207 13.5443C24.0259 13.7603 24.2667 13.8941 24.4119 13.9512C24.4298 14.0884 24.5315 14.2528 24.6595 14.1409C24.7843 14.0304 24.6972 13.9299 24.6078 13.866L24.6094 13.8693Z" fill="url(#paint27_linear_3193_5273)"/>
<path d="M26.0221 13.9077C26.1382 14.0692 26.5286 14.2029 26.5393 13.9103C26.5482 13.6304 26.2768 13.6726 26.1247 13.7172C26.028 13.6213 25.8431 13.5555 25.8126 13.7235C25.7838 13.8869 25.9138 13.9118 26.0221 13.9077Z" fill="url(#paint28_linear_3193_5273)"/>
<path d="M25.5206 18.8996C25.3557 18.7928 24.9416 18.8082 25.0363 19.0823C25.1296 19.3452 25.3679 19.2084 25.4909 19.1107C25.6155 19.1657 25.8097 19.1601 25.7781 18.994C25.748 18.831 25.6171 18.8538 25.5159 18.8979L25.5206 18.8996Z" fill="url(#paint29_linear_3193_5273)"/>
<path d="M27.8262 15.509C27.8858 15.3193 27.7538 14.925 27.5164 15.0968C27.2902 15.2593 27.4869 15.4496 27.6139 15.5429C27.5952 15.6778 27.6519 15.8635 27.8047 15.7871C27.9525 15.7169 27.8945 15.5948 27.823 15.5105L27.8262 15.509Z" fill="url(#paint30_linear_3193_5273)"/>
<path d="M23.2907 18.7251C23.3003 18.5709 22.7974 18.5654 22.9055 18.8096C22.9604 18.9253 23.0416 18.9222 23.1188 18.8855C23.0723 19.1361 23.5069 19.1306 23.5069 19.1306C23.6672 19.0702 23.462 18.7541 23.2875 18.7267L23.2907 18.7251Z" fill="url(#paint31_linear_3193_5273)"/>
<path d="M26.4893 18.5264C26.3523 18.4535 26.1393 18.9091 26.4082 18.9115C26.5372 18.9093 26.5689 18.8352 26.5627 18.7475C26.7714 18.8966 26.9467 18.4943 26.9467 18.4943C26.955 18.321 26.5846 18.3787 26.4893 18.5264Z" fill="url(#paint32_linear_3193_5273)"/>
<path d="M25.198 13.4993C25.1018 13.3795 24.7242 13.7124 24.9718 13.8193C25.0902 13.8695 25.1487 13.8102 25.1789 13.7328C25.3097 13.9504 25.6341 13.6546 25.6341 13.6546C25.7105 13.5002 25.3496 13.4037 25.1995 13.5025L25.198 13.4993Z" fill="url(#paint33_linear_3193_5273)"/>
<path d="M27.7425 16.4113C27.6073 16.4833 27.8675 16.9152 28.0169 16.6906C28.0875 16.5823 28.0396 16.5144 27.9673 16.47C28.2031 16.3777 27.9703 16.0117 27.9703 16.0117C27.8339 15.907 27.6726 16.2475 27.7425 16.4113Z" fill="url(#paint34_linear_3193_5273)"/>
</g>
<path style="mix-blend-mode:screen" d="M27.0653 20.3873C27.2816 21.0172 26.3179 21.9158 24.9107 22.3947C23.5068 22.8721 22.1931 22.7514 21.98 22.12C21.7637 21.4901 22.7274 20.5915 24.1346 20.1125C25.5385 19.6351 26.8522 19.7559 27.0653 20.3873Z" fill="url(#paint35_radial_3193_5273)"/>
<path style="mix-blend-mode:screen" d="M31.101 20.6656C31.4839 21.7875 29.9019 23.3419 27.5668 24.1393C25.2301 24.9334 23.0264 24.6719 22.6452 23.5453C22.2623 22.4234 23.8442 20.869 26.1794 20.0716C28.5145 19.2743 30.7165 19.5405 31.0994 20.6624L31.101 20.6656Z" fill="url(#paint36_radial_3193_5273)"/>
<path style="mix-blend-mode:screen" d="M25.0503 21.9505C25.9723 24.6478 24.8227 27.4779 22.4891 28.2785C20.1524 29.0727 17.5149 27.5323 16.596 24.8333C15.6755 22.1392 16.8236 19.3059 19.1603 18.5117C21.4955 17.7143 24.1345 19.258 25.055 21.9521L25.0503 21.9505Z" fill="url(#paint37_radial_3193_5273)"/>
<path style="mix-blend-mode:screen" d="M37.2319 14.124C38.154 16.8214 37.0043 19.6515 34.6707 20.4521C32.334 21.2463 29.6965 19.7058 28.7777 17.0069C27.8572 14.3128 29.0053 11.4794 31.342 10.6853C33.6771 9.88793 36.3161 11.4315 37.2367 14.1257L37.2319 14.124Z" fill="url(#paint38_radial_3193_5273)"/>
<path style="mix-blend-mode:screen" d="M38.119 18.8977C37.9724 20.074 35.8699 20.7806 33.422 20.4775C30.9725 20.1712 29.1063 18.9697 29.2529 17.7933C29.3995 16.617 31.502 15.9104 33.95 16.2135C36.3979 16.5166 38.2656 17.7214 38.119 18.8977Z" fill="url(#paint39_radial_3193_5273)"/>
<path style="mix-blend-mode:screen" d="M35.1694 23.0707C35.4893 24.002 34.1754 25.2913 32.2394 25.9504C30.3033 26.6095 28.4776 26.3891 28.1624 25.4596C27.8439 24.5316 29.1563 23.2391 31.0923 22.58C33.0269 21.9177 34.8541 22.1412 35.1694 23.0707Z" fill="url(#paint40_radial_3193_5273)"/>
<path style="mix-blend-mode:screen" d="M40.5628 12.6611C41.0252 14.0169 39.1152 15.8925 36.296 16.8566C33.4753 17.8175 30.8145 17.4973 30.3552 16.1399C29.8943 14.7873 31.8027 12.9085 34.6235 11.9476C37.4427 10.9835 40.1018 11.3084 40.5628 12.6611Z" fill="url(#paint41_radial_3193_5273)"/>
<path style="mix-blend-mode:screen" d="M42.7731 12.3323C43.8276 13.3008 43.0431 15.863 41.0232 18.0546C39.0018 20.243 36.5132 21.2314 35.4604 20.2582C34.4091 19.2881 35.1936 16.7259 37.2103 14.5358C39.2301 12.3442 41.7203 11.359 42.7716 12.329L42.7731 12.3323Z" fill="url(#paint42_radial_3193_5273)"/>
<path style="mix-blend-mode:screen" d="M31.2836 8.94454C31.6665 10.0664 30.0846 11.6208 27.7494 12.4182C25.4127 13.2124 23.209 12.9509 22.8278 11.8242C22.4449 10.7023 24.0269 9.14791 26.362 8.35054C28.6972 7.55318 30.8992 7.81943 31.2821 8.94133L31.2836 8.94454Z" fill="url(#paint43_radial_3193_5273)"/>
<path style="mix-blend-mode:multiply" d="M23.3711 27.017C23.9528 27.6782 23.3107 29.1961 21.9395 30.4063C20.5636 31.6148 18.9804 32.0631 18.3987 31.4018C17.817 30.7406 18.4607 29.2259 19.8351 28.0142C21.2094 26.8025 22.7941 26.3574 23.3759 27.0187L23.3711 27.017Z" fill="url(#paint44_radial_3193_5273)"/>
<path style="mix-blend-mode:multiply" d="M26.376 25.8115C26.6006 26.4256 25.3832 27.4289 23.6628 28.0526C21.9423 28.6763 20.3633 28.6854 20.142 28.0697C19.9189 27.4588 21.1347 26.4524 22.8552 25.8286C24.5756 25.2049 26.1514 25.1974 26.3744 25.8083L26.376 25.8115Z" fill="url(#paint45_radial_3193_5273)"/>
<path style="mix-blend-mode:multiply" d="M18.3027 31.7706C18.5273 32.3847 17.31 33.388 15.5895 34.0117C13.869 34.6354 12.2901 34.6445 12.0687 34.0288C11.8457 33.4179 13.0615 32.4115 14.7819 31.7878C16.5024 31.164 18.0781 31.1565 18.3012 31.7674L18.3027 31.7706Z" fill="url(#paint46_radial_3193_5273)"/>
<path style="mix-blend-mode:multiply" d="M30.0433 28.8913C29.5088 29.2671 28.4218 28.6449 27.6129 27.4968C26.804 26.3486 26.581 25.1154 27.1107 24.7379C27.642 24.3636 28.7322 24.9843 29.5411 26.1324C30.35 27.2805 30.573 28.5138 30.0433 28.8913Z" fill="url(#paint47_radial_3193_5273)"/>
<path style="mix-blend-mode:multiply" d="M30.4713 18.6013C29.8235 18.5228 29.4405 17.3261 29.6139 15.9323C29.7872 14.5385 30.4519 13.4746 31.1012 13.5563C31.7489 13.6348 32.1319 14.8315 31.9586 16.2253C31.7852 17.6191 31.1205 18.683 30.4713 18.6013Z" fill="url(#paint48_radial_3193_5273)"/>
<path style="mix-blend-mode:multiply" d="M30.607 19.6003C29.9593 19.5218 29.5763 18.3251 29.7496 16.9313C29.923 15.5374 30.5877 14.4736 31.2369 14.5553C31.8847 14.6338 32.2676 15.8305 32.0943 17.2243C31.921 18.6181 31.2563 19.682 30.607 19.6003Z" fill="url(#paint49_radial_3193_5273)"/>
<path style="mix-blend-mode:multiply" d="M29.3941 21.0112C28.7912 20.7617 28.7357 19.508 29.2699 18.2107C29.8041 16.9134 30.7271 16.0617 31.33 16.3112C31.9328 16.5606 31.9884 17.8143 31.4541 19.1116C30.9199 20.4089 29.9969 21.2606 29.3956 21.0144L29.3941 21.0112Z" fill="url(#paint50_radial_3193_5273)"/>
<path style="mix-blend-mode:multiply" d="M33.6314 25.0495C33.0285 24.8 32.973 23.5464 33.5072 22.249C34.0414 20.9517 34.9644 20.1 35.5672 20.3495C36.1701 20.599 36.2256 21.8526 35.6914 23.1499C35.1572 24.4473 34.2342 25.2989 33.6329 25.0527L33.6314 25.0495Z" fill="url(#paint51_radial_3193_5273)"/>
<path style="mix-blend-mode:multiply" d="M23.2511 22.9546C22.8931 22.4077 23.5578 21.3439 24.7322 20.5737C25.9081 19.8067 27.1484 19.6236 27.5065 20.1705C27.863 20.7141 27.1998 21.7812 26.0254 22.5514C24.8495 23.3183 23.6077 23.4982 23.2511 22.9546Z" fill="url(#paint52_radial_3193_5273)"/>
<path style="mix-blend-mode:multiply" d="M34.1779 17.5073C33.8198 16.9605 34.4846 15.8966 35.6589 15.1264C36.8348 14.3595 38.0752 14.1764 38.4333 14.7232C38.7898 15.2668 38.1266 16.3339 36.9522 17.1041C35.7763 17.871 34.5344 18.0509 34.1779 17.5073Z" fill="url(#paint53_radial_3193_5273)"/>
<path style="mix-blend-mode:multiply" d="M28.2716 24.1473C27.7168 23.8002 27.8744 22.5556 28.6213 21.3661C29.3681 20.1766 30.4182 19.493 30.9729 19.8402C31.5261 20.1841 31.3701 21.4319 30.6232 22.6214C29.8763 23.8109 28.8263 24.4945 28.2716 24.1473Z" fill="url(#paint54_radial_3193_5273)"/>
<path style="mix-blend-mode:multiply" d="M24.675 10.4551C24.9251 8.57584 28.4088 7.4932 32.453 8.03106C36.4955 8.57365 39.5685 10.5336 39.3199 12.416C39.0698 14.2953 35.5893 15.3764 31.5451 14.8385C27.4994 14.2975 24.4281 12.3328 24.6797 10.4568L24.675 10.4551Z" fill="url(#paint55_radial_3193_5273)"/>
<path style="mix-blend-mode:multiply" d="M36.8178 25.3087C35.1839 24.3475 35.5478 20.7167 37.6202 17.2004C39.6989 13.689 42.6998 11.6225 44.3353 12.587C45.966 13.5497 45.6085 17.1775 43.5314 20.6921C41.4574 24.2052 38.4518 26.27 36.8163 25.3055L36.8178 25.3087Z" fill="url(#paint56_radial_3193_5273)"/>
<path style="mix-blend-mode:multiply" d="M14.7061 33.0801C13.4825 32.3612 13.7546 29.6405 15.3076 27.0128C16.8637 24.3836 19.1107 22.8364 20.3326 23.5601C21.5529 24.2805 21.2825 26.9965 19.7311 29.6274C18.1781 32.2551 15.9279 33.8038 14.7061 33.0801Z" fill="url(#paint57_radial_3193_5273)"/>
<path style="mix-blend-mode:screen" d="M29.8683 12.3771C30.0665 12.9605 29.2463 13.7634 28.0363 14.1763C26.8262 14.5892 25.6848 14.4497 25.4849 13.8711C25.2883 13.2909 26.1069 12.4849 27.317 12.0719C28.527 11.659 29.6685 11.7985 29.8683 12.3771Z" fill="url(#paint58_radial_3193_5273)"/>
<path style="mix-blend-mode:screen" d="M32.1134 9.42467C32.9896 9.8516 33.242 11.13 32.6853 12.2804C32.1239 13.4292 30.9565 14.0149 30.082 13.5832C29.2058 13.1562 28.9535 11.8779 29.5149 10.7291C30.0763 9.58037 31.2405 8.99621 32.1182 9.42636L32.1134 9.42467Z" fill="url(#paint59_radial_3193_5273)"/>
<path style="mix-blend-mode:screen" d="M21.7689 28.9434C21.9296 29.4145 21.0809 30.1325 19.8709 30.5454C18.6609 30.9584 17.5509 30.9102 17.3887 30.4358C17.2281 29.9646 18.0767 29.2467 19.2868 28.8337C20.4968 28.4208 21.6067 28.4689 21.7689 28.9434Z" fill="url(#paint60_radial_3193_5273)"/>
<path style="mix-blend-mode:screen" d="M21.9881 17.9377C23.3811 18.6983 22.291 23.363 19.5582 28.3507C16.8207 33.3367 13.4801 36.7618 12.0857 35.998C10.6959 35.2359 11.7843 30.5759 14.5171 25.5882C17.2498 20.6005 20.5952 17.1771 21.9864 17.9424L21.9881 17.9377Z" fill="url(#paint61_radial_3193_5273)"/>
<path style="mix-blend-mode:screen" d="M39.1134 21.1827C39.3116 21.7661 38.4914 22.5689 37.2814 22.9819C36.0714 23.3948 34.9299 23.2553 34.7301 22.6766C34.5334 22.0965 35.352 21.2904 36.5621 20.8775C37.7721 20.4645 38.9136 20.6041 39.1134 21.1827Z" fill="url(#paint62_radial_3193_5273)"/>
<path style="mix-blend-mode:screen" d="M23.3707 29.6366C23.6229 30.0683 20.6593 32.2549 16.752 34.5194C12.8446 36.7838 9.47517 38.273 9.2262 37.8398C8.97402 37.4081 11.9376 35.2215 15.8449 32.957C19.7507 30.6894 23.1217 29.2034 23.3707 29.6366Z" fill="url(#paint63_radial_3193_5273)"/>
<path style="mix-blend-mode:screen" d="M36.4296 23.7602C36.64 24.2117 33.9011 25.9175 30.3135 27.5694C26.7258 29.2213 23.6487 30.1897 23.4415 29.7366C23.2311 29.2851 25.97 27.5793 29.5576 25.9274C33.1453 24.2755 36.2224 23.3071 36.4296 23.7602Z" fill="url(#paint64_radial_3193_5273)"/>
<path style="mix-blend-mode:screen" d="M40.6816 22.0217C40.8295 22.3415 39.928 23.0726 38.6701 23.6501C37.4121 24.2276 36.2714 24.4382 36.1236 24.1185C35.9757 23.7987 36.8772 23.0676 38.1351 22.4901C39.3931 21.9126 40.5338 21.702 40.6816 22.0217Z" fill="url(#paint65_radial_3193_5273)"/>
<path style="mix-blend-mode:screen" d="M38.2903 23.456C38.3779 23.6822 37.3984 24.2654 36.1007 24.7593C34.8063 25.2517 33.6863 25.4643 33.5986 25.2381C33.5109 25.0119 34.4905 24.4288 35.7849 23.9364C37.0794 23.444 38.1994 23.2314 38.287 23.4576L38.2903 23.456Z" fill="url(#paint66_radial_3193_5273)"/>
<path style="mix-blend-mode:screen" d="M43.4815 16.8444C43.7733 17.0525 43.1665 18.3961 42.1247 19.8438C41.0829 21.2915 40.0055 22.2991 39.7169 22.0895C39.4252 21.8814 40.0319 20.5379 41.0738 19.0902C42.1156 17.6425 43.1897 16.6363 43.4815 16.8444Z" fill="url(#paint67_radial_3193_5273)"/>
<defs>
<linearGradient id="paint0_linear_3193_5273" x1="26.8556" y1="20.9401" x2="26.1175" y2="19.5181" gradientUnits="userSpaceOnUse">
<stop stop-color="#A66138"/>
<stop offset="1" stop-color="white"/>
</linearGradient>
<linearGradient id="paint1_linear_3193_5273" x1="39.8202" y1="21.5282" x2="38.4404" y2="20.2809" gradientUnits="userSpaceOnUse">
<stop stop-color="#8F6321"/>
<stop offset="0.22" stop-color="#533913"/>
<stop offset="0.47" stop-color="#2E200B"/>
<stop offset="0.73" stop-color="#100B04"/>
<stop offset="1"/>
</linearGradient>
<linearGradient id="paint2_linear_3193_5273" x1="34.488" y1="24.2091" x2="31.618" y2="21.8969" gradientUnits="userSpaceOnUse">
<stop stop-color="#8F6321"/>
<stop offset="0.22" stop-color="#533913"/>
<stop offset="0.47" stop-color="#2E200B"/>
<stop offset="0.73" stop-color="#100B04"/>
<stop offset="1"/>
</linearGradient>
<linearGradient id="paint3_linear_3193_5273" x1="25.7863" y1="12.1918" x2="25.6242" y2="14.8289" gradientUnits="userSpaceOnUse">
<stop stop-color="#A66138"/>
<stop offset="1" stop-color="white"/>
</linearGradient>
<linearGradient id="paint4_linear_3193_5273" x1="29.8532" y1="16.0708" x2="27.591" y2="16.4909" gradientUnits="userSpaceOnUse">
<stop stop-color="#A66138"/>
<stop offset="1" stop-color="white"/>
</linearGradient>
<linearGradient id="paint5_linear_3193_5273" x1="21.3071" y1="19.8638" x2="23.0029" y2="18.7318" gradientUnits="userSpaceOnUse">
<stop stop-color="#A66138"/>
<stop offset="1" stop-color="white"/>
</linearGradient>
<linearGradient id="paint6_linear_3193_5273" x1="21.2066" y1="15.9449" x2="28.3589" y2="17.7367" gradientUnits="userSpaceOnUse">
<stop stop-color="#F25D30"/>
<stop offset="1"/>
</linearGradient>
<linearGradient id="paint7_linear_3193_5273" x1="38.8104" y1="5.45383" x2="36.8931" y2="9.71176" gradientUnits="userSpaceOnUse">
<stop stop-color="#CC9B7E"/>
<stop offset="1" stop-color="white"/>
</linearGradient>
<linearGradient id="paint8_linear_3193_5273" x1="34.0292" y1="13.1863" x2="35.9714" y2="9.11351" gradientUnits="userSpaceOnUse">
<stop stop-color="#FFDE8C"/>
<stop offset="1"/>
</linearGradient>
<linearGradient id="paint9_linear_3193_5273" x1="32.8177" y1="30.3469" x2="30.055" y2="25.3567" gradientUnits="userSpaceOnUse">
<stop stop-color="#FF7E21"/>
<stop offset="1"/>
</linearGradient>
<linearGradient id="paint10_linear_3193_5273" x1="24.3571" y1="30.7946" x2="22.2737" y2="26.5138" gradientUnits="userSpaceOnUse">
<stop stop-color="#B3320B"/>
<stop offset="1"/>
</linearGradient>
<radialGradient id="paint11_radial_3193_5273" cx="0" cy="0" r="1" gradientUnits="userSpaceOnUse" gradientTransform="translate(28.0165 14.1347) rotate(-169.704) scale(2.54448 1.18247)">
<stop stop-color="#9C6527"/>
<stop offset="0.17" stop-color="#BA9469"/>
<stop offset="0.35" stop-color="#D0B699"/>
<stop offset="0.67" stop-color="#EADED1"/>
<stop offset="1" stop-color="white"/>
</radialGradient>
<radialGradient id="paint12_radial_3193_5273" cx="0" cy="0" r="1" gradientUnits="userSpaceOnUse" gradientTransform="translate(26.9193 12.4789) rotate(-122.384) scale(2.54448 1.18247)">
<stop stop-color="#9C6527"/>
<stop offset="0.17" stop-color="#BA9469"/>
<stop offset="0.35" stop-color="#D0B699"/>
<stop offset="0.67" stop-color="#EADED1"/>
<stop offset="1" stop-color="white"/>
</radialGradient>
<radialGradient id="paint13_radial_3193_5273" cx="0" cy="0" r="1" gradientUnits="userSpaceOnUse" gradientTransform="translate(26.5733 25.6358) rotate(-163.344) scale(2.54448 1.18247)">
<stop stop-color="#9C6527"/>
<stop offset="0.17" stop-color="#BA9469"/>
<stop offset="0.35" stop-color="#D0B699"/>
<stop offset="0.67" stop-color="#EADED1"/>
<stop offset="1" stop-color="white"/>
</radialGradient>
<radialGradient id="paint14_radial_3193_5273" cx="0" cy="0" r="1" gradientUnits="userSpaceOnUse" gradientTransform="translate(24.0362 26.3324) rotate(156.446) scale(2.54449 1.18247)">
<stop stop-color="#9C6527"/>
<stop offset="0.17" stop-color="#BA9469"/>
<stop offset="0.35" stop-color="#D0B699"/>
<stop offset="0.67" stop-color="#EADED1"/>
<stop offset="1" stop-color="white"/>
</radialGradient>
<radialGradient id="paint15_radial_3193_5273" cx="0" cy="0" r="1" gradientUnits="userSpaceOnUse" gradientTransform="translate(21.754 27.6408) rotate(137.456) scale(2.54449 1.18247)">
<stop stop-color="#9C6527"/>
<stop offset="0.17" stop-color="#BA9469"/>
<stop offset="0.35" stop-color="#D0B699"/>
<stop offset="0.67" stop-color="#EADED1"/>
<stop offset="1" stop-color="white"/>
</radialGradient>
<radialGradient id="paint16_radial_3193_5273" cx="0" cy="0" r="1" gradientUnits="userSpaceOnUse" gradientTransform="translate(19.3832 30.269) rotate(137.456) scale(2.54448 1.18247)">
<stop stop-color="#9C6527"/>
<stop offset="0.17" stop-color="#BA9469"/>
<stop offset="0.35" stop-color="#D0B699"/>
<stop offset="0.67" stop-color="#EADED1"/>
<stop offset="1" stop-color="white"/>
</radialGradient>
<radialGradient id="paint17_radial_3193_5273" cx="0" cy="0" r="1" gradientUnits="userSpaceOnUse" gradientTransform="translate(27.8305 20.1113) rotate(176.436) scale(3.13881 1.18247)">
<stop stop-color="#9C6527"/>
<stop offset="0.17" stop-color="#BA9469"/>
<stop offset="0.35" stop-color="#D0B699"/>
<stop offset="0.67" stop-color="#EADED1"/>
<stop offset="1" stop-color="white"/>
</radialGradient>
<radialGradient id="paint18_radial_3193_5273" cx="0" cy="0" r="1" gradientUnits="userSpaceOnUse" gradientTransform="translate(25.4461 20.0267) rotate(165.646) scale(3.13881 1.18247)">
<stop stop-color="#9C6527"/>
<stop offset="0.17" stop-color="#BA9469"/>
<stop offset="0.35" stop-color="#D0B699"/>
<stop offset="0.67" stop-color="#EADED1"/>
<stop offset="1" stop-color="white"/>
</radialGradient>
<radialGradient id="paint19_radial_3193_5273" cx="0" cy="0" r="1" gradientUnits="userSpaceOnUse" gradientTransform="translate(23.4325 21.1464) rotate(145.976) scale(3.13882 1.18248)">
<stop stop-color="#9C6527"/>
<stop offset="0.17" stop-color="#BA9469"/>
<stop offset="0.35" stop-color="#D0B699"/>
<stop offset="0.67" stop-color="#EADED1"/>
<stop offset="1" stop-color="white"/>
</radialGradient>
<linearGradient id="paint20_linear_3193_5273" x1="18.1762" y1="18.5616" x2="29.7721" y2="27.4327" gradientUnits="userSpaceOnUse">
<stop stop-color="#F7C052"/>
<stop offset="0.19" stop-color="#FADC9E"/>
<stop offset="0.41" stop-color="#FCEBC8"/>
<stop offset="0.65" stop-color="#FEF7EA"/>
<stop offset="1" stop-color="white"/>
</linearGradient>
<linearGradient id="paint21_linear_3193_5273" x1="28.5331" y1="19.6789" x2="31.4798" y2="22.9906" gradientUnits="userSpaceOnUse">
<stop stop-color="white"/>
<stop offset="1"/>
</linearGradient>
<linearGradient id="paint22_linear_3193_5273" x1="22.6697" y1="18.4451" x2="23.7175" y2="18.6527" gradientUnits="userSpaceOnUse">
<stop stop-color="#E68F5C"/>
<stop offset="1"/>
</linearGradient>
<linearGradient id="paint23_linear_3193_5273" x1="25.0994" y1="18.7095" x2="26.1519" y2="18.9188" gradientUnits="userSpaceOnUse">
<stop stop-color="#E68F5C"/>
<stop offset="1"/>
</linearGradient>
<linearGradient id="paint24_linear_3193_5273" x1="24.1707" y1="14.0147" x2="25.2217" y2="14.2208" gradientUnits="userSpaceOnUse">
<stop stop-color="#E68F5C"/>
<stop offset="1"/>
</linearGradient>
<linearGradient id="paint25_linear_3193_5273" x1="26.6512" y1="17.0909" x2="27.7037" y2="17.3002" gradientUnits="userSpaceOnUse">
<stop stop-color="#E68F5C"/>
<stop offset="1"/>
</linearGradient>
<linearGradient id="paint26_linear_3193_5273" x1="20.4716" y1="17.1056" x2="23.3177" y2="18.6909" gradientUnits="userSpaceOnUse">
<stop stop-color="#E68F5C"/>
<stop offset="1"/>
</linearGradient>
<linearGradient id="paint27_linear_3193_5273" x1="22.4834" y1="12.7396" x2="25.333" y2="14.3244" gradientUnits="userSpaceOnUse">
<stop stop-color="#E68F5C"/>
<stop offset="1"/>
</linearGradient>
<linearGradient id="paint28_linear_3193_5273" x1="28.3885" y1="13.4814" x2="25.1726" y2="14.0017" gradientUnits="userSpaceOnUse">
<stop stop-color="#E68F5C"/>
<stop offset="1"/>
</linearGradient>
<linearGradient id="paint29_linear_3193_5273" x1="23.4665" y1="20.1178" x2="26.2789" y2="18.4736" gradientUnits="userSpaceOnUse">
<stop stop-color="#E68F5C"/>
<stop offset="1"/>
</linearGradient>
<linearGradient id="paint30_linear_3193_5273" x1="26.0701" y1="13.8559" x2="28.4259" y2="16.1093" gradientUnits="userSpaceOnUse">
<stop stop-color="#E68F5C"/>
<stop offset="1"/>
</linearGradient>
<linearGradient id="paint31_linear_3193_5273" x1="21.2098" y1="18.9213" x2="23.8243" y2="18.8618" gradientUnits="userSpaceOnUse">
<stop stop-color="#E68F5C"/>
<stop offset="1"/>
</linearGradient>
<linearGradient id="paint32_linear_3193_5273" x1="25.8246" y1="20.5056" x2="26.8539" y2="18.105" gradientUnits="userSpaceOnUse">
<stop stop-color="#E68F5C"/>
<stop offset="1"/>
</linearGradient>
<linearGradient id="paint33_linear_3193_5273" x1="23.7992" y1="15.0537" x2="25.6988" y2="13.2564" gradientUnits="userSpaceOnUse">
<stop stop-color="#E68F5C"/>
<stop offset="1"/>
</linearGradient>
<linearGradient id="paint34_linear_3193_5273" x1="28.99" y1="18.0749" x2="27.5646" y2="15.8862" gradientUnits="userSpaceOnUse">
<stop stop-color="#E68F5C"/>
<stop offset="1"/>
</linearGradient>
<radialGradient id="paint35_radial_3193_5273" cx="0" cy="0" r="1" gradientUnits="userSpaceOnUse" gradientTransform="translate(24.4288 21.6388) rotate(-18.8239) scale(2.6809 1.20723)">
<stop offset="0.01" stop-color="#DED5C2"/>
<stop offset="0.13" stop-color="#B29C71"/>
<stop offset="0.54" stop-color="#382B11"/>
<stop offset="0.72" stop-color="#1A1408"/>
<stop offset="1"/>
</radialGradient>
<radialGradient id="paint36_radial_3193_5273" cx="0" cy="0" r="1" gradientUnits="userSpaceOnUse" gradientTransform="translate(27.3151 22.3204) rotate(-18.8239) scale(4.46261 2.14805)">
<stop offset="0.01" stop-color="#DED5C2"/>
<stop offset="0.13" stop-color="#B29C71"/>
<stop offset="0.54" stop-color="#382B11"/>
<stop offset="0.72" stop-color="#1A1408"/>
<stop offset="1"/>
</radialGradient>
<radialGradient id="paint37_radial_3193_5273" cx="0" cy="0" r="1" gradientUnits="userSpaceOnUse" gradientTransform="translate(21.2158 23.5544) rotate(-18.8239) scale(4.46261 5.15365)">
<stop offset="0.01" stop-color="#DED5C2"/>
<stop offset="0.13" stop-color="#B29C71"/>
<stop offset="0.54" stop-color="#382B11"/>
<stop offset="0.72" stop-color="#1A1408"/>
<stop offset="1"/>
</radialGradient>
<radialGradient id="paint38_radial_3193_5273" cx="0" cy="0" r="1" gradientUnits="userSpaceOnUse" gradientTransform="translate(33.4155 15.7194) rotate(-18.8239) scale(4.46261 5.15365)">
<stop offset="0.01" stop-color="#DED5C2"/>
<stop offset="0.13" stop-color="#B29C71"/>
<stop offset="0.54" stop-color="#382B11"/>
<stop offset="0.72" stop-color="#1A1408"/>
<stop offset="1"/>
</radialGradient>
<radialGradient id="paint39_radial_3193_5273" cx="0" cy="0" r="1" gradientUnits="userSpaceOnUse" gradientTransform="translate(34.0466 18.5722) rotate(7.09612) scale(4.46261 2.14805)">
<stop offset="0.01" stop-color="#DED5C2"/>
<stop offset="0.13" stop-color="#B29C71"/>
<stop offset="0.54" stop-color="#382B11"/>
<stop offset="0.72" stop-color="#1A1408"/>
<stop offset="1"/>
</radialGradient>
<radialGradient id="paint40_radial_3193_5273" cx="0" cy="0" r="1" gradientUnits="userSpaceOnUse" gradientTransform="translate(32.1046 24.4895) rotate(-18.8239) scale(3.69977 1.78086)">
<stop offset="0.01" stop-color="#DED5C2"/>
<stop offset="0.13" stop-color="#B29C71"/>
<stop offset="0.54" stop-color="#382B11"/>
<stop offset="0.72" stop-color="#1A1408"/>
<stop offset="1"/>
</radialGradient>
<radialGradient id="paint41_radial_3193_5273" cx="0" cy="0" r="1" gradientUnits="userSpaceOnUse" gradientTransform="translate(35.9097 14.6094) rotate(-18.8239) scale(5.39708 2.59785)">
<stop offset="0.01" stop-color="#DED5C2"/>
<stop offset="0.13" stop-color="#B29C71"/>
<stop offset="0.54" stop-color="#382B11"/>
<stop offset="0.72" stop-color="#1A1408"/>
<stop offset="1"/>
</radialGradient>
<radialGradient id="paint42_radial_3193_5273" cx="0" cy="0" r="1" gradientUnits="userSpaceOnUse" gradientTransform="translate(39.6365 16.3017) rotate(-47.3039) scale(5.39709 2.59785)">
<stop offset="0.01" stop-color="#DED5C2"/>
<stop offset="0.13" stop-color="#B29C71"/>
<stop offset="0.54" stop-color="#382B11"/>
<stop offset="0.72" stop-color="#1A1408"/>
<stop offset="1"/>
</radialGradient>
<radialGradient id="paint43_radial_3193_5273" cx="0" cy="0" r="1" gradientUnits="userSpaceOnUse" gradientTransform="translate(27.4857 10.5855) rotate(-18.8239) scale(4.46261 2.14805)">
<stop offset="0.01" stop-color="#DED5C2"/>
<stop offset="0.13" stop-color="#B29C71"/>
<stop offset="0.54" stop-color="#382B11"/>
<stop offset="0.72" stop-color="#1A1408"/>
<stop offset="1"/>
</radialGradient>
<radialGradient id="paint44_radial_3193_5273" cx="0" cy="0" r="1" gradientUnits="userSpaceOnUse" gradientTransform="translate(21.3922 29.2514) rotate(-41.3839) scale(3.31835 1.59726)">
<stop stop-color="#EFC28F"/>
<stop offset="1" stop-color="white"/>
</radialGradient>
<radialGradient id="paint45_radial_3193_5273" cx="0" cy="0" r="1" gradientUnits="userSpaceOnUse" gradientTransform="translate(23.618 26.8776) rotate(-19.9239) scale(3.31835 1.18247)">
<stop stop-color="#EFC28F"/>
<stop offset="1" stop-color="white"/>
</radialGradient>
<radialGradient id="paint46_radial_3193_5273" cx="0" cy="0" r="1" gradientUnits="userSpaceOnUse" gradientTransform="translate(15.5541 32.8364) rotate(-19.9239) scale(3.31835 1.18247)">
<stop stop-color="#EFC28F"/>
<stop offset="1" stop-color="white"/>
</radialGradient>
<radialGradient id="paint47_radial_3193_5273" cx="0" cy="0" r="1" gradientUnits="userSpaceOnUse" gradientTransform="translate(28.7843 27.2237) rotate(54.7761) scale(2.54448 1.18248)">
<stop stop-color="#EFC28F"/>
<stop offset="1" stop-color="white"/>
</radialGradient>
<radialGradient id="paint48_radial_3193_5273" cx="0" cy="0" r="1" gradientUnits="userSpaceOnUse" gradientTransform="translate(30.7628 16.4975) rotate(97.0961) scale(2.54448 1.18247)">
<stop stop-color="#EFC28F"/>
<stop offset="1" stop-color="white"/>
</radialGradient>
<radialGradient id="paint49_radial_3193_5273" cx="0" cy="0" r="1" gradientUnits="userSpaceOnUse" gradientTransform="translate(30.9001 17.4871) rotate(97.0962) scale(2.54449 1.18247)">
<stop stop-color="#EFC28F"/>
<stop offset="1" stop-color="white"/>
</radialGradient>
<radialGradient id="paint50_radial_3193_5273" cx="0" cy="0" r="1" gradientUnits="userSpaceOnUse" gradientTransform="translate(30.1647 19.0177) rotate(112.356) scale(2.54449 1.18247)">
<stop stop-color="#EFC28F"/>
<stop offset="1" stop-color="white"/>
</radialGradient>
<radialGradient id="paint51_radial_3193_5273" cx="0" cy="0" r="1" gradientUnits="userSpaceOnUse" gradientTransform="translate(34.4055 23.0543) rotate(112.356) scale(2.54447 1.18247)">
<stop stop-color="#EFC28F"/>
<stop offset="1" stop-color="white"/>
</radialGradient>
<radialGradient id="paint52_radial_3193_5273" cx="0" cy="0" r="1" gradientUnits="userSpaceOnUse" gradientTransform="translate(25.0486 21.7748) rotate(146.816) scale(2.54448 1.18247)">
<stop stop-color="#EFC28F"/>
<stop offset="1" stop-color="white"/>
</radialGradient>
<radialGradient id="paint53_radial_3193_5273" cx="0" cy="0" r="1" gradientUnits="userSpaceOnUse" gradientTransform="translate(35.9712 16.3283) rotate(146.816) scale(2.54448 1.18247)">
<stop stop-color="#EFC28F"/>
<stop offset="1" stop-color="white"/>
</radialGradient>
<radialGradient id="paint54_radial_3193_5273" cx="0" cy="0" r="1" gradientUnits="userSpaceOnUse" gradientTransform="translate(29.3532 22.2856) rotate(122.076) scale(2.54448 1.18247)">
<stop stop-color="#EFC28F"/>
<stop offset="1" stop-color="white"/>
</radialGradient>
<radialGradient id="paint55_radial_3193_5273" cx="0" cy="0" r="1" gradientUnits="userSpaceOnUse" gradientTransform="translate(31.6457 11.2843) rotate(-172.374) scale(7.39947 3.43868)">
<stop stop-color="#EFC28F"/>
<stop offset="1" stop-color="white"/>
</radialGradient>
<radialGradient id="paint56_radial_3193_5273" cx="0" cy="0" r="1" gradientUnits="userSpaceOnUse" gradientTransform="translate(40.3594 19.2766) rotate(120.576) scale(7.39947 3.43868)">
<stop stop-color="#EFC28F"/>
<stop offset="1" stop-color="white"/>
</radialGradient>
<radialGradient id="paint57_radial_3193_5273" cx="0" cy="0" r="1" gradientUnits="userSpaceOnUse" gradientTransform="translate(17.2799 28.655) rotate(120.576) scale(5.52767 2.56882)">
<stop stop-color="#EFC28F"/>
<stop offset="1" stop-color="white"/>
</radialGradient>
<radialGradient id="paint58_radial_3193_5273" cx="0" cy="0" r="1" gradientUnits="userSpaceOnUse" gradientTransform="translate(28.1181 13.3278) rotate(-18.8239) scale(2.30759 1.11075)">
<stop offset="0.01" stop-color="#DED5C2"/>
<stop offset="0.13" stop-color="#B29C71"/>
<stop offset="0.54" stop-color="#382B11"/>
<stop offset="0.72" stop-color="#1A1408"/>
<stop offset="1"/>
</radialGradient>
<radialGradient id="paint59_radial_3193_5273" cx="0" cy="0" r="1" gradientUnits="userSpaceOnUse" gradientTransform="translate(31.4976 11.3128) rotate(-63.9439) scale(2.30759 1.76083)">
<stop offset="0.01" stop-color="#DED5C2"/>
<stop offset="0.13" stop-color="#B29C71"/>
<stop offset="0.54" stop-color="#382B11"/>
<stop offset="0.72" stop-color="#1A1408"/>
<stop offset="1"/>
</radialGradient>
<radialGradient id="paint60_radial_3193_5273" cx="0" cy="0" r="1" gradientUnits="userSpaceOnUse" gradientTransform="translate(19.9207 29.6371) rotate(-18.8239) scale(2.3076 0.89979)">
<stop offset="0.01" stop-color="#DED5C2"/>
<stop offset="0.13" stop-color="#B29C71"/>
<stop offset="0.54" stop-color="#382B11"/>
<stop offset="0.72" stop-color="#1A1408"/>
<stop offset="1"/>
</radialGradient>
<radialGradient id="paint61_radial_3193_5273" cx="0" cy="0" r="1" gradientUnits="userSpaceOnUse" gradientTransform="translate(17.3844 27.0976) rotate(-61.2639) scale(10.3119 2.88242)">
<stop offset="0.01" stop-color="#DED5C2"/>
<stop offset="0.13" stop-color="#B29C71"/>
<stop offset="0.54" stop-color="#382B11"/>
<stop offset="0.72" stop-color="#1A1408"/>
<stop offset="1"/>
</radialGradient>
<radialGradient id="paint62_radial_3193_5273" cx="0" cy="0" r="1" gradientUnits="userSpaceOnUse" gradientTransform="translate(37.372 22.1508) rotate(-18.8239) scale(2.30759 1.11075)">
<stop offset="0.01" stop-color="#DED5C2"/>
<stop offset="0.13" stop-color="#B29C71"/>
<stop offset="0.54" stop-color="#382B11"/>
<stop offset="0.72" stop-color="#1A1408"/>
<stop offset="1"/>
</radialGradient>
<radialGradient id="paint63_radial_3193_5273" cx="0" cy="0" r="1" gradientUnits="userSpaceOnUse" gradientTransform="translate(16.7636 33.4118) rotate(-30.1239) scale(8.14975 0.899787)">
<stop offset="0.01" stop-color="#DED5C2"/>
<stop offset="0.13" stop-color="#B29C71"/>
<stop offset="0.54" stop-color="#382B11"/>
<stop offset="0.72" stop-color="#1A1408"/>
<stop offset="1"/>
</radialGradient>
<radialGradient id="paint64_radial_3193_5273" cx="0" cy="0" r="1" gradientUnits="userSpaceOnUse" gradientTransform="translate(30.0281 26.5949) rotate(-24.7139) scale(7.12511 0.89979)">
<stop offset="0.01" stop-color="#DED5C2"/>
<stop offset="0.13" stop-color="#B29C71"/>
<stop offset="0.54" stop-color="#382B11"/>
<stop offset="0.72" stop-color="#1A1408"/>
<stop offset="1"/>
</radialGradient>
<radialGradient id="paint65_radial_3193_5273" cx="0" cy="0" r="1" gradientUnits="userSpaceOnUse" gradientTransform="translate(39.1069 22.6857) rotate(-24.7139) scale(2.51524 0.639518)">
<stop offset="0.01" stop-color="#DED5C2"/>
<stop offset="0.13" stop-color="#B29C71"/>
<stop offset="0.54" stop-color="#382B11"/>
<stop offset="0.72" stop-color="#1A1408"/>
<stop offset="1"/>
</radialGradient>
<radialGradient id="paint66_radial_3193_5273" cx="0" cy="0" r="1" gradientUnits="userSpaceOnUse" gradientTransform="translate(36.691 24.0335) rotate(-20.8039) scale(2.51523 0.440625)">
<stop offset="0.01" stop-color="#DED5C2"/>
<stop offset="0.13" stop-color="#B29C71"/>
<stop offset="0.54" stop-color="#382B11"/>
<stop offset="0.72" stop-color="#1A1408"/>
<stop offset="1"/>
</radialGradient>
<radialGradient id="paint67_radial_3193_5273" cx="0" cy="0" r="1" gradientUnits="userSpaceOnUse" gradientTransform="translate(41.7946 19.7352) rotate(-54.3239) scale(3.21556 0.645781)">
<stop offset="0.01" stop-color="#DED5C2"/>
<stop offset="0.13" stop-color="#B29C71"/>
<stop offset="0.54" stop-color="#382B11"/>
<stop offset="0.72" stop-color="#1A1408"/>
<stop offset="1"/>
</radialGradient>
</defs>
</svg>
